<mxfile host="Electron" modified="2023-11-16T00:38:47.737Z" agent="Mozilla/5.0 (Macintosh; Intel Mac OS X 10_15_7) AppleWebKit/537.36 (KHTML, like Gecko) draw.io/22.0.3 Chrome/114.0.5735.289 Electron/25.8.4 Safari/537.36" etag="QFCttAEWTmAuPgNDYli5" version="22.0.3" type="device">
  <diagram name="Page-1" id="G-6K_w4NhDwVxb-ctgTd">
    <mxGraphModel dx="595" dy="806" grid="0" gridSize="10" guides="1" tooltips="1" connect="1" arrows="1" fold="1" page="1" pageScale="1" pageWidth="850" pageHeight="1100" math="0" shadow="0">
      <root>
        <mxCell id="0" />
        <mxCell id="1" parent="0" />
        <mxCell id="LtUoJUIRz-PqMo0fcvZF-32" value="&lt;span style=&quot;color: rgb(0, 0, 0); font-family: Helvetica; font-size: 12px; font-style: normal; font-variant-ligatures: normal; font-variant-caps: normal; font-weight: 700; letter-spacing: normal; orphans: 2; text-align: center; text-indent: 0px; text-transform: none; widows: 2; word-spacing: 0px; -webkit-text-stroke-width: 0px; text-decoration-thickness: initial; text-decoration-style: initial; text-decoration-color: initial; float: none; display: inline !important; background-color: rgb(213, 232, 212);&quot;&gt;App.component (selector: app-root)&lt;/span&gt;" style="swimlane;whiteSpace=wrap;html=1;" vertex="1" parent="1">
          <mxGeometry x="152" y="105" width="520" height="1721" as="geometry" />
        </mxCell>
        <mxCell id="LtUoJUIRz-PqMo0fcvZF-1" value="&lt;span style=&quot;background-color: rgb(255, 206, 159);&quot;&gt;Header (normal = buttons ; small = hamburger)&lt;/span&gt;" style="swimlane;whiteSpace=wrap;html=1;" vertex="1" parent="LtUoJUIRz-PqMo0fcvZF-32">
          <mxGeometry x="30.25" y="78" width="459.5" height="254" as="geometry" />
        </mxCell>
        <mxCell id="LtUoJUIRz-PqMo0fcvZF-24" value="" style="group" vertex="1" connectable="0" parent="LtUoJUIRz-PqMo0fcvZF-1">
          <mxGeometry x="113.75" y="35" width="272" height="106.5" as="geometry" />
        </mxCell>
        <mxCell id="LtUoJUIRz-PqMo0fcvZF-5" value="" style="group" vertex="1" connectable="0" parent="LtUoJUIRz-PqMo0fcvZF-24">
          <mxGeometry x="43" width="102" height="96" as="geometry" />
        </mxCell>
        <mxCell id="LtUoJUIRz-PqMo0fcvZF-7" value="" style="group" vertex="1" connectable="0" parent="LtUoJUIRz-PqMo0fcvZF-5">
          <mxGeometry x="-7" y="2" width="80" height="80" as="geometry" />
        </mxCell>
        <mxCell id="LtUoJUIRz-PqMo0fcvZF-3" value="" style="rhombus;whiteSpace=wrap;html=1;" vertex="1" parent="LtUoJUIRz-PqMo0fcvZF-7">
          <mxGeometry x="-60" y="-5" width="70" height="60" as="geometry" />
        </mxCell>
        <mxCell id="LtUoJUIRz-PqMo0fcvZF-17" value="&lt;font style=&quot;font-size: 8px;&quot;&gt;No&lt;/font&gt;" style="text;html=1;strokeColor=none;fillColor=none;align=center;verticalAlign=middle;whiteSpace=wrap;rounded=0;" vertex="1" parent="LtUoJUIRz-PqMo0fcvZF-7">
          <mxGeometry x="4" y="4" width="50" height="20" as="geometry" />
        </mxCell>
        <mxCell id="LtUoJUIRz-PqMo0fcvZF-4" value="&lt;font style=&quot;font-size: 8px;&quot;&gt;IsUserLoggedIn?&lt;/font&gt;" style="text;html=1;strokeColor=none;fillColor=none;align=center;verticalAlign=middle;whiteSpace=wrap;rounded=0;" vertex="1" parent="LtUoJUIRz-PqMo0fcvZF-7">
          <mxGeometry x="-50" y="8.75" width="50" height="32.5" as="geometry" />
        </mxCell>
        <mxCell id="LtUoJUIRz-PqMo0fcvZF-18" value="&lt;font style=&quot;font-size: 8px; background-color: rgb(255, 206, 159);&quot;&gt;Login&amp;nbsp;&lt;/font&gt;" style="swimlane;whiteSpace=wrap;html=1;startSize=14;" vertex="1" parent="LtUoJUIRz-PqMo0fcvZF-5">
          <mxGeometry x="44" y="56" width="61" height="51.5" as="geometry" />
        </mxCell>
        <mxCell id="LtUoJUIRz-PqMo0fcvZF-23" style="edgeStyle=orthogonalEdgeStyle;rounded=0;orthogonalLoop=1;jettySize=auto;html=1;entryX=1;entryY=0.5;entryDx=0;entryDy=0;" edge="1" parent="LtUoJUIRz-PqMo0fcvZF-24" source="LtUoJUIRz-PqMo0fcvZF-39" target="LtUoJUIRz-PqMo0fcvZF-18">
          <mxGeometry relative="1" as="geometry">
            <mxPoint x="178.1029411764705" y="34" as="sourcePoint" />
          </mxGeometry>
        </mxCell>
        <mxCell id="LtUoJUIRz-PqMo0fcvZF-20" value="&lt;font style=&quot;font-size: 8px; background-color: rgb(255, 206, 159);&quot;&gt;Register&lt;/font&gt;" style="swimlane;whiteSpace=wrap;html=1;startSize=15;" vertex="1" parent="LtUoJUIRz-PqMo0fcvZF-24">
          <mxGeometry x="211" y="55" width="61" height="51.5" as="geometry" />
        </mxCell>
        <mxCell id="LtUoJUIRz-PqMo0fcvZF-41" style="edgeStyle=orthogonalEdgeStyle;rounded=0;orthogonalLoop=1;jettySize=auto;html=1;entryX=0;entryY=0.5;entryDx=0;entryDy=0;" edge="1" parent="LtUoJUIRz-PqMo0fcvZF-24" source="LtUoJUIRz-PqMo0fcvZF-39" target="LtUoJUIRz-PqMo0fcvZF-20">
          <mxGeometry relative="1" as="geometry" />
        </mxCell>
        <mxCell id="LtUoJUIRz-PqMo0fcvZF-39" value="" style="ellipse;whiteSpace=wrap;html=1;" vertex="1" parent="LtUoJUIRz-PqMo0fcvZF-24">
          <mxGeometry x="118" y="-8" width="120.25" height="44" as="geometry" />
        </mxCell>
        <mxCell id="LtUoJUIRz-PqMo0fcvZF-42" style="edgeStyle=orthogonalEdgeStyle;rounded=0;orthogonalLoop=1;jettySize=auto;html=1;entryX=0;entryY=0.5;entryDx=0;entryDy=0;" edge="1" parent="LtUoJUIRz-PqMo0fcvZF-24" target="LtUoJUIRz-PqMo0fcvZF-39">
          <mxGeometry relative="1" as="geometry">
            <mxPoint x="45" y="27" as="sourcePoint" />
          </mxGeometry>
        </mxCell>
        <mxCell id="LtUoJUIRz-PqMo0fcvZF-43" value="&lt;font style=&quot;font-size: 8px;&quot;&gt;Login Prompt&lt;/font&gt;" style="text;html=1;strokeColor=none;fillColor=none;align=center;verticalAlign=middle;whiteSpace=wrap;rounded=0;" vertex="1" parent="LtUoJUIRz-PqMo0fcvZF-24">
          <mxGeometry x="145" width="60" height="23" as="geometry" />
        </mxCell>
        <mxCell id="LtUoJUIRz-PqMo0fcvZF-26" value="&lt;font style=&quot;font-size: 8px; background-color: rgb(255, 206, 159);&quot;&gt;Sign Off&lt;/font&gt;" style="swimlane;whiteSpace=wrap;html=1;startSize=16;" vertex="1" parent="LtUoJUIRz-PqMo0fcvZF-1">
          <mxGeometry x="43" y="149" width="61" height="51.5" as="geometry" />
        </mxCell>
        <mxCell id="LtUoJUIRz-PqMo0fcvZF-10" value="&lt;font style=&quot;font-size: 8px;&quot;&gt;Yes&lt;/font&gt;" style="text;html=1;strokeColor=none;fillColor=none;align=center;verticalAlign=middle;whiteSpace=wrap;rounded=0;" vertex="1" parent="LtUoJUIRz-PqMo0fcvZF-1">
          <mxGeometry x="100" y="94" width="50" height="20" as="geometry" />
        </mxCell>
        <mxCell id="LtUoJUIRz-PqMo0fcvZF-28" style="edgeStyle=orthogonalEdgeStyle;rounded=0;orthogonalLoop=1;jettySize=auto;html=1;" edge="1" parent="LtUoJUIRz-PqMo0fcvZF-1" source="LtUoJUIRz-PqMo0fcvZF-3" target="LtUoJUIRz-PqMo0fcvZF-26">
          <mxGeometry relative="1" as="geometry" />
        </mxCell>
        <mxCell id="LtUoJUIRz-PqMo0fcvZF-29" value="&lt;font style=&quot;font-size: 8px; background-color: rgb(255, 206, 159);&quot;&gt;User Profile&lt;/font&gt;" style="swimlane;whiteSpace=wrap;html=1;startSize=15;" vertex="1" parent="LtUoJUIRz-PqMo0fcvZF-1">
          <mxGeometry x="135.75" y="174" width="299" height="51.5" as="geometry" />
        </mxCell>
        <mxCell id="LtUoJUIRz-PqMo0fcvZF-94" value="&lt;div style=&quot;text-align: left;&quot;&gt;&lt;span style=&quot;font-size: 10px; background-color: initial;&quot;&gt;&amp;lt; app-movie-card *ngIf = &quot; movies.length &amp;gt; 0 &quot;&lt;/span&gt;&lt;/div&gt;&lt;font style=&quot;&quot;&gt;&lt;div style=&quot;text-align: left;&quot;&gt;&lt;span style=&quot;font-size: 10px; background-color: initial;&quot;&gt;[ fovoriteMoviesIDs ] = &quot; favoriteMoviesIDs &#39; &amp;gt; &amp;lt; app-movie-card &amp;gt;&lt;/span&gt;&lt;/div&gt;&lt;/font&gt;" style="text;html=1;strokeColor=none;fillColor=none;align=center;verticalAlign=middle;whiteSpace=wrap;rounded=0;" vertex="1" parent="LtUoJUIRz-PqMo0fcvZF-29">
          <mxGeometry y="14" width="299" height="30" as="geometry" />
        </mxCell>
        <mxCell id="LtUoJUIRz-PqMo0fcvZF-31" style="edgeStyle=orthogonalEdgeStyle;rounded=0;orthogonalLoop=1;jettySize=auto;html=1;entryX=0.5;entryY=0;entryDx=0;entryDy=0;" edge="1" parent="LtUoJUIRz-PqMo0fcvZF-1" source="LtUoJUIRz-PqMo0fcvZF-3" target="LtUoJUIRz-PqMo0fcvZF-29">
          <mxGeometry relative="1" as="geometry">
            <Array as="points">
              <mxPoint x="125" y="155" />
              <mxPoint x="220" y="155" />
            </Array>
          </mxGeometry>
        </mxCell>
        <mxCell id="LtUoJUIRz-PqMo0fcvZF-33" value="&lt;span style=&quot;background-color: rgb(213, 232, 212);&quot;&gt;router-outlet&lt;/span&gt;" style="swimlane;whiteSpace=wrap;html=1;" vertex="1" parent="LtUoJUIRz-PqMo0fcvZF-32">
          <mxGeometry x="30.25" y="364" width="459.75" height="346" as="geometry" />
        </mxCell>
        <mxCell id="LtUoJUIRz-PqMo0fcvZF-34" value="&lt;span style=&quot;background-color: rgb(255, 206, 159);&quot;&gt;app-routing.modules&lt;/span&gt;" style="swimlane;whiteSpace=wrap;html=1;" vertex="1" parent="LtUoJUIRz-PqMo0fcvZF-33">
          <mxGeometry x="19.87" y="64" width="420.13" height="282" as="geometry" />
        </mxCell>
        <mxCell id="LtUoJUIRz-PqMo0fcvZF-36" value="" style="swimlane;startSize=0;" vertex="1" parent="LtUoJUIRz-PqMo0fcvZF-34">
          <mxGeometry x="14.369999999999997" y="47" width="392.75" height="234" as="geometry">
            <mxRectangle x="14.369999999999997" y="47" width="50" height="44" as="alternateBounds" />
          </mxGeometry>
        </mxCell>
        <mxCell id="LtUoJUIRz-PqMo0fcvZF-37" value="" style="shape=image;verticalLabelPosition=bottom;labelBackgroundColor=default;verticalAlign=top;aspect=fixed;imageAspect=0;image=data:image/png,iVBORw0KGgoAAAANSUhEUgAAAw4AAAF+CAYAAAAr/02lAAAKq2lDQ1BJQ0MgUHJvZmlsZQAASImVlwdQU+kWx7970xstIQJSQm+CdAJICaGFIr3aCEkgoYQYCAI2VBZXcC2oiIAFdEFEwbUAYkcU26LYwLogi4iyigUbKu8CQ3D3zXtv3pk5c345Od//O9+d+82cCwBFiSuRpMJKAKSJM6Vhvp6MmNg4Bm4AkAAMyEAJKHN5GRJWSEggQGwq/t0+3APQeLxtMa717///V1PmCzJ4AEAhCCfwM3hpCB9D/AVPIs0EALUHyesvyZSMcxvCNCnSIMLd45w0yUPjnDDBaDBRExHGRpgGAJ7M5UqTACAzkDwji5eE6JA9ELYS80VihCUIu6WlpfMRPoywCVKD5Mjj+syEH3SS/qaZINfkcpPkPHmWCcN7iTIkqdyc//Nx/G9LS5VN7WGEOFko9QtDogryzLpT0gPkLE6YGzzFIv5E/QQLZX6RU8zLYMdNMZ/rFSBfmzo3cIoTRT4cuU4mJ2KKBRne4VMsTQ+T75UoZbOmmCud3leWEinPCwUcuX6uMCJ6irNEUXOnOCMlPGC6hi3PS2Vh8v4FYl/P6X195GdPy/jhvCKOfG2mMMJPfnbudP8CMWtaMyNG3htf4OU9XRMpr5dkesr3kqSGyOsFqb7yfEZWuHxtJvJCTq8NkT/DZK5/yBQDNkgHqYhLAQMEIr+8AMgUZGeOH4SdLsmRipKEmQwWcsMEDI6YZzmLYWNlYwvA+H2dfB3e0SfuIUS/Op1bsxYA19qxsbGT07mAfgCOvgaA+Hg6Z5wMgIIQgMvbeDJp1mRu4i5hABEoAhpQB9pAH5gAC2ADHIAL8ADewB8EgwgQCxYCHhCCNKTzJWAZWAUKQBHYBLaBMrAb7AX7wSFwBDSBU+A8uASugZvgLngIekA/eAmGwQcwCkEQDqJAVEgd0oEMIXPIBmJCbpA3FAiFQbFQPJQEiSEZtAxaAxVBxVAZVAnVQr9BJ6Dz0BWoE7oP9UKD0FvoC4yCyTAN1oKN4NkwE2bBAXAEvABOghfDuXA+vAEuhavgg3AjfB6+Bt+Fe+CX8AgKoEgoOkoXZYFiotioYFQcKhElRa1AFaJKUFWoelQLqh11G9WDGkJ9RmPRVDQDbYF2QfuhI9E89GL0CvR6dBl6P7oR3Ya+je5FD6O/YygYTYw5xhnDwcRgkjBLMAWYEkw15jjmIuYuph/zAYvF0rHGWEesHzYWm4xdil2P3YltwJ7DdmL7sCM4HE4dZ45zxQXjuLhMXAFuB+4g7izuFq4f9wlPwuvgbfA++Di8GL8aX4I/gD+Dv4UfwI8SlAiGBGdCMIFPyCFsJOwjtBBuEPoJo0RlojHRlRhBTCauIpYS64kXiY+I70gkkh7JiRRKEpHySKWkw6TLpF7SZ7IK2YzMJs8ny8gbyDXkc+T75HcUCsWI4kGJo2RSNlBqKRcoTyifFKgKlgocBb7CSoVyhUaFWwqvFAmKhoosxYWKuYolikcVbygOKRGUjJTYSlylFUrlSieUupRGlKnK1srBymnK65UPKF9Rfq6CUzFS8Vbhq+Sr7FW5oNJHRVH1qWwqj7qGuo96kdpPw9KMaRxaMq2IdojWQRtWVVG1U41SzVYtVz2t2kNH0Y3oHHoqfSP9CP0e/csMrRmsGYIZ62bUz7g146PaTDUPNYFaoVqD2l21L+oMdW/1FPXN6k3qjzXQGmYaoRpLNHZpXNQYmkmb6TKTN7Nw5pGZDzRhTTPNMM2lmns1r2uOaGlr+WpJtHZoXdAa0qZre2gna2/VPqM9qEPVcdMR6WzVOavzgqHKYDFSGaWMNsawrqaun65Mt1K3Q3dUz1gvUm+1XoPeY32iPlM/UX+rfqv+sIGOQZDBMoM6gweGBEOmodBwu2G74UcjY6Noo7VGTUbPjdWMOca5xnXGj0woJu4mi02qTO6YYk2ZpimmO01vmsFm9mZCs3KzG+awuYO5yHyneecszCynWeJZVbO6LMgWLIssizqLXku6ZaDlassmy1ezDWbHzd48u332dyt7q1SrfVYPrVWs/a1XW7dYv7Uxs+HZlNvcsaXY+tiutG22fWNnbiew22XXbU+1D7Jfa99q/83B0UHqUO8w6GjgGO9Y4djFpDFDmOuZl50wTp5OK51OOX12dnDOdD7i/NrFwiXF5YDL8znGcwRz9s3pc9Vz5bpWuva4Mdzi3fa49bjrunPdq9yfeuh78D2qPQZYpqxk1kHWK08rT6nncc+PbGf2cvY5L5SXr1ehV4e3inekd5n3Ex89nySfOp9hX3vfpb7n/DB+AX6b/bo4Whwep5Yz7O/ov9y/LYAcEB5QFvA00CxQGtgSBAf5B20JejTXcK54blMwCOYEbwl+HGIcsjjkZCg2NCS0PPRZmHXYsrD2cGr4ovAD4R8iPCM2RjyMNImURbZGKUbNj6qN+hjtFV0c3RMzO2Z5zLVYjVhRbHMcLi4qrjpuZJ73vG3z+ufbzy+Yf2+B8YLsBVcWaixMXXh6keIi7qKj8Zj46PgD8V+5wdwq7kgCJ6EiYZjH5m3nveR78LfyBwWugmLBQKJrYnHi8yTXpC1Jg0J3YYlwSMQWlYneJPsl707+mBKcUpMylhqd2pCGT4tPOyFWEaeI29K107PTOyXmkgJJz2LnxdsWD0sDpNUZUMaCjOZMGjIYXZeZyH6S9Wa5ZZVnfVoSteRotnK2OPt6jlnOupyBXJ/cX5eil/KWti7TXbZqWe9y1vLKFdCKhBWtK/VX5q/sz/PN27+KuCpl1e+rrVYXr36/JnpNS75Wfl5+30++P9UVKBRIC7rWuqzd/TP6Z9HPHets1+1Y972QX3i1yKqopOjret76q79Y/1L6y9iGxA0dGx027tqE3STedG+z++b9xcrFucV9W4K2NG5lbC3c+n7bom1XSuxKdm8nbpdt7ykNLG3eYbBj046vZcKyu+We5Q0VmhXrKj7u5O+8tctjV/1urd1Fu7/sEe3prvStbKwyqirZi92btffZvqh97b8yf62t1qguqv5WI67p2R+2v63Wsbb2gOaBjXVwnaxu8OD8gzcPeR1qrreor2ygNxQdBodlh1/8Fv/bvSMBR1qPMo/WHzM8VnGcerywEWrMaRxuEjb1NMc2d57wP9Ha4tJy/KTlyZpTuqfKT6ue3niGeCb/zNjZ3LMj5yTnhs4nne9rXdT68ELMhTttoW0dFwMuXr7kc+lCO6v97GXXy6euOF85cZV5temaw7XG6/bXj/9u//vxDoeOxhuON5pvOt1s6ZzTeeaW+63zt71uX7rDuXPt7ty7nfci73V3ze/q6eZ3P7+fev/Ng6wHow/zHmEeFT5WelzyRPNJ1R+mfzT0OPSc7vXqvf40/OnDPl7fyz8z/vzan/+M8qxkQGeg9rnN81ODPoM3X8x70f9S8nJ0qOAv5b8qXpm8Ovba4/X14Zjh/jfSN2Nv179Tf1fz3u5960jIyJMPaR9GPxZ+Uv+0/zPzc/uX6C8Do0u+4r6WfjP91vI94PujsbSxMQlXyp0YBVCIw4mJALytAYASCwD1JjI/zJucpycMmvwGmCDwn3hy5p4wBwDqkTA+FrHPAXAYcSMPRDsPgPGRKMIDwLa2cp+afSfm9HHDIl8se7zG6f6WBXngHzY5w//Q9z8jGFe1A/+M/wI5Mwe8FnF26gAAAIplWElmTU0AKgAAAAgABAEaAAUAAAABAAAAPgEbAAUAAAABAAAARgEoAAMAAAABAAIAAIdpAAQAAAABAAAATgAAAAAAAACQAAAAAQAAAJAAAAABAAOShgAHAAAAEgAAAHigAgAEAAAAAQAAAw6gAwAEAAAAAQAAAX4AAAAAQVNDSUkAAABTY3JlZW5zaG901Re/pQAAAAlwSFlzAAAWJQAAFiUBSVIk8AAAAdZpVFh0WE1MOmNvbS5hZG9iZS54bXAAAAAAADx4OnhtcG1ldGEgeG1sbnM6eD0iYWRvYmU6bnM6bWV0YS8iIHg6eG1wdGs9IlhNUCBDb3JlIDYuMC4wIj4KICAgPHJkZjpSREYgeG1sbnM6cmRmPSJodHRwOi8vd3d3LnczLm9yZy8xOTk5LzAyLzIyLXJkZi1zeW50YXgtbnMjIj4KICAgICAgPHJkZjpEZXNjcmlwdGlvbiByZGY6YWJvdXQ9IiIKICAgICAgICAgICAgeG1sbnM6ZXhpZj0iaHR0cDovL25zLmFkb2JlLmNvbS9leGlmLzEuMC8iPgogICAgICAgICA8ZXhpZjpQaXhlbFlEaW1lbnNpb24+MzgyPC9leGlmOlBpeGVsWURpbWVuc2lvbj4KICAgICAgICAgPGV4aWY6UGl4ZWxYRGltZW5zaW9uPjc4MjwvZXhpZjpQaXhlbFhEaW1lbnNpb24+CiAgICAgICAgIDxleGlmOlVzZXJDb21tZW50PlNjcmVlbnNob3Q8L2V4aWY6VXNlckNvbW1lbnQ+CiAgICAgIDwvcmRmOkRlc2NyaXB0aW9uPgogICA8L3JkZjpSREY+CjwveDp4bXBtZXRhPgpWnmebAAAAHGlET1QAAAACAAAAAAAAAL8AAAAoAAAAvwAAAL8AALeoCDJngwAAQABJREFUeAHsXQV8FEcXfxCIO8EluLtD0eIUCpQape1XdwoV6va1VCjQQpUK9a8KbbFCKe7u7hAkEIgBweGb/xzvMne5u9wll3CXvuFHbnd2dnbmv7uz7z9PplB8fPxlkiQICAKCgCAgCAgCgoAgIAgIAoKACwQKCXFwgY4cEgQEAUFAEBAEBAFBQBAQBAQBjYAQB3kQBAFBQBAQBAQBQUAQEAQEAUEgWwSEOGQLkRQQBAQBQUAQEAQEAUFAEBAEBAEhDvIMCAKCgCAgCAgCgoAgIAgIAoJAtggIccgWIikgCAgCgoAgIAgIAoKAICAICAJCHOQZEAQEAUFAEBAEBAFBQBAQBASBbBEQ4pAtRFJAEBAEBAFBQBAQBAQBQUAQEASEOMgzIAgIAoKAICAICAKCgCAgCAgC2SIgxCFbiKSAICAICAKCgCAgCAgCgoAgIAgIcZBnQBAQBAQBQUAQEAQEAUFAEBAEskVAiEO2EEkBQUAQ8BUEbuwaTQ1qhlibs+/QOfpy/HHrvmwIAoKAICAICAKCQN4hIMQh77CVmgUBQcDLCEwZW4WqVwyy1pp24iI1u2mbdV82BAFBQBAQBAQBQSDvEBDi4ATb6HI1KSSqJKUkbKYz6UlOShWc7LASFSimcgM6eWQPpe7ZWHA6ZvQktmo8XfPcw0YO0cXzF+jU0eN0ZO0m2j5pFl26eNHmeH7tFAkJotKN69H5jNOUuGZTfl3W767DxGHVxgz6cUoKJaVeoKVrT/ldP6TBgoAgIAgIAoKAPyIgxMHJXWt9/2iKKFmZts/8hvYs/d1JqYKTXfump6harwfp+LYVtPCtgQWnY0ZPSjaolYU4GIe10P734P/SuZMZZna+bMdUiaeOw56ii2fP0cS7ns6Xa/rjRZg4/DY9lV4cfcgfuyBtFgQEAUFAEBAE/BYBIQ5Obp0QByfA+HG2SRwm3TNU9aQQlahTneI7tKDSTerpniVt2k4Lhn2U770U4uAe5EIc3MNJSgkCgoAgIAgIAnmBQB4Sh0IUWaoSRZWpTsFRcZRx/BAd3b6Mzp/JalZQqFBhiipbnaLL1qRChQpR6oGtlHpoO12+ZGs2ElAkUGkBKtKFc2foZNJ+CokuSSWrt9S4JO1aRaeOH3CKUVzlRhRRohIVDQlTpkfHKHn/Jl2HeUJwZHEKjojRWfX7Pa3qL0UH1vxNB9f+Yy2WkXqEzp1Ks+7nZKNoSASFl6lM50+mKdOgvRQQGKLMVDpTeOlK2kwoce3sLNVGlKlCxao3paDIWErdu5mOb19JFxxgGVmuOhUKKEJp+7cQXb5srScwLIpC4srSuRPJdDo5UedzO7BTudtdVK7FdXTi4A5aM+4F63nnTqbSqSP7rPu8ERAYTLFVGlJstUZqpv4kHdu6jNIPbOfDWX6Do4tTiXrtCCZRaPepxL2UuH4eXTp/NktZZMTGxlK5cuX0sTNnztD27c7rdliBg0yTOPw+4HGbEl3ff5nCSxVXpkvnaeKdT9kcw06R4CAqVqOyMucqT2fTTynNzG7V38NZygVFhlNIbDSdSU3X/80CkeVKU+EiAZSWcIguX7xEhQoX1vWhTFR8WWp036106cJFmv/f0dbTLqlyqXsSrPu8gXOjK5bTbQoICtTtOb59t66Xy5i/AYFFqVTjuhRZtqTKLkQZx5KVSdRm1ZcTZjGf3xbi4PO3SBooCAgCgoAgUIARyBPiEFEinpoMeI2CIorZQHdZCbJb//6c9q+cas2H8N/iP+9kKXvuZAot++55ykjONEeA8N/ktv/ShbMZdEwRhVK121rrwQbq3rdiik0ehOM2D39CgaFRNvnYObJlEa2dMNya32zg6xRbqaF139HGvuWTaOuMLx0dcjuvcqeBVO/OVzVpSFjwO9W68Umbc49smE9LR96n8yCgN3v8IyqphG4zXbpwnlZ+PJgOr55pZlOfby0C9vRBrZRQmBltplb/J6j69Q9T8s7VtOCNW/U5VbrcSXVvf8nmfPudE4d20uzne9pkg+Q0fXSMEoKL2uQf3bSIlo9+hC6eO22TX7PvY1Sjn62gjgKXL1+if57sYCUy5klPPvkkderUSWdduHCB+vTpYx7O0bYr4lDn1t5Uo08XXe8ftw+xEcBLNqxNrZ66Xwv95oWTNu+gJSM+V0Qok/w0vPsmqty1LSWu3UyLh481i1O/H0YrUleYZg59W5MOEIweH79uU8Z+B+/MH7cNtskOL12C2r40SBEU22f6dHKaurcf0MlEW5+cEvVqUOtnHsrSflS6+vOfaO+cJTb1+/KOEAdfvjvSNkFAEBAEBIGCjoDXiUNwRBy1e3yc1hxcVLPJiZsXaOfiyFJVKK5qMzV7P4M2Tf3Yiuu1T/1PaQEi1EzrOTq0frYSJi9TmfrXUkDRIKVZOE2zRwzQAiZOYOLAJx/ftVppME5SiZqtqbCaZYeGYua7t+i6uEzD/s9QyVpt1EzyWUravpROJO6l0GJl1Dmt6FTSPlr27fNclErVuoZi4+vq/dL1OlKRoFBVfrfSgKjZ+yspcctiSt63gXdz9MvE4bJyxC0UEKAEzww6vmOlmn0/R3E1milCsU/NOt+o624x5FMq1cgiQB9c/hedUdqCMs17KKGxtD4+69muSlDca22HJ8QhqkItim9/kz43rnZLiihTVdn3p9LBpZnkK33/Vto771dr/SXrt6eWT32h908c3k2Hl0+jIKVNqNCmv+7LkfWK9IyykB4UCoktRV3em6ueh8KUsns9Hdu4mC6rf8VqNFX/m5F9+/lC+U0cOr3zrJ71P308haY99io3g0LjYqn7h6/p/TMpaZSweDUFx0RS+dZNdN7RDduUT0jm8+wJcYCmoO6A63U9oXEx2lwKz//uGQt0Hv5cPHeeNv440bofGB5G1419UxMQOFLvm7tUOXRfooodWxKOnT+VQVMefMGG+Fz32ZtKUxWhCFoaHVqxjs6mpVOU0laUaVKfNv06RTmF25JP68Wy2WjSpAkNGTIkm1KWw2PHjqVFixa5VdZVISEOrtCRY4KAICAICAKCQN4i4HXi0PzOtymmQh06f/oELfj4ARvTJGgXwmLL0LHda3SvyjXsQnV6DdLbCz5+kDJSLKYfMBlqN+hLTT62zviC9i2frMuYxCFBaS02T/9M5weFx1CHId/q7VU/vaa0Eav1Nv50e2mS3t7w53t0aONcvc1/cN5ZpdlwlPLSx4GJA64L06B5r92YOUuvTLWiytfUpkYQuru+P183b903r6iZ4Z/1NkhSl1FzlABbkpI2LabF796l8/HHE+JgPUltuOUcrdrW/cMlSjsUq4jOalo4zKK5QD0xletTu1fH6yrnvNjLarZU/46XqVLnO7T2A1oQMwVFFtNExd4kDWXymjhAq1BI/YutXpEqtGtBFTtYTN62TfyHNv1sed7QDmgaSjetp9p/kqYrQgFTJqTy1zSlZo/dqbdnPPGGdZbfE+KgT77yx10fh5ZP3kdlmtXXWo6pD7xgbU9A0aLU+6t3tVZh0y9TaNufM3TNxZUPR9uXHtPbUxWhQD844ZyAoKI5dgbv3r07DRpkeX+5Tme/X331FU2YMMHZYbfzhTi4DZUUFAQEAUFAEBAEvI6A14lD1xcnaoHfkaBu3/rGN79Exas3pzTl07D0m2dsDrPZUPLe9bTiB4s5jUkcln71NKUpPwhOnZ75hYooX4Et08bS/lV/cTZ1fuZX5UMQTPuWTqStM8dZ87PbyC/iMOsZpTE4stdhc+Lb3UQN731Ta0um3F/fxmeBzYygrZj6YKZ5VV4SB2goOrxhmf1e+dFgZau/RWsSuPHXvPijJhVbxr9H2ydbzHSqdP0P1R34ou7DjCFtNVHg8q5+u3btSr169dJFUlNT6ZVXXnFV3K1jpqmSoxP2z19Oq7/4SfsZ8PHeX75DRcNCabOamd/6h0UY52PXfzWCEEZ1/fd/0M6/5ujsvCYOfb9/X5ODfaqtTA7gF4RU/45+BLOq49v30LxX39d5YSWKUbcxFg3K/Nc/oGNbdup8b/wJCwujatWquVXVrl276MSJE26VdVVIiIMrdOSYICAICAKCgCCQtwh4lThAU9BemSkhzRpxq/ZFcNX8ax74kMKVP4SpPeDy1TveSZWuuZFOKy3EfKWNQGLigBnqGW/146L6lwX9HbO/o92LLTPfOFDnukepXKNuugxMn9IPbqOjO1YoP4u/sjhf60JX/nB9eRGOlTUO9kK/eX1s17n1Gara4z5NLEAwzGTO8E+8q4aVVOQlcajQ5gZqdP87ZjMcbsOkauXHFhOWIsGh1HPsak0w4NNw6uh+St66gnbN+NaqlXBYSR5kmsThwumzyjm5kJpxD9RXgiZh6cgv6Mj6rTZX7vfjGE2EYY4EsyQzsXnTnlmLaM2Xv+hDeUkcioaGUO9xmT45ZlvMbTg8T33wRWsWiAMIBBLMrY4px+6EhSvp8KoN1jL+siHEwV/ulLRTEBAEBAFBoCAi4FXiABMlmCoh/T3MYrvtCrQOg7/WTtG7FvxEO+f9ZFO0You+VKPLPdrkafaogfoYEwc4R4OYmKn1ve9RROmqtHPuD7RrYaZNPnwlqrUfSBWa91aCYoD1FPg8bJr8AR1WPhiOUn4Qh1NJCTTz6U6OLq/zGj84QtnS99G+AezzwIVDi5ejLiMt0Zf+eripimyUrg/lJXGo2W8Q1eg7SNnPX6SDKzK1Otwm/j2yZi4dWJpp7lOsehNqcNfrFFHWdnYa5k6L37lDzfBbzH/4/Lz6NYkDR1WCb0Gzx/6joxMh0tHUh16wmu7AkRkOzUiznhtOafsO2jQNDsrF61Sjwys30JJRX+hjeUkcoiqUoU7Dn9PXObR8ndVMyaZRaufUkWO0+bfM+4M+NlBO26VVVCUzwZ9j4dufKHO5I2a229uBgYHWyFfZnXT48GE6fdrWaT67cxwdF+LgCBXJEwQEAUFAEBAE8gcBrxIHhPzs+MT3uuVz3r8j27Clre9Ti6yVqqxDnpoO06igZud7KL5lXxXG9QAt+PQRXWdOiIM+Uf3RIV+V82/5pj1VNKZ22pn6XEYazXnvDi5i85sfxAEmSvaaBLMRtfs/SdWuf0g5cWclGMWqNaY2L/2sHccn3VXTehoTh7+VWdCZlEyBsOmjo6ls8542UZWsJ6kNd3wcEK61ySPvW0yn7qtnnu7WNnwjSjftqqIO3akdsXHSmi+epf0L/3Dr/NwWckQcUCds/Xt98bbWPhxQzs/LP/zGeimOhLRIRUg6oiIlmanzu89RZPkytGv6PFr3rcV+v8FdN1KVbu205mKREso5mdoCjqrEx/Drjo8DQqr2+XaUPu2fp9/0WODH+SXq1dTtK15Xhe1VJk4Hl6+lZe9/ZTbF7W3xcXAbKikoCAgCgoAgIAgUCAS8ShyASNcX/tAz+9tmjKO9yzOjwThCq9GNz+mISCeP7qNFnw+yKdLqnpEUqdaAQOSklT+9po/lhjiYlUeWrESt7h+js0ynbLMMX9+RGZVZLifbbKqUHXGo0KafMg0armf4pzxQ32Zmnmf/sSbC1AcbWZvRe9wmZQNflFaPfZoSllgcw3Gw+0dLtf+BGY7VepLa4PpctSm8VEU1422x8585tLM2OzLr8GQbjtQwt3K2UvXAgQOpXz+LOVp6ejrdc889nlTvsKwz4oDCVXt21D4CiGo07ZGXrWswXPfZWyoiUTjtmDqbNvzwp7VerKNw/TcjNOlY+/Vv1khItfr3UOF1eygnZFtzofj2LajJQxbNmSPigHUcYPqE6/95xxM2UZGsF1Ubfb4bpa8JogLCktOENqKtuVmpukWLFtqJ3Z02fPLJJzRvXs7by9cQjQMjIb+CgCAgCAgCgkD+I+B14tDghqF6fQWEV10y7kmbRdZgyhSi/CA4ulHxqk2p8a0Wp9cV379oDXMarRaDa3H3SI3G+j9G0eFNFoHDU+IA06T4pr0oYc10PUvO8JZU4VsbKtKCNG/M3XTmxHE+ZP3lMK5n0o5qHwtHkX+shT3ccJc4FA2NpB6fLNfakp3TvlTRft7VVwoMj9ZRlYoEh9HBZcqf4BOLPwEO6qhHKloRFpFb9v5Durzp1OyMOMAkCqZR8EOY/mgLp9qizu/+Q2El43XUJ6wHYa7ZgChJVXveS1smjLEu7IbwrViTA6FYzdRt9AIdFSpxzSxaNvph85DezuuoSmyqxBeGWdL14961aB2WrqHlY77Whxo/MECFOm2lBezpg/+rQplaHHxr9e+uCEJPLeibRKNCm2ZqjQuLFmvaoy/rEKioqMPrT6jF8irpOh0RBywwd/3XI/TxZeraB1UbHCUsElepU2sdVWnWs+8o8pb57GJxuUqd21Cyco5O2b1fnx6hFnyDVuTgsrVWPxgcaPrIHVShbTMdvnXyfZZ3wdH1fC1PiIOv3RFpjyAgCAgCgsC/CQGvEwesfYDQqPAtwOzpicM71DoOxym8eHm1fkK5LGZJ7R79jEJiSuuyqQnKFEQJrtEV6mozirNKoJ+rBHtOnhIHRFNCVCW042TiLjqtSEBobFkKK15B139ky0K1AJxFGOdr8K9JanA+TKYuXTxP+5ZNooNqvYncJHeJA67RUPkGxHe0+HNgZebTyYcprmZzvdo0hHxEKjqTmrngVz0VwaiyimSEdF6tcI01HqIr19PkA3nOiAPMzLp/uFSvxYByGccOar+JZLVC9frv30CWTtHxdajdfyfo+kAaknesUULsKbUSdhXlY1JZl5n2SDMr8Wj22AcqfGh3HY41dd8mdX/VqtBVGqhIRVHqvvjOAnBoeO2belLNG7rr54XJQGB4qFo34S29bgIcqJM27VDPa5Re8wHn7F+4QjmCW8zzsA9naxAQEBEkrPocHB2pSFKU3scfR8QB+aYTM8KmwpEZi8vNe83iZ4EyMKvqOXYYwfQJz2XKzr3q2Uyl8JJxFFWhrL6uuagbyAFIAjQLKaot51S9MVUqUEixGFRHKz7+TjtK6x0/+CPEwQ9ukjRREBAEBAFBoMAi4HXiAKSwoFujm17Q6zmYyF08d4Y2Th5DiWrFZk4IodpkwCsUXb4OZ+nfdBVqdeWPr9qsA1GsYn1qevswvejb7JG32ZRn52gzqhLWO2j7yFgKjiphUxY7CAELEyg4WjtLFZr0oCptbqFAZZvPydOwrnye+VtJrRxdX60cjQXUZj/X3TzkcLvugOepSvdMAoVCZ08kq5WJ/0PpCbaRfqCFaPfqb1YfApTFdY6um6frsF9/Acc5xdVsQXVve54iK9S0Eg1HK0dHKJLQ4snPFQErz6fqXxCBZDg8v3u3VeNQTUWFqtF/sCaSZmGQjg3fD6N9838zs63bWFisS5cuev+8Etj79u1rPZbTjZL1a9I1z1v8Zew1DqgTPgAIsQqhH+FOV336g74UZu3hCA0CYCYs1Lb2GxXBSwnwZopv15waK7MkDpMKp+s1436hRvfeouv+5ynln3Ao0/+Ezw0tHksN7uyvFvyrYyUeIAf2K0cXCQmmFo/fpUOv8rn8i3pXfPgtpe49oLOK1ahMrYc+oEPKchn8ot69s5eoaFA/m9k+vy3EwedvkTRQEBAEBAFBoAAjkCfEgfGC4B5RsjKFRBWnU2rG/oQKxamnnLmA8QvtQHTZGlpgTVVCPUKneiuh7oji8RQcGUfnVPShk0n71W+at6rPl3pgdhVdsY4SXksoM5R1NloGRw3A7H+4+g9BHiQjLxJCrUZXrKdmvyO0v8OJQ7uchriFeVO4+h9QNFitxr2HTioy403zr7zon32dQVERytyoIp1NTVeaBGigLtoXse5jfYdiyjQJGoPjO/ZmIRfWgrnYKKxWHY9UkZbClLYhIylZOUsn6us5qhJtjyxbigKVvwbKph84rLUQjsr6ch4TB27jsZQL1HpA5nounC+/goAgIAgIAoKAIOB9BPKUOHi/uVKjICAI/JsReH1QaWrVKMwKwe6Es/TgqwnWfdkQBAQBQUAQEAQEgbxDQIhD3mErNQsCgoAgIAgIAoKAICAICAIFBgEhDgXmVkpHBAFBQBAQBAQBQUAQEAQEgbxDQIhD3mErNQsCgoAgIAgIAoKAICAICAIFBgEhDgXmVkpHBAFBQBAQBAQBQUAQEAQEgbxDQIhD3mErNQsCgoAgIAgIAoKAICAICAIFBgEhDgXmVkpHBAFBQBAQBAQBQUAQEAQEgbxDwGvEoV+/fnTw4EFavnx53rVWahYEBAFBQBAQBAQBQUAQEAQEgauCgBCHqwK7XFQQEAQEAUFAEBAEBAFBQBDwLwSEOPjX/ZLWCgKCgCAgCAgCgoAgIAgIAlcFASEOVwV2uaggIAgIAoKAICAICAKCgCDgXwgIcfCv+yWtFQQEAUFAEBAEBAFBQBAQBK4KAkIcvAx7QNHCVKFWCYooFkrBYUVp36ajdGRPipevItUJAoKAICAICAKCgCAgCNgjUKNFOQqPDaHTJ85RSuIJOrwz2b6I7OcCASEOuQDP/tQiRQPoukeaU2BIUeuhDfP20NYlCdZ9f98oW70YhceE0MHtx+hkyhmf6k6J+GgqVjaSzmacp91rD1+VthUqRFSnXUWba587c4G2Lztgk1cQd8Jjgqm8Is1IO1YepAvnLhbEbkqfBAEbBMKig6lSg1I2eSmJJ+ngtmM2ebLj2wgUCQyQMcu3b5Hbrev0n0YUWzrCWn7/5qO0bNJW675s5A6BAkMc6l9bmcrXLE671hxyS1AvWyOOGnaqQqlHTtKiCZtyh+KVs8up67fqW4suXrhE83/ZQGlHT+qB6PJlr1Sfp5WERARRdIkwOpV2htKPZTi91rV3NNTC+dKJWyhhS5LTclfjQJMe1ahyg9J07vR5mjhmydVoAhUuXIj6P9PW5toQoP94b5FNXkHcwTvVul9t3bWpnyyjjPSzBbGb0ic3EcB4gnEFQvSZU+fcPMt7xWq3iadK9UvRvo1HaOP8vU4rrtmqPFVpVIb2bzlKG+bscVrO2YFSVWKp7U11bQ4f2nHca98Vm4p9YKdivZJUp21Fm5ZcPH+R0o9nUOLuFNqzLpEu+8NHT/WgWrOyVLFuSYoqHkaF1Nh9+dJlOn4wXT8vSQlpNn2UHe8jkFdjBO5lYHARNZFVnBp1qaob/seoRXRBPaeSco9AgSAOwWGB1HtQS43G31+s1ANYdtD0fKg5YaZozT87aeeqQ9kVd+s4PlR11P+D24/T4t+9Q0bcurAXClVvXpYaXFtFkwGQAmdJiIMzZDLzI5SKlJTqATPwbW6sq8mjEIdMfGTr34FAu1vqUclKMbTyr+20Z31ivne61jUVqK4ScJP2p9HcH9c5vT6Efgj/W5cl5Ig4BBQpTKFRwbp+CNU1W5angkwcQLTqta/kFM9TqWdoxrhVPi2k4Z616lubSleN1f0AYYBmOCjUYi0gM9ROb69XD+THGHHD020I99td2dCrHSyglRUI4tBAaQ6qq5mDo/tSad5P67O9VaUqx1Dbm+tpzcCf7y+mSxcvZXuOOwXqdaxENVuU1x9JfCz9KQlx8P7dAoHo/kAzIQ7eh1Zq9AME8kMocAUDa8Cg+YIGzFnqfn9T7ZO2fOo22rfhiLNibuVXbVJGz3D+G4jDCaVhmPnNGjVJQhRXPkrP3GOGF2n3msO06u8dbmF2NQrVbV+RarWqoC+9bPJWSlCmLFCSwEexpsoPVGZLa2buuhpN+1ddMz/GiOsfb6UJ4ezv12pt0r8K4DzqrN8TB9gl9h3SWqsZ3X0wOt/VmGJKhdOmhftos/rvrZQXxCEyLlRNXheitKRTega7eIVoOn/2Ih1TalRn6v/AkCLanCg0MliTIpyL/xfP2xIkYBd2ZaYMNrrVmlrI11pjwDx/9oKNyYmpcYANb6zyKYguGUYnjp2mo/tTtarXEZ5FldowJDxQHwJRywv/CFemStBKYTbp9MmzypTpgqMm6jyoN2FeAXOn0yczzSvguwCHdzw3AUUCKEWZuKUqEwxXKnlPiUPhgMJKZR5KUSVwjcKEDzNmSx1dAx+4mJLhFKlU7OfVTBkcwOwx5fsLnw9oP6COP7I3RZeDLwj6cuxAujbXswckJ/1lQQ11+YqpEu4Z1OHB6tnDTCgmFxz5XqC/wCdaYQptEUwY046eyoI9yly8AHV3IT2bnqrMEY8rDIFvyYoxdEoJqYm7Mh3xcJ/Co0P07GuGMgOMLhVBxcpE0Ink0/oj5qgtfC+gEY1R5fE+w3wQz5sjVbs5RhQNCiCMEXiGkw+foBT131nCs47+RqpnLiPtrG4PnhX75En9/J6hjqY9q2s74y2L99uYNTp7B9FmtB8J76iz8U0XcONPpLr33RQpwGzy+HcXOD2j35PXEN6Vmd+uscEL7yPGNmCE+5R8CO/Yaaf14ICnxAHjYrR6pqLUM3pBjc947vDfUQpSvnMxpcPVsxain2XcX/v7lR/vPGsc8Ez+/eVKm6Z2u68p4Xk5o8bOyR8ttTmG8QbvI8ZhvIvopytzRjxLICR4JvC9wzujv1fqXcX59sndMQsYscywdtYu2rHioH1VDvd9bYxwtz14jvEtwriFbwTes5IVo3Uf8X2BebKz5GtjhLN2usoX4uAKnZwd83viUKu1UkcrZ9RU9ZH/56tV2aIQqz7ane5spD8mE8cs1kJ4tie5WaBh5ypa+IZa3hsaBwwMNz7bTl99p3I2raoEezNhRgczO2Zq2aeWtusz87ANv4uF4zfS0b2p1kMV6pSgFr1rWvcdbdir+Zk4wGYYKnkMwpxATkDeHAlDiHJQv2NlXTSvfBBcEYcGnSorrVQ52rn6EK2ZsZObnOW3vtIa1VBaI3PGDGYIbW6sowVL8wT0d+FvG51+/DwhDtCC4d4VDSpiXkJjOfOb1fqjyQfiykUpjVldG+xxDD4nK/7aZiWILMhDcILNJyc8n7D95oTnwow6kdP+8vVQ79UmDhCuWt9QO8s9AxbLp2wjmCJwwocUeIIUmAnEDb5KLNzgWYeQaZ/2bkikivUy8dyuBJF1SiBBgqkOZtVQB4QpjD+c8E7ChAYCqZnwocezDNtrM+G9gj8WyI+ZbnrOMkZgzIGwbibzOTbzYdsNHy/7tGamMt1caWu66Un9zXvXoPg6tu22v4azgBHtB9QnBDhAwrPsymTSvk5H+6a/EUwFgV/zXjU0sTp2IE07S+K9uPGKTxKXQV1oxzX962R5x/ZtOkKrpu3Q46mja3pCHGqo8bN+h0pZqoGAPP3zFTb5XK9NptpZN3s3bV+eGXiB38G8fOddEQc+hnb+9s583VwQhg63NciCJQ4eUJNPy6dstY5Z+gT1ByZfza6rwbv6FwEXMLmFZG+v7smYVblhaWrSvZqlnivPhd5x8cfXxgh324MuYZII3+3TJ85qvBlD7i40LvtV9Ef75ItjhH0b3dln4gBrFPux053zpUxWBPyaOBQOKER9BrfWA5K98JO1q5YcVo1BEPe2KpJnW7YuVbaycz13srNvs0kccAyzLgdUNKPiahambPU4XXzuj+vVrHSmIIE2YKYSglH6sVNqdieQylYrpmd6cAJsTyHwIkGwZdVyifgY9UGN0jM5EIQ4weHtwNbM6CBMHHAcwhCE0JLqI4uZIaT1c3bTNgcRhPKDOIBA4gOL2ah/vl6t28N/YMsKf4PsCCb3j52/MSPY+7GWWgOAgRfEAx9lOFMCZ2Dw16fLs8xM47ruEofSyr66zRXnSrTvwNYkuqi0MsUVQSij7t2c/63T9x51YuYc7UHCjB8cP4PUzBxM9ZBM21wWIpC/e91hKlUplkIjg7CriQIEYdxzzJAvUAQIKTf9hZCM4ABI0z9fmesZY11RDv5gprLXoy00WQJJ3a2cNXHvMKtbSQn4eD9NZ1n2d4J2DcIJTBaqqecI0dEg7E/5eKnOM4mDDrGsuBi0DEiYiYYzJQgZCMHvIxfqfCYOekf9wfuC+wbBCEQFz9KfoxfbkG0mwDgH41SGakOF2iW05gR5U9XzBu0FJxbssY8xApo/EBm+13gXzFls9sVCeTw/xxVxwcw6AgsgLZ2kAh9szgx84En96C80KkgQ0CDgJO5O1toMnan+HFYOtI40Id4mDrhen8Gt9H3kcY/tnYE7tBCYwe75cHONP/shYSzrOLCBbi7wTNiWRMFqHK3evJweBzA+rpjq2BSVBfzsTJV4kgkXgU9cUkKqnjTAWA0NBwvdOG6+x6gXzxmEwXIqGAESBO99Gy2Cn1k2r955JgeONA4YYzHWMr5oH5sGgyAf2Zeix4USSitWqnKsxtMcf1CeBV1sQ0N6WI1PJdX3if0RkG8SB0/HLJ5Ewjth/51A3Y6Sr40R7rYHfTHxxP5e9c5Do1dZWRlgTMN49ef7i5R1ghr4riRfHSO4fZ78siniliX7aeO8vZ6cKmWdIODXxKFKo9LUuFs1Lby5smHlvrMgh32oUSEUeCuVUKq/9rfW19Ut+HWDji6R27pN4gCTkjk/rLVW2eL6mlqYsM/HjCZMGi6pD6OZejzYTKu4nc24e+rjgA/DH2qwYfMnzHRCaMLHYdZ3yu7VLuUHcbC7pM0u1N19n7DMFo8fvsChoI8TMPuIWcjJH6rnQ0WCwfOF5wwmARAgeXA1Seuq6Urz4yD8Kz9vmOlkocSmUWoHs6K9FBGA+t4U+rlcsXKR2owEgi9SE9Weyqo9EFRhJsDtMckHz/azEMH3hD/gLNjigwuVvWlWkJv+cpuv9i9r3UAgZygtpKkBgyAbGhWkzYvQTsYI24wbtk3ywYKZSRzGD59P0AxAEEXCvYAgdd0jLbTAzs+PSRw2LdhLmxft1+Xx/ODjj/ZsVPlbruTjuhzogckrTsAz2eXuxpps2D8nLNgjGgw0fpxAnlD/5kX7aNOCfTob5oJoI+qzf255hhEECr5fnDypn8/BL0/SuOscnRfEgScCMLGE+wPMOU1XgTSAB65rTijwWInZ8CV/bObiGvuu9zbR+9M+W+HQbMkd4gBtGK6BtEL5Vey186vAZI4ZsY6FRHtNNpMP8/3l5zkv33lHxAHPE8YgaGmQQLgw4YGEsQ2aVHszL0yKcHlT2wPtBCY0oAXFfePEpAT7JnHwdMzCNXFt+/r5Ova/jCnyfWGM8KQ9aLNJHEzzbNwXzMYjQbaALIHky2OEbqCHf/j5wHsyS42P5qSLh1VJ8SsI+C1xgFDde5DF6cVdpzYWKOw/vDl9GjBbhQ8J7NExcGJg3LHqYBZVf07rN4kDTBQw28QJs1IQJJDM2Sk+jl8IOliEDglmOlUal3Ea8clT4oAZV5hxcMKMKMgMBNwpH2d1RITqn2OdY1EWaCbyO7FQxzOw7JPCpiUs6JumVGz/vE1FXNm52mIWph49nWq3qaBndrGmxeLfMwUM7hfX54o4xKhY051VzGkkhJDFtV0l7oMjMzVoIqCRYGGEPzBs9oEZbjyvEKj/GrtcXwZCodm+3PTXVbvz8xiTP3e0kDy77+gestkNjxdMHMzng2ewWfCBGSTIO0xNYHJiEoeJSrOAyC2cYOpXr0MlG7LN98xeeMc5bFoIEjvpgyVcDbFgv272LmW2kmmv3axXDW3uZM6Qs2AL4j/9ixVqgkH7tuq60D8WjPF8sB25J/VbG6U2PCUOaBuEHCSML/YCtT7g4R++vzDBwiwrTDMh1EKrsHKa0hqo+RVMevA95ncWl8H4hnvI7zvy2t1aT0/A2JMuHENifF1pHFjwdmSSZKkl86854THts+XqG5OpaTK1j1PURBh8svj5yct3ntuPZwh+FvDBgzkSvoGceIzlff7FNy04PEh9MwupSZPC2gcFx8y+8fs7Wwmz8B/iBE17hyuaIJM4eDpm4buJ76c9EePr2P/yM+QrY4Qn7UFfTOLAmjfuI38zTC0jP8O+OEZwuz35xbiGcTa+TglNYDFxBlkNWEjKGQJ+SxwwKwMigI/4pA9gSmA7w24PB1g0ZnaR+KNuX8bTfczmwfYdDl8gD3jRtq04kKOQfo6ujUGWfRxgDmM6MWHGsv/Qtvo0nt3EDtpUr31FrY0wB3Ku395ngfM9JQ72ttAslDoSePgaV/u32XXVtaDPbUfEIwgKMDfCTFJFpTFppoQInmlkQTG7djsTAFgIMQVz+7ri65ZQdtc19UCGWczskvWjqmZOMMNsJhbUeIaZhQj+QMKBt8eDzfXMKzs1oj4kmG3ktr9mW67Wtjljz8K8q7bwLLepDeDy/E7w7C3jY5Ljvk+01h8j1mJxfexoy8TB0XvBWiJzxpg1c/baA7SJ3zFsm5MFLNjbhxvk9vPzjPMad62qJxCw7SqZpMuT+s06+Xl0V+NgnuutbdaiwAQNGiJoD2HrjPsEk43T6t2HnxxM1+DEbc6Cu2qDM1NXFrpcEQfWFu9SZo+rXfhb4fpw7O9yj0XLYd5zbhsTV54xzo93nokDt4F/8f3Dc4sQ59DgmAmkF6FxYd7pKPH7Agfw65V5GZL9+2tzbJQlJj+/k47qNPPMMZqfS0dEwDyHt/md9pUxwpP2oA9MHFjTzP3CL2NhEuGCNkZAswLfRfheQSbCeAvzTH8LmW/et6u97bfEgdXJ7kZFaKQ+mFXVjDvsbRf8mqn+9MYNgLlJBeXICKETabFSb3tj1VCTONjPVuI6/EE3ZxF4NgXHoZqHPSwEV8wIYdbfkUCCsixk8EwV8hwlVv2bZhQoh0ga8K9wJCA5qudq5MUru/LmyuEOfVw9Y4f2j8HHDoMJyBdC9MHcarVyOt+lnM5Z8Edb8ZGH34GjBEJn71CKcny+K+LAH2Fn98W8Hmb2bnzWIug7Ir+sUWOHWBYiYOsMh0625zbNMkziwO3FNXPSX7OtV2sbzzmipiE5ErTs24UZdgjkjtZzYQdN1tCwkMJEE3UxceBrYUYafg8w1wPhYOJgnsNtYFt684Pe4FrlxK9s6R2ZUWBSAOZHSKZQxeMAgj2YEcNYaDYFJDb3wIzboZ2ZGkxuE//uXpuoo3ph35P6+Xz8slByNYkD4w9BHkIrzITgf4L7Bs0NZsyhLeUxmwV/3BMsJuosIcgEbO/tE5/vijiwKY5pNmJfD+9z+52NIezDwe3Pj3eexyy8F6x1xrhvH+GJ+4DvDoRdJJQ7lpBO6clqkVE11wffLIy/HBHRHIP4neJ6zMky1jiY5d0ds1gw5gkBrt/Zr6+NEZ60B31i4mBOeHBfeQ0TU4Nd0MYIJuqYZF6kLAOgcZSUOwT8kjjgw4wPNAZ3CNT4dZVgy91H2fJhgOKZDVflc3qMnXDgHOwNUxyTONjb1CLM4w1PWeyrJykTl7PqpWAtDNpvaiGwz4O9MwH130Ac4CwKUx/MOKxTplIwW+BINDBbgOkIBAvYPiOiDmYo+w+1YGyabgBPdxJ/1Jx99FEH3zNHg7qja2TOMCqHaRUZxkw8E8Wzp54KEbntr9mWq7WN0KUImIBkL0g7ahOiKcFJc7Oabd6kZp3NxFFv2F47N8TB0TPAs9vmvWdhHwLtLBUe1Exsngiya4YX9USwZ7t4k0yY13C07Un95vm+QBz4ncf7DM0wr/XDwhEcZIErv/O8CnROJ0CYODgifowN+4OxJpDzHf3yhAyO2QvSyGMNJBPV/Hjn+VviyDkabbJPbF6JyRhMypiJ28/Ewfyu2X/DbIjzFY1DTsYsEHMQdMgNIOB4n1wlXxsjPGkP+uUpcShoYwT7CHkraI2rZ+XfcswviUMnZRMeq2zDoVo2o6M4u2l12lWk2kod7ehj7OycnORztAZ3Pgju1G8SB3bQ5PNMe0/+oLDjrKOVq1modEYc+IPn7DhfN6caB8zq1Wkbr6sxZ6q43vz65Rli2FBjxpdnH1OUQzlmxvAx4Yg4aBOXdxayzlW7oSJl5zNHGiOca5qf2JujOaqbNW3rVdSubSo6ECc8K32UozOcEJdNUuH1VFQtT4UI1JWb/nJb3P3FTBD6jwQ/k70q4pA3EpMr9vVwVSdrIlmgNMuycAmTlhUqhGtuiAPqZTt0vgYvQmW+c0wm8Bz+qYQaM8gBv6OmaRPq8kSwh59R0x7VbRziuT3Ofj2p36yD8XNk4mGW420ILDDfQtqnwkN6a40dbj/qZUd0Fh6RhzRBmeoBa4T1vE5FWUKCrxZInSeJfb1YS+XoXL42Zugnf7hER+xyVA55RYqqEMBPWYI62PsN8MQEysHnBfXlxzvvCXHgdwZtNP0YsG+aYTFxQD6/v/bfPNYYowxrHLDt6ZjFZBLnLvlzs03UQOTZJ18bIzxpD/riKXHw5THC/t64s8/hWOcqZ31YYLhKmLjhUOWYMMrOlNBVXQX5mN8RB3YmxSwBBkvT2dDRjYLvAQQq/EKtqsMoOirohTx2ts0L4gAbTaxTAYECQmL7AVkjT/CaFqbzJrrFoUixbQop2OfEZYCrq/Utckoc2HYb17NvH7chP35ZmMG12PabnUiRZy9AMunERxkfblOQgIlaOeVrg1lLzL45SjyjZh9v3SzLmipEtUBELsxOc4JtcPKhdKtTJAubwHCaCnmKXyQ4vkMFj/uHmTpooHIiROS2v9xud355Jghl3Z0EcKdenjHDrDHWwDAdSmHKBKdSzAgjmQTc1EaahA5rdcAshYUg0+yIhRYm785MlXAtc1yAvXaPh5ppomeaSeEavDiVGdoYWtPuyhQQbYe9vrlIIwvG9hoW1l6Y2gUzdCVrptA2TtC4IUKcuT6MJ/VzPfhtpIgA1p7B+4EVhrPzQ+PJDZybnckkyribeMYb5Tm0sWnSZj8esYM7vhUISoExlxM0WhAscA84ohkfwy9rhbBtL+gjD8mM2LVVBV3YMGeP5YD6izEFmi68D5x4wVK0B+MDu/NhnRKE5YY2BRoTpPx45z0hDmgTj4GmyRoIERydcR+QTOLA7y8IMqKiYezFQmQw0YHWAckkDjkZs9h8BWMtrs0hylE3zMOg6eGF4XxtjPCkPeiPp8TBl8cI9MfTxMTBfMac1cERmHA8ryeanbXBH/L9jjiwTZ47jmW4AfzxhE2vO86nublpHPvYWx89U+OAdkFoPax8NOLKRumBDXkgE+yIxiulIh8fQ9gw4yMFUwxOzogDoncgShUIFhJm4FFHkjKH4VCRyPd34sDPA/rCM/M8y4s8e2HKDJsJofyQEjhPp5/RJk3FlYYCeLF9Mc63T/WVSryGUo0j4QOIewjHLFNlz2QYZSDsQkiFsBKnIszAvIKFHRw37xPKgvyEqo8pPnZIWAwKJAUpJ0JEbvurL+zmn7wiDhC+MWuMdRhwzxLVugEZ6p6BDEDLZE9SWFBEWeCJhBj5MG2EQMHRN3JLHFAv7KrT1PoqiNeP9uEeIrgDVlPnBM1c7Wss2jkQWfjQcHmTGHJ5TwV7CL68UByETrzjAcosD0IvMDKJEa7haf3cLvbhwD7aDWKMfiIkNHwA7FNeEQc27cD1JoxYqNsAfyGYIeIe24e0xjgKIRXHMAYmKoH9/NmLFKWESfQJCXHvkecosQ06jmHC5+L5i7Rz1SFNHLm8OQ6hjF7HIbCIXtEXzwUTUZQ3BUUua34DzPDf+fHOe0ocmOCgL5aVik8rzVIxHaYVeUimUAdNLcYGvG94bvB9gyCPxN8nkzjkZMwCAel0Z0MrEQG5PaVWTweRgUaCo2zpi6o/vjZGuNsetN9T4oBzfHWMQNs8TRx1i835XJ3PVhsoI8TBOVJ+RRzM+NfuqJHxcbj+8Zb6A81ConMocn+Eo/JAOITZiWlmkJPaTeKASECNOle1VgPBctH4TXqBHGum2sAMNUwReIDFMQzWWOgJwgLba5vn8DYE2LpKaIEPCT6aSPZRmDre3pDi1NoC9ipeJi0QhMwY8Fw3q+exDwHaDCfJZfLjF4uAdb0SpYQ//qZdrX0IQLQJH7BGXaroiEz2bQSeK9U6DhDAHCXgiNVhof7lVaHxkcJspJlAELB4Gpvu8DF8NBepWOYQ5jjByRMEGueYyd7ZkgkRO0ezit68PswCMMtp2sznpr9me1xtA5f+6tr8nM37Wa3qaaxq7upcd45h1gwfAfiQmAnPHszOTM0jZj+hdeIFtbg8tBIIU8gaICYOphkKO6eyoMd2/ay9YOdWCHwpiRZHXK4f9cxVEX4cxRXnUK1cFr+Y/ID2A3WZiQV7LCR33gj3WrVpGT1msGbNPAdmeXCmh5BmJgjKmE3n9SZwLCf1c53AHySIBT/kO1s5mrFDGXvBDXk5TWxCas7Moy6eyef3w6wf7xjwgUmsmSDIHlSkZ5l6LhxpHFAWmDbrWUNrbngcdmRfDS0v/Kx4XODrODI1xZgMARzPICd8AzAOs/YM+fnxzvOzaZJqbpOjX2gLWt9QR6/NwMfRdmDYqEtVLbzbC3UQ7IE/FhPEGIF7h8g/HI4V4xXuBaecjFk4ByuJl6lazDoOoT6871gc1jSd9LUxwt32oD8IDw2iYT8hgGM8EWtGVUI+ki+OEZaWuf/XlBnZnM/V2UzIUMZbvqquruevx/yKOLB60d0ZfbaJhLCQnS2pN26g6byFgREfesxuor05SSZxwEwZwlDgQ4aZLqwKzSpr+7rxscKHGoMLNAcX1IyXpNwjgA9YhDLlCFEzUlCjn0zFbGLmTHHur2AhKSAPmEWDgIjrOEuYmYSdMJ5vrPBtfkidneNJfl72N06tit3xdsvqvCaR8aR97pQFKQLBgokPBHW8k84SCGR0CYvpRJoibN54b0zigEhYIDQxamYf7TDJoKM2YeID7zEEUQhpuM/eTniGooqHqmeHtGbDNMXz9rX8sT48E5FxYVRUCZm4X3iGsjO58rSfuL945/G8QUB2pslAvfDBwBiEsQdt8XbKy3ceExfhCH+tNGim+aCrPuAbCAdofE85KpyzySnUk5P24xoRsaGawGSoSb+Tatx1do99bYzIi/bY3w9/HCNgJllSWVrADwgJ4212Fif4VvS/Ep4c39KJyhTenIixx+XfvO83xAGDR09lEwyheM4P67SglN2NwwqRmB2HI+medd5xvMzumljxslarCjr0H8yEMLsGNXVOkj1xMM0ZclKfnCMI+AoCddtV1PHz0R68z/YRonylnblthz1xyG19cr4g8G9AABofe2LEmiN7PzR/x0PGCO/fQfgyxpWPpDOnzutvCwItZDdRY5pWOoqy5/1W+m+NfkMc/BfinLdciEPOsZMzfRsBNhNx5nPj2613v3UiFLiPlZQUBBgBOFTDt0evNaIskuLVOklsVufM6ZzP9bdfGSN8445x4BFot2DWxCaqvtE632qFEAffuh82rRHiYAOH7BQgBIopTWCgCh0LH46CbB4jQkEBemilK/mGABY65AhKfFEIcvA5Mn06+Jg//8oY4Rt3D2ZN8ImAuRpMVSU5R0CIg3NsfOIInI6RYMMuSRAQBPwLAdggwzb7gvKFceQE7V+9kdYKAvmHAIhDuDJZClD+JSfVStMW/5L8u35+XUnGiPxCWq7jLQSEOHgLSalHEBAEBAFBQBAQBAQBQUAQKMAICHEowDdXuiYICAKCgCAgCAgCgoAgIAh4CwEhDt5CUuoRBAQBQUAQEAQEAUFAEBAECjACQhwK8M2VrgkCgoAgIAgIAoKAICAICALeQkCIg7eQlHoEAUFAEBAEBAFBQBAQBASBAoyAEIcCfHOla4KAICAICAKCgCAgCAgCgoC3EBDi4C0kpR5BQBAQBAQBQUAQEAQEAUGgACMgxKEA31zpmiAgCAgCgoAgIAgIAoKAIOAtBPyeOEQHx1Dbiu2peGhxigiKoP+t+46OZRzzFj5SjyAgCAgCgoAgIAgIAj6DQJ9a/ah0RBk6nnGcdifvpNWHVtFl9U+SIJAfCPg1cagYXYlG9Rhjg9PQ6U/Q7pRdNnn+vNN/yBtUpGggTRjzCl04d9anutKkanmqU6EUpWWcpolLN/pU29xtTKuaFalEdDgt3bqPjqSecPe0PClXLi6arq1fTdf928K1dPrc+Ty5jlQqCBQkBMq1akxhJePowJLVdOpI3kwaFQkJoovqfbx88ZJPQVfn1t5UqFAh2vTrFJdtK1wkgAoFBNDFs+d8qv3SmJwhMLzbKKoaa/lWoIb5e+fSmCXv5awyOUsQ8BABvyYOjzQfRJ2qdKGEtP00cuFwSspIorMXzngIwdUpXqNZOyperiJtW7GAkg7scdqIETN36GPDBrSltKREp+WuxoGn+nWkJlXL0dlzF+juMT9djSbk+pqj7++nicPn05fQ3A07c11fbiroUK8qPdC9la7iiS//pCMpV5fI5KYvcm7uEShWvRKFFi9Gx7ftooxjKbmv0MMaavbrRpW7tNFn7Zw+j7ZPmmmtoVDhwtRl1ItUJChQ5814ahhdOH11Jja6jXmVwkoUo9Wf/0R75yyxtjG3GxFlSlKTh26jyPJlqEhwkK4OgvfB5etozZc/ayKR22vk9vwbfvpAVzHpnqFZ8Eebmzw8kOJqVqWgyHBdDsTn2NZdtGbcL3Ty8NHcXl7OzwaB0k3rqXckiA6pZ+biee9NBAUUCqCwwHC6Jr4N3dfkQd2K23672W/kn2xgk8M+joBfE4d3uo6kasWq0+crPqW/d07zcahtm/f893MotnQ5mvfrlzTl8+G2B409IQ4GGHmwKcQhD0CVKr2CQKd3nqWo+LK08ceJtH3yLK/U6UklzR67k8pf01Sfcjb9BE198EXr6WWaN6CWT9xr3Z9y//N07uQp635+buQFcSjbvCE1f/wuNUtfWHcFhKFwkSLW/emDXlNkLjk/u+nwWs6IQ3jpEtTxjSepaFioPu/ShYt0+fIlCihaVO+v/+532jltrsM6JdN7CPT7YbR+ZmY88QadTEzyXsVGTT/fPJ6KBgTS4KmP0oH0BOOIbAoCeYOAXxOHkd1HU6WYyjRq0bu0eP/CvEEoj2oV4pBHwHpYbXRYCIUEFqXjJ07ROfVxvZpJNA5XE33fu7YvEQeg88/Tb9KJg0c0UG1eeJRK1KthBe1qEofg6EgqEhJMp4+neEULUDQ0hHp9+Y42AQI5mPvye3QmNV33tXid6tT0kTtU3kg6nZxm7f/V2nBGHLp/8JrSVsUSCMOCYR8qrdVu3UTkof0JC1fSnlmLrlaz/zXXzQ/i8FW/7ykqOIpemPEMbTu+9V+DrXT06iFQQIjDcEUcvDMIVm3YigoVLkQ7Vi+mCjUbUIMO11FGeiqtnz/NqUlRVPFSVL9NN4orV4kunD9HezeupB1rltCZU7amJsXV8ZiSZfXdvvXZERQRG0ebFs2kxZP+Z30CjuzfaWOSZGocLl24QI079VGaivK0fdVC2rQ403TAWsGVjZLxVSk8Jk7vpR09TMcO7bMvkuv97EyVYiNCKTY8lI6mnaRGlctSWHAgLdqyhzLOnqfm1StQXGQYLd2mfAscmORAoK9VviSViY2kRHV8S8IRSj6ZYdNmnI9yyScyshxDQRxDmbSMM5Sk2sApMjSY8N9MaOO58xfMLJvtwsqOuGLJWKpetjgFFS1C2w8mqf9H6eIlxw5pgcqmuFGVclS2WBQVUjUlpZ+itbsPUrpqi7Pkc8RB9TlazXjHVImnkGIxdCrxKB1auYHOK58W+wTTldiq8RRbrSIpiYuSd+yl5J17be2uVX5M5QoWO2u1XbZ5fV3uyPqtFFmuNJVpVp9OHklStuprSE2P6kvA3CKyXCk6f/qMMq1IomI1KlPxOtUo/UAiHVXnOWoLTnSrPapcgCKNURXK0IUz51Sdh7XJS+mm9fW1j6zdTCcOWQRlnWH3B3b1cTWraHOi1D0JlLR5hzIXyXp/0WeMKcm79lOgeiZLN66rhbqkzTvp2JadNrWGxsUQBGGkZoPu0u3ZO3uxjQnOqaPJBA2AffL2O88aBwjNaNPufxbS2q9+pcLKVr7Pt6Po3KlTygQmQjfDEXHAOVRqn7oAAEAASURBVHG1qhJMfjDbemzLjizCdmhcrKo7QuWnZjmGilEHMDmbfpJOHT1u7TJMb/janHkq6bhLG37c69hqlahY9YrquVFjgsI/PeEQn279bXTfLVSp0zXatGTKfc+5RUYwk1+ifk3V1xIUoExTUvcmUPL2vQ7vE18Iz3wRNSam7T+kr8HvwIUzZ+ngMuXjpDAxU0hsNJVsUIuCoiIocc0mStt3kBwRh5INa9M1zz6kT53z0ihK2eXe2I93De9XTOXyqt2nNNnAO2EmELTIsiX1vYosX1q/z4dWrNfvDogkzj+6YZuVqOBcvofoD3AvWb8WRVYorZ6HXXRcmU1duuh4wsZX3mFPxwi+r+h7+9ef1AR0+QffUIZ6Pjml7VP33EumS0IcGFX5zS8E/Jo4fHDdJ1Q2spzSOHiHOBQuHEDDZ1gY+641S6lKo5Y292HRH9/Rnx+/YZP3xGeTqUyVmjZ52IFaeML7r9Cyv36xHhvyyZ9Utnod676jjTWzJtOPbz9pPcTEASZN7W++z5qPjb0bV9HHQ261yeOdF36YSzGlLCTl0K6t9P6DvfmQ136zIw5P9eugfCDKKywu68ETFz5z9gIdVyYNEKiRIHg/qez5TcG+f+v61P+aBvq4+WfSso3083wlVF5J93drRR3rV6WDx9No6FeTONv6O+yOnlS5VDFasnUvfTh5gTX/8evbUcsa8dZ9bLjycSgdE0kv3tpFkyDzJBCZN36ekYX41I0vTc/0v5aKXDFzMM9xdR1fIg6w677muYcpJNZyn7gPuJfrvhlPu2dk4gn78navDslSFgLn/P+OsaroMZPbe9xwrsr6CwEdwg6nhMWraMWH3+rdsi0bUYvBd9P5Uxl0VmmFwksV52KalCx8+xNK2rTdmocNd9uDsiWVsHfN849oAnJk3RaCo62Z0Nddf883s7S9e8sn77OZcUcBzO4ufe9LLdSZJ7BwB5Ojurf1MQ/RYUXEloz6wprX5oVHVL1ZxxNrAbUBExOYmtgnb7/zTBwOLl+ryE49JZSfpclKkK7Qphk1ffQO2vnXHKras6Nuhj1xqNW/B9W6sYd9E2nbxH9o08+TrfmNHxhAFTu20kRw5tC3rPm80fHNp7VwemDxalr+4TecTc3VM1FOPRtmcuXjAFvzFoPvUeZGAeYpSsjdqvD/0oZw9PlulDbp2b9gBa385Hub8o52avXvTjVVf+GkbJ9gYob77ihd/9UIpSkJomXvf0UN773Z6ofAZU3zlmq9rqV6A/vyIf0LgR1kG8n0cWj/2hAtwEMjMu3Rl/Xx7P7g/Wv11P1Z8AEZXjLic0WsLf4ruFe4Z+aYjroT1TtcyniHV3z8ndZq4BieFTwzKbv3K3+R0lZzKRzDGDHnxRFZSKMvvcOejhF8X9E/Z2n+6x9kmTRwVja7fCYOr856kTYe3ZBdcTkuCOQaAb8lDsFFgul/N/2qAXh9zqu0LjFToMwpKiZxQB1pSUeU8/J8qli3MZWoUEVX+8u7z9LKGZkf7df/WEnB4RGUsHUDHdm7g8Kji6nyTSgkIlKX/+LZu7V2ADutet9GVRtayEitFh2oaHAIHT+UQAd3ZEYkWjN7Mm1c9I8+F3+YOGAb7UnYto6qN21LgepcpHEv3E9bl8/V2+YfbwsRZt28fV+3ltS2dmU9o//4Z5mY8HEmDiAHy7fvU1qGeApQM69Iq3YmKI1CKQoNKkp/Lt1Avy5Yq/NN4Xnn4WO0eX+imuUvQTXLldDHv5u9gqavspA7RCF6924LIXrgo1/ppOGcGaxmF78abCFVr/wwjVAXJ2g7GittABKiKhVVwoQzgT5cfdg/feQm3W5oSuBAfenSJepQV2l0QoPolJqpfujjX200D2MfvUlrNEAsVm5PoNRTp7W2AiTq14VraPKyTdwUm98Wisw80vManffUuIl0TM36XY2Emc3uH/1XC0Kw7U5Q0WpgBhJdqTyValSH9ikH1NVf/GxtWq8v3qbA8DA9g7Z//nK6rO53fLvmauY1UDtsTr7vWZV3iUzigNlSdQE924+KMKOcsnMvlVKz8XDg/OOOJ7TWgYkDXwwCCs6t0La5JioQYDArbGoe3G0P6mShgOsHeTinSAps3CFkoi2T7h5qMzvY9f2XNYHBtdFfmLOUVTb/IFtIpsCHfSYO2IYGA1oGCL1sfz7vtdHWGVr0F1oMpAptm2nMUvcesB5HPhwtIdDZJ2+/80wcDixdozUz0JTMem44Nbz7Ji2Y/j3kdeo2+hXdDJM4sHCJA8k792lih5lo7pdpX4/Z2c4jns9SBzIgVEMIQ5r78ihdl95Rf3B/SjWpq3fLtWqkhVFnxAECbesrM/DA/6DqD2bB49u31PbnIK6Lho/VdUFzAOKAtGTkF3R4VfaCWLNB/6HyrZso7dkeNbu/X8+g4z2BpgVp6x8zaLOKemSfWMDEO4Z3BZqHEwcTtQYL2jtgjWcdWgaQeCQI39C0lVZ95+cN+SZx6PnJGxQcE0V75y6l1Z/9iMMuE7Q+3T98TZc5k5JGCYqkBavJEvQJCRqEhW99rLfNewtscE/5OUbbAgIDtYYQGrjZL1juHRMHVIB3Zp9qFyJUVby2lb5veH/gM2ImX3qHPR0javTtqp8v9KdKt3a6W4j4hTGO0/ZJ/2QhS3zM01+eQJ2w6Vf6cf0Pnp4u5QUBjxHwS+JQuFBhuqXeALqxzi26w3dNGEgnzp3wuPP2J5jEIf3YUUIkI2gOkIZ8OpHKVqtNyH/jVotwh/x6bbrSluXzsoRKHTZpLQWFhtGutcto7NO3o6hN8tTHIf14Er1xS2trHW9NWa+Jx8aFM+jb1x615vOGt4UIrteTXyYOM9dup6/+WUaP9WpLrWtVpL3K1OKFb6fq0KMgHxv2Hqa3f5upq/780Zu1QA6znncnzLZeblDvtlrIP6OE93s/+NkasfqTR27UJkkgHiAgnLo3qUl3XttMC/b3f/gLZ2f5zc45+om+7alZtQpaU/LgJ7/S+St+ECAb4x6/VWsVflmwxhqOFuFpX7yli77OQx//ZmOahHOClIPlySuzd1ka4yMZ7V55XJuYwNn178Gv2wjlmAnErD/Mi5BMQcIUmGFe0k3ZWWMWlgVFkzj8MXAIFVYmX32+GanrmfPiSC0U9Va25RBEpj36ijbVMIkDZv6hAUCCgNdz7DAtWJv5nrQH9ZhCAbQoa7/+Ddn6w9/z02F6e9E7nxIIBVJ8h5bU5MHb9PbMZ96xMXW59u1nKLpiOTq+fQ/Ne/V9XQZ/mDjAXAcYcYL2BZjA1nzNl1mfUU99HLz9zpvEAcIehNeERSupnBIoz6Sk69ls7ptJHFjoA8lbfEUgR5/hbAyNDqIvTbr3Gas5GnCGIA/hGkI2p6o9OlD9O2/Q2iZoOpwll87R6vm7buybejYfdv4gaZxggtdx2FN6l+8lhPHO71quxYI7l3f2C0INYm0Khijb4ol7NMGxdyznepg4YN+epOAdO62EeJCKziNe0MK4/XPVafhzVuJtEoe+37+vSe+WCdNoy/hpfDmnv9A0QCOD9k9/7FUrSYZjPJ4BJH63+f3iZxn3E/dVk/3bh+gJBNx/fY9VpCckkzgsUhpCHjtArBCZC2nBsI+smkO+BvL5uth2NKYgP6/fYU/rR5s45YePwwPNHqZuVXtQyukUev6foZR0SqJlMf7ymzcI+BVx6FDpWrq/6UMEbQPSjuPb1YJv39OGI+u8go5JHKaMfYfmjR9nrRcagnve/ELvD+1czZpvboRFxWj/g0LKqr3XA89RpfpN6ej+3TTinm5mMb3tKXFYMW08/TrKMjOHCh7/aAKVr1mfEraspw8G9c9S/w1K4IOPBhL8If760jL7k6VgHmYwcfhx7iqasmIz3dK2EfVpWZdW7NhP7/85j+pXLEPP3dSJdiltwMtKKxCubGw/H3SzbtEzX0+mA8cybXzhq/DBgzfoY4M//8Nq2sR1Hk09SUO++MPamxH3XK/NoWas3kbfzFpuzbffyI44fPfkQE0O5m/cZSUHbJJw+7VNqGGlstrf4bUfp+uqi0eF05gH+ultmDHBN8PfUr8fx2iB3zQ3cNaHVk8roaNJvSzCMsqz2Q1MiSAYMHGAMDTxrqd1lfxhnXzvs5qg8Gw+C20mcZj64As2wlm92/tRtes6alMoFsg9aQ8aYAoF9vbgLNit/eo3Zd+/QLcXgiYETtjbg1Ag8fNQqnEdbU4C2+WJd1oEUhxn4dreTAeCOGaTzRlvlOfkKXHw9jtvEgfYaPf5dqTVzIT7wn1j4hCofJp6ffGO7sLMoW9r23fujzmzPf1xFZUoKVkfwloENfp00Zj+Pfi/XNwqMJvE0HrQ2HBFHBCVCjgiLRvztZ7B5/uFvHavDtakYtMvU2jbnzP0s4xnCAlRpBz5kuiDTv7AHh79hH0+/Dsa3nOTNmH7Exo0u8TPlzmjb1dE7/L7aArdOGBGtjKJA98TkFF3HKCZrNsTN1yD27j++z+0aRoL9dB4LXjjQ/0u4J3AJAOeASRcH2Z73GcmDiAmeIfNBG0TtE4mefa1d9jTMcLsH49vJgEyj3tjO6RICA1scCe1r9SRQouG0vmL5+jQycP05F+DvFG91CEIZEHAr4hD07LNaUD9gYSF35CgZfhi5VhatM/yUc/SOw8zTOIw5uF+dMAwISoaFEJvTV2vaxx+Z2erszEcEuHoXLZaHasAYV42VTkmv3mbRV1p5ntKHD5VAuzu9ZkC8M1PvU3NetyozKN20sj7ephV+8w2EwdoG6B16NuyHt3ctqF2kP54ykJtgvTabd2sPgpwPH7ttu66/beN+D5LP75/6nZtMjR8/Cxat8fi1AgHaGgdkB4bO0E7SsPxGeZCSNmth+CKOMCM6kulVcguweEZ2gVOXCf2U06epm3KiXrR5t3KPOsAF/HZX8zqdf/QIryxMO+qsZidxSytI+GOBUKenWTiALMi1I3E9uR/qNlKzFpyfWwDzMTBXhjHuTwjas5u8vnutAd1sFDAM6bI48SCO2zyISgjXffZW1ls0bm8+QtiBIKExIIcTDdgwsGJ8bGfCefjfP2rHY4VpkrLldDNM+ho3/RBr+q1JbhvTByw9kT7/1qE5N8HPM5dsf6yIGVqcaBtYO0Oa5rg/AyskbITulwRh/j2LdRaDAOt13e2wX00tRBmFCln5yEfZAEkNr5DCyuxMsvDPOeP2wabWXrbKpS7CI0KR2hoTJCm3P+cEtAz9Db+wP+oxxWfO5M4MMZMhqwnONlgYgJzJJAYM/EzyII9EwfWJrGpGUyc/nrE4k+B+pC4z0wcHD3nrIWCr8nCtz7R5/naO+zpGKE7ceUP34vsnmHzHE+3o4Ki6PaG/9HEAes7QPOw4/g2Gr4gq8+Qp3VLeUHAEQJ+RRy4A+GBEYph30Fdq1qEzHt+v4PSzqbx4Rz/msRh2K1tKO2Y7Wwx+xuYfguvjV9OYdEx+pqnT6RRovJzOHc6Q/tEwDnZ3sSIG+cpcbBfAO7GJ9+kFj1vVhqNXUqjYcGB6/aVXyYOX/69lGav36G1DdAQLNi0mz79axFVLRNHrw/sQYeUE9/T4yYRbPwHK8flC0qAvPO9/2XpxteDB1BQYJEs/gjv3deXSsVEaI0AzIb6tapHN7VpqEOsDhqb1ffCrJiFfEc+DhWKx9A7d/XSxVds30/nnET/OKpWnP5t4TprtdCO3NW5udWPgg8g5Os7v83SRInzfO03rlYVaveKRchxJPjZtxeCCwQYR2YR0AZAoOLZSCtxUD4EbHrCxIGvxeYXbLrAxAHO0XwOt4Ft102h35P2oB4WCkwyw/Vf+9ZQ7ddhzsSyGQhsz+0jzvB5EBRhW45ZVyQWru1nsGvf3Itq9uvqUFuD81ho8xXigGcDZi3pKiQrm2Jx35g48P0yZ5zRF04wTYM9v70/AmuaWJOBxedq33ydNgGapsxnXCVXxIGdtPGMHFi62mk1iWs2azMsRA26/qt3dTn7GX5nJ4OYgKAg4TmCnwME6aKIoKW0cUj8fOudK3+YOMCcC4K4o2RqTOzrgA8OnkckkzgwueUoWI7q5TysUwHhFom1fHwMv21fGqSjmLETPxOHw6s3aqdpNjeCqRbfJ2fEIVGds1g5Wpup8f23Kl+H1loThOsj+do77OkYYfYvP4jD4FZPUruKHfRE6vD5b9GWpE1mE2RbEPA6An5JHIAC1HM/3PSLBuS12S97xVzJJA4fPX4z7du8xgp4cFgEvTHR8uF5a2AHSjlykDoPfIS63f2ELmNqIZBx2/PvUaNOvYU4KIdgd4kDIiAhEpLGz4HG4X/KVwRmBm/+oiKzKKdpTj2b1qbbOzbRs/uPfjqemAxMWLSOJiy2aIm4rP0vl3VEHBBS9ZsnbtOnIGoTojd5knB+vYqlqVvjmgTfB7R9uSIgoyfO86SafC2LEJfXfWaZ4bQXdB01hO3698xarFfTNcvUu72vMiW6VjsE//PUm1ZTJZMEuEscHAmicB5GTHpT6PekPWirp0IB2+O7O5uLa7BwbY+nvxEH9MU+cd+YOCD0LCIhIdkLusjj2W0mhshDYpLJM9dMBmCjD1LqKnFZezKCc8q1Vjb4g+7Sdvum+Zir+ljYcxURic9HSF52EF+lyCJ8QTjBVAn+QkiOsGDi4Gimn+tgso19++cHazJgvQYkkzgw4USoWfhuZJe4v3AQh9mcmayz/2rl8HXfTrD6NOWEOMBRHk7uZmoxRPmBtGhoY67na++wp2OE2T/GNi81Dp9e/wWVCCtJv28er0y3vzMvL9uCQJ4g4LfEAWiM7vkRlY+qkCfhWGf97xOa/rVlNgfXatK5L936nMVPgH0cHh39s46g5MiPgR0VnWkcnvl6BhUvX4nWz5tG379h+bjgOvaJtRyeahweHPEdla9RX1e3feVC+u71x+yrzvN9TzUOZiSk1378W6+TwI00Z/8f+WS8jlTEx7CA27jBFpMikApnzslc3vx1RRxQ7ltFHODU/N0sFc1p9VbzVI+2EV4WYWbPnrtAd4/5yaNzHRUOCQmhsWPHWg+NGjWK1q93TZKshbPZ4I8d2zW7Ks7mK46EFPYHgGMxTFNYCMoJcUAbTLt47HMoTzaFQp4n7UF5T4UCDnVpmlagHleJhWt7wS874sD4OTK7cnQ9b7/zNj4OylTJUeK+MXEwIyGZ0aJwLtbLgEYJ6a+HX7IuqoZ9c6YfpKLtS5bxyt6vBWXtkyvigBWUu773kj4FUaBOHTlmf3qWffbNMZ/TLIWuZPAMvCNii9C71Xt30iVzShxwMpMt+JkgOg8nvjb2TeJQpXt7avAfi98bwrFmt1Adayh2TJ1NG374k6vXfhrXfzNCm18haACCB/A1c0IcTJNCvggvVGc+4772Dns6RnDf8MsaSlfk0Cyfk20Ox/ryzOdpczbahocffphatmypL5OQkEAvvWR5N3JyXTnn34uAXxOHzJWjvb+Ow5lTJ+lNFVXpTMZJgibi+R/mUHSJ0pSUsEeFAO2qn5iBL7xPDa/tRRcvnKfne6gwklciMLXt9x+6/lHLC+mMODykZtSxTsSp1BQVpam1quOCw6cwp8SBiQsqzat1HBw22Mj0lDjgVDgWw8F4n4q89OJ3f9ElZfZRSOW/qnwf4AOB0KYgDvbpjdt7UJXScTrqEQT9hKRUevabyfbFsuxnRxzu69qSrm1QTUdVevbbyVanbFSEdRo6N6hO2w8l0e7E47purE+BMLHL1cJ2l42rPazCrLatUznbKE/GKS43IyMj6euvM4W5MWPG0Pz5tusNuKzAxUG2O4ZfwZwXRtqY5MBcBYvBYeVZJISdbP3Mg3obzpIcJhThJDu8YXEQXvGRiumuovHkljiwXTUuBrv4bh+8qoUa00zKk/agHk+FAjaPwrmOZmgRshT93L9wBYroxMK1p8SB1ypAuEoIvTC3cZW8/c7nhDigfSwMwpwLfh0IxavUbaRJl/KBQOx+EAf7xEQJzx2iZjkio/bnYN8VccBxNoNCe+aqaFfse4Jj0LBhjYQtv/1ljSbE5jc4rgVkFZZVDe7YVVGDQqnx/QNozbhftKN+8drVqO3LFidUaNV4wUDUAZLE60bkhjigflwHBBl+F3gOgE9XFQqX11kxiQMcsxGxCwu6gTTMevZtq28EjtW6sSelqtCph1ZaJhqYgAOX6co5/WzaCd1XrE+BsjC9m6b8F3DfckMcUKnpsI1VuJkgmv4/vvYOezpGaPCu/IH2Fs+Yu2uCmOe6u83EwZ2Vo4cNG0a1atXSVaemptK9997r7mWknCBgRcCvicM7XUdStWLV6eNlH9Ds3TOtncrphmmqhDrOnzmthe4SFSqrdRmidLVfPn+vXtsBO5XrN6eHr9jigzwc2rGFQlVkpWJlyuuy+OOMOGAF6AHPj9TlMDCnJSXq+N+LJ/5gE83p30YcsML0ULV4msZOOR3vOHRML+IWEx6i87CQGxZ0s08QyiGcc/p65nL6Z42tox+OgXzc1r4JF9NkA2tLwP/geHqGzk9RDohjJlmEcJAQrOMAR2ncJ6wHcVytVF0yOpwqKFMBnGuaOXE7oFnYo8jPCdWHyqWLUbGIMF33x1MXKkfpPdbr53QjL4kDZn+vUyEyYYuOPkPIOH08lSLUCs4QiLCSsbmOAwtmKIuVYPELMw2YZpmLUOWWOAArCE/4X1zVj/ZByLRf3dfd9qC+nAgFbPeN87GCNWLvw4k1Or6cXnsA8e0RXpNTTomDSVKA6QnlW3BZ+dlg4bV9av0I++QrxMEU/BCVCKuIw4QJawsg2c+ccz/Y9Iz3zWhWnIdfOGDXNRZDi1VRrmCrDzv7DPWcIsHkadnor/Q2wqXCfArPI4RjhDXFgmYRagVkPM9I9o7H9e/oZ13cDufAnwVhgmGahHqw7gAIHQR4hB/V74oS6JPVKs2X1Ar0cbWr6npRFik3xAEhfmG+g4TIRFiRPU6ti8HrJyDfJA7YR3hVLFKI64NonDh8VD874VjZWrWZQySjLMjQdWPf0hjifUratINC1L2CfwUSSPDKjy3BKnJLHFAf1ru4qMZHYIT2mWs+4DiSL73DORkjLL0ganTfrWoV8tZ6F9iePJykSSjeASaZXDanv1jPCpEmn/v7adqRvN1lNW+++SbVrFlTlxHi4BIqOegCAb8mDk+2HkrXxLel+Xvn0pgl77nopnuHTOKwdMrP1LLXrdYToU34ffSrtHTqz9Y8bHT7zxDqdPvDagAsbM1HJKV1c6fqlZ6xaNuwAW2sx8yNLrc/Rm3732UlJTi2euYk+ukdy0wt9pk4vHFza0pPVoPOldR/yBu6fc6iKrHzNYof3LGZRj/ch0/Nt98n+qg1ENRiayxY925ehwa0b0wIbTp22mIttENTYL/yMxZow5oP5srLWETuM3XOQhWdyFEKUDNp8EeAIA8h6+4xP9M59QG3TyzY2+eb+/bmRDCFGnR9Wx161SyHbTh2fzR5oV6bAvtYrG7oDR0pLDgQu9aENs1Zv5O+nJFpA209mIONNm3a0BNPWPxrUPcDDzxAycnJOajJ8SlY0K3lk/dqAmCWgMAFW24sosUJ5imtn3nIusAX56coIQqRUuCDgMTEgZ2lkcfOsixYsX22fVQlCKBp+w7ZrNaMeua+8r76GB9FVdbkbntwAs96OjJLYedoM6qSvogSdmrfdB3V6NtFCz7WC6sNtHPjj5No37xl1mwmDmzOwwdq39STat7QXS/uZq4vwMfxW7lLG+VA3c0qdCMPxAFmZPbJ2+88R8PhiEP218M+980+AhcWaMPCaDzjjrIQYFeN/Z+NNgb5nAoHBKiQr6O0AItnWi+8p4R2+2RPMOyPYx/CPof8xT5IAp5RrENiJlwH0X4WqecUgp2ZyrdpSo3uvUXP3Jv5IK5Yd4SfayxuB60bnm9OMMtZNnqcXpUc1+AIQ3wcv7yOh72/h1mGt0EiWz39gMaG87ZMmE7QCiABK17dmY8j2pmj1d/xrGO18mNbdnFRjQ8IMTR5ZtJrm2DtFNUHJI5SxeQY601AyDcXcYOpI6lxmPvMzxEiNmHlaPMaGCPmK00l7peZfOkdztEYcaUziLiF6GkgXNAAcZr/+hgb/Dnf099S4aXp496f6dPcCRIzbtw4io6O1uXXrFlD0EBIEgQ8RcCviUPL8q1oaJvndZ8RmvV4xjEaseBtSjyZ6CkOurxJHF7q3UCtEHyZ6rbuRCfTkvVCbpcuWaKk2FceHBqutQ8h4WoRo6Vz6PRJz5xo7euTfQsCpbF6afFoTSw8dUzOCwxBTiqo9pSIjtCrOh9U60yccUBOcO2osGAqq6INRajQsFgBOkGVdURkctrOZ599lpo3b65PX7lyJb399ts5rcrleRD8otRMOhwxMeOtIwldESLsT8SHMbZaRS1MH1ezihCecps4Sg8Ecpj6gNBgtVq0AwKcq5QX7bG/HgSnqApldeQoaB/QTkmZCMDHIEoJsOkHD+vnJ/PI1dnCMwHtB4T8k8rf4cShRE1oXLUGzxzIwcVz5/TqzmzKY54DEyD4cISViFMagT3Z+hWY57q9rQgrtA/Qbh1T6yhg9WV3EoTX2GqVqIjS0GGW29V7g7rxDp9VZkmpew5oLbg713BVhokDE1BobUAgkpXmx37RPPt65B22R8Syf2+TB6hh6UZUJsKiFUpU6zY8OtliMur4DDVxozRNP/9smfgEmb3//vspJSXFWXHJFwScIuDXxAG96lK1G3Wq3IViQ2IpLDCcXpgxlPal7XPaYVcH7InDWRVWVZIg4IsI8MwRPgD33HMPpaen+2Izc90me+KQ6wqlAkFAEMhXBOyJQ75evIBe7IV2r1CtErUp9UwKbU3aQr9s+ImOZbieSGnXrh0NHjxYI7J8+XIaPnx4AUVHupXXCPg9cfAmQEIcvImm1JVXCAQFBdGPP/6oq1+8eDEholJBTUIcCuqdlX79WxAQ4uAbd/q5556jZs2aWUx5776bTpwQ7ahv3Bn/a4UQB+OeCXEwwJBNn0UgQNmCd+9usW2eM2cOZWQUXM2YEAeffQylYYKAWwgIcXALpjwvhGhKlStXpoMHD9LatWvz/HpygYKLgBAHu3uLSElIu9dnjVpiV1R2BQFBII8RgI0zIt+cP30mixN0Hl9aqhcEBAEvIABn6JDYaOX3oXzClO+EJEFAEPBvBIQ4+Pf9k9YLAoKAICAICAKCgCAgCAgC+YKAEId8gVkuIggIAoKAICAICAKCgCAgCPg3AkIc/Pv+SesFAUFAEBAEBAFBQBAQBASBfEFAiEO+wCwXEQQEAUFAEBAEBAFBQBAQBPwbASEO/n3/pPWCgCAgCAgCgoAgIAgIAoJAviAgxCFfYJaLCAKCgCAgCAgCgoAgIAgIAv6NgBAH/75/0npBQBAQBAQBQUAQEAQEAUEgXxAQ4pAvMMtFBAFBQBAQBAQBQUAQEAQEAf9GwO+JQ3RwDLWt2J6KhxaniKAI+t+67+hYxjH/vivSekFAEBAEBAFBQBAQBAogAn1q9aPSEWXoeMZx2p28k1YfWkWX1T9J/oGAXxOHitGVaFSPMTZID53+BO1O2WWT5887/Ye8QUWKBtKEMa/QhXNnfaorTaqWpzoVSlFaxmmauHRjtm3ztHy2FfpZgZufepsKFS5M499/kS5euOCw9TWatqWazTuolcuX0YaFMxyWkUzfQaBn09oUFxlGOw4l0ZKte32nYR60pHfzOlS4cCGasnwTXbx0dT/e//YxwtFtq93yWqrXthvtWreMVs743VGRApVXrHR56nz7Y5R2LJGmf/2+T/WtSEBhGtC+MRVS/xZs2kV7jiS71b7yxaP1tzI2PFSXX7fnEG3an+jWuY4KNa1WnhpXKWdzaO6GXbT94FGbPN7xtDyfh9+8GOOGdxtFVWOrWS8zf+9cGrPkPeu+bHiGQEypcCoRH03Jh09Q0v40z07OQWm/Jg6PNB9Enap0oYS0/TRy4XBKykiisxfO5ACG/D+lRrN2VLxcRdq2YgElHdjjtAEjZu7Qx4YNaEtpSTkfaJxeIBcHnurXkZpULUdnz12gu8f8lG1NnpbPtkI/K8D38pW+Ten0Sccv913//ZTqXNOZ9m5cRR8PudWvetis+40UFBJKy/76jc6fPZ2l7Q+O+I4q1GqYJd9RxuFdW+mjwTc7OuRTeV8MuoXCggNp64Ej9PpP/kn0fhx6h8b0vg9+oYyz564qvv+mMSIkPIqadOlDp0+k06qZfzrF/Y6XP6T67bvT/i3r6MNBNzotV7hwAL06fhkVKkR6YuLN29rRhfOZ97PHPU9Rq94D9PkbF82kX0c+57Qudw6423536jLLNOhwHd3+0mg6f+Y0vdCrvnnoqm+HBwfR54Ms49KP81Zrsp1dowZ2aELXNattU2z+xl00dtpimzxPdgb1bkutala0OWX8onX0++L1Nnm842l5Pg+/eTHGBRQKoLDAcLomvg3d1+RBfbnbfrvZ5+S3kIgguvaOhnTp4iX65+vVavL2oglNlm1Py2epIIcZtdvEUx31f8/6RFr51/Yc1uL+aX5NHN7pOpKqFatOn6/4lP7eOc39XvtAyee/n0OxpcvRvF+/pCmfD3faIhY2hTg4hchvDvC9LKjE4d1/timhpTC990AvOrx7W5b78uy3MymubHyWfEcZaUlHaNiANo4O+VReXnxU87uDQhzyG3HL9ao1bk0PvPutEvLP03PdbQVLs0XuEoeAIkXonelbrKdO+uRNWvD7N9b9/05YQaFR0Xp/36Y1uSbm7rbf2gA3NwoScYgMDaaxj96kew4Nw4rt++ns+QtaU7E/KcVNRLIWiwoLppgwi/bisd5tqExsFLkiDp6WN6+Y12PczzePp6IBgTR46qN0ID3BvPRV327crRpVaVSaDu9MpoXjs7eq8LS8tzooxMEDJEd2H02VYirTqEXv0uL9Cz048+oXFeKQvYbi6t8l77bAHeIQFhVD0cVL04nkJEpX//0pZUccQiOjKTg03NqlmFLl6KGR3+v9H4YNoYSt66zHzp4+RafScv5htVaUxxt5/VHN4+br6kvGRCjDC6LElBP5cTmX1/g3aRzcFbxzShyO7N1JI+/rYbnH8VXp6XGZk2tCHFw+hk4PeqpxqF+xDD13Uye6oGas73zvf07rzc2BN27vQVVKx7kkDmb9npbP6zHuq37fU1RwFL0w4xnadnyr2dSruh0YUoSuH9RKmRcX0tqG1CMnXbbH0/IuK/PwoBAHDwDLJA7DFXFY5MGZzotWbWh5UHasXkwVajYgzH5kpKfS+vnTnJoURRUvRfXbdKO4cpW0anjvxpW0Y80SOnPK9kNcXB2PKVlWX/zWZ0dQRGwcbVIq48WTMgeUI/t32pgksbAJjcMlZRffuFOf/7N3FeBR5Gz4O6C0hUKxFnd3d3c55HA9HA45ONxdjwOO4hxyHO4uh7u7u7tDcb8/b5ZMZ7erZZdu+b88TzuZTCaTvLPJ5M0nEZKKhHTh8C46vWeTxYbEFh8Kn+ix5PXAB3fp0Z3rFvOG9IKjH3lH84e0Xvbch3frFTkKXT9zhN69eS3fdbYSleQ7O7R+aTC8oAaQNFNOSpk1r1DH8aFLx/bSuQPbLNoqxIqXmDIWKkNRY/jL385V8ZtQ79JU4gD1Hn/xvvTh+aP7Qsf3vj7JKO7q+uNhkB4kyZCNkmfKRdHE7/bhjSt0aOMyMaEP0utV9UD+pr//Le75gZaN6U+Pbl9DkgxXhdqVOdUl9IUec7bJPOPa1hDv4qjhBjP/gX/K7Pkpeebcsl7Q9754ZJdF/FFEkvTZKbyHhyzt3tXzLiEitj6qCWIJsuQRgR49f0UF0iUV9kBvad/56+Qd0YPypU1Cn4VNwa4zV4SK0IdgrY4f05dSJ/CnqN5edO3BE6EO9YDevjfOB91pT7HSfOtxYLBrKDBu9KhSleresxf08k2QjRTsMrxEHVT477//6LYow1rA6mmq+H6UNHYMSTJOX79HT16+tnhLtMjelDlpPAIxeSPqDWJy7Mpt+vDRsrjfHcaIBCkzEEjuzfMnxRjhQ9nFuODlE1WOt1dPHjLbXg9P0dbCZSlOkpRyfLhx/rgco03VS/E7TiHGEISEqTNRmcbthRrEJ5rWo6lWLtSLrpw4oJ2bEgcQjgz5S9GzB3foyOYV2jihlzhA/cnLJwr1LJ9Z9r3a3UZSthIVpVqUd5SoZEoc0NfT5i4i6xQ1pj/dv35RjHH76M7lIAkGKhSS+msNERGMdckz56GkGXNSRC9vunXxFB0Ralp6my9TiQO+ZdlL/CSLObFjnbxHX6Y+7uo+bw9xiBghPCXyiy6rBduCirkz0HPR70cs3apVFePBs1dvtHP04/DiHVwX/VxvZYTnoa8+f/OWnrww39ccJQKO5rc1xmmNCGHEXYlDhsJJKG3eRPT49nPaMuuYzdY5mt9mgV8yeHhFEIuJkcnXP7KYX34mEBhTEmNKHHxF/lgJfcV85j09vP6M3r81b1MJ24goMSORZyQPevXsrSz39fOg74SqY0RvD/L2iUjvXn+QZYZpVaUxP06g+FETCImDc4gDBsVhGwyM9/LRfUJElUfhJo+7l82k5eMHGqW1/2sVxUuexigNJ//995mWjOoj9L0XaNfaTVhO8VOl187NRY5uXkVzh3bQLqnJJlSaCtcI+rgggzU9+B6zt1H0OAaSckfoi4/6pYJWprMijn7kHc3vrHqaK2fo2lMUIaKneEe9qfwv3UTHiWyUbdQvFbWPZvwU6YRKwUwxmfA1yvP6eSBN6lQ3mFrOj826UpGaxu8KE46kGXPI+02JQ8HKDahi615GZVt7t8joyvqj/MTpslLjQVOCtRkTzE2zxtGGmWOQTauHPLHw758+Lc2SXHuJAyYOrUbND1YXTI4mdaqnvSfTx/+x8YIkMkjfOn8yrZ063DTLV5/b+qhObl2DfCJ5SqPj8GLlCgET9Jg+YuLuGUGeP335hlpPXCzj+IeJR/ufishJt5YoIli1HL1yBx2+FCTOH928Mvn5+tDaQ2dp9lbjSW04QeL+aV+HYNA5dtVOI+NtqE+ACOiDNRuHmgWzUqU8GfTZZXzZ3hO0aFeQpEhlqJIvE1XLn1mdakf8ftr8tdTiJMgdxoj+Sw/J39q1U0ckcdYqLyK3L56hcW2rG9kOVG7Tj/JWrKP91vT5sQixYHhXLQkLCl1nWl7wQUZg1KVkKu0eRRzwbEgjI0czTEqRAaRjStdGciFDTxyObFohiEIl8ZsfIX77f9HAFUfFGBeJLh3ZJwh4PiPiAOPrBv0nULjw4bVnqgikFrA1UotgIam/KitfxXpUsVVPQj31AW2Y1LEeYXEFQU8crp89phEtdc+mWeNp/YwAdWp0dHWft4c4KCmDUcVMTkxtHJS6YIvxiyTJUNlrFMxCP+XJKIyeH1K/uetUstHRUSLgaH5bY5xRZUJwoohD38096dSDkyEowfm3hPcIR5V+yyd+q+Fo+7wT9EBMvq0FR/NbK0t/LXWehJSpSFJ9koy/ePKG1k0+qKUr4nDjzAOKKohAtNg+2jXYZWyeeZSePwoiniAMRepkFnOg4H3+1vlHdGD1OfokSIoKpuWHWeLgFcGL5lRfKNs1YGtfOn7P8mqlaryto544IC/0rM8f3CE/Hv6JksvbF/zR1cizxYBlh+TKzs1zJ+n+tYvkEy2myJ+dsKqDgEEd0gGEvBXqUIosBjKC1R0PseLy+M5N8TEK0p07umUVndq9UebHP0UcEEd9boqVrFTC8w5WaxCm9WgmV77lie7ftyAOTUvnoYLpkslV1LZiMmArOJrfVnlfc11NvKFfHD6CBz29d5se371BvjHjkF+ipDShXW35IYsaw496LdglV7lhrHdy10bxsf4opQlYPXsv0vr8lE1bMctatDzV6TlKVu3RrWti5fAgYYVQkThcMCUOWLUv+XMbeQ9WITExsJc4OLv+qAQmB11mbJQTIZR/4eAueiY8nMRLloYSpctCZ/Zspn/6tpT1rdSqtxio/GQ8k1hxRbgkpG2Q0qmACfvjuzfVqXa0lzgMWnVcrlRiVfLsvi30n1ilT5evmHxv8DSGVdXPn4OvYrt6EoGGDG9ckfzFxP2QmMxjcm4aFHF4+fodnReel+BMAAEk4ODFG5QndWKJc69Za+nKvcfympo84wTSicdidTJPmsQUM4qB3HacuoLuPn0u82Iyj0k9VjQx6dAHrHZ2EAQEnpIajppj5DEJk5E4QhKAUCiDYWyzRBwal8xNJbIYJrInrt2Rk5hkcWJqXl2mbzpAG48G2bTEiBKJxv5SRbbr8t1HdEpIJuBqMY2QnqRJEJv09dfXF3F3GCMUcUB9DH1+A0WJ7icn3Eg7u3cr/d27OaIyNB82Q157ICRyd8UK/UfRZyC59vWLLa/vX7uQFv/ZU8ahqle94xAZjxoztvy2gCicFCvpKmBM0ZMNRRxwHQtS6I9RxLgUL0VaeQvGriH1ioj+EGTjADujDpNX08ObV8VCVEf6bcJSunPpLD1//IDS5C5sRBwwoa/cti+9ePyQbl44KSYYDyhZ5pzklzCpHPce3b5OwxqUkM8KSf1xY4HK9alS696yjNeBz+Q3EZKVxGmzyvF23tBOUnqCDIo4yMzi381zJwRxeUnJs+SW5AYY9CyfxawU09V9HpLCCS2rSS9k+N1vO3lJVVM7QkJQPmd6eZ4kdnQhpfOXDkS2C4NoFY5euUXwrKSCOxMHW2OcakNIj2oBeMnphTT3xOyQFuPU+1LlSkCZiyUTKsPGE3RLD3E0v6Vy9OlZSiSnlDkMi7+3LzwWffkZeYjFpvgpY0pisOj3HVp2NbFHwqePn+nS4TtiDhpRfK/9ZR4QHxAgFeIkE9sY1MhIT+68ENLFp1KK4J8oGsVJFkOMI+Ho3uUntHNR0LzUtPwwSRzCCZFezYy1qVr6mhKHhkvq0ov3xmpBCiBHjnrigMET6kEYpBDaTVwhXlg6OagOrJVfKzZjgVJ09sD2YK5SB608JlexLx/bL1dFtRu+RBy1cXguBvWBNfNpxQxZfUISj1PCZeeMfq21dBX5FsRBPSssHhVxQN1NyWC85GmFW7Ob9Pb1S7HSPU9KCvCRw4RfqdxANWHQyqPyQ7Zr6UxaMWGghKHn3B0UzT8uPbhxWUwqy2jQ6N+HKXHQMomIvV6VXFV/1AUTjrjJUksVrqH1ihqpJmH1P07S1HR82xp9tWXclo2D6Q32EIeiNZtTuWad5a16o2uo/XWevl5OTjfPmWDWbaOrJxGm7TF3rojD74s2Eybd48WkI7qPt3RfvGDnUepUpaicgM/cfJDWHTlHmHSPa1FVFjVtw37afNzgISO8cOM7+pfKBHeOp67fpSELDavW+hXQLtNX0a1HQYStR40SlCFxXDp6+RYN16lJmNZTTVrMEQdIMwKa/SRxRn31bpeVFAKqRw1GzdWKbVA8J5XOlsYsmYGU49Xbd0YkRrvRTSKKOGDsH1SzgGZrBK9Exeq0kN8E9GG1Cp9MqPI9FqqgpqqFLUfOERPwXHLS27tS1mCtc9TGAQXAFkj1vZLCZWmphr/JcjuXSGlEHHpXzEpdpm8gH6EOe0F47kudqxAtDehD6fIWD0YcYghbIxARU1XBwtWaUPkW3WT5/armCqbqZ2/9IdkduOKIdCsOqcnoVpW17yoKB1HAotu9a4bfup44nNi+jmYNNCyqoJ7dZxvUfeYObk9Ht66WddP/c4c+r68PSHmLsvnoYeBL+m3yMv0lo7jqg+4ocTCqqAtOmudsSaVTlKWnb55S942d6eGrBy54iv1Fwqah0m955SR97/KzdOvcQ6s3O5rfamFfLvpE96ayv+SUZwfXnKdrJ+8b3ZYwrR/dPBtUL/3EHmpVUK9CQL48lQwLDHqiAdUkkJCXT4PU5ZA/niAl+asaSO+yP3drXqRMyw9TxKFI0mLULEcLgrQB4eLjC2LDt1l08n5wUbnM4OA/PXFYPel32r54mlYCJASNB0+R5xikzQUYtsL+AD6eyzfvJnTic4gJ5BUxgSwdLLujxOHgv4tp4cjuWjltxy2hhGkyiR/PCRrTxjDR0C6KSJXfBki9faRB4uEKNQ3988JaXE288SELaFnJYvWHrT8nycG5/dvF5PRPmQ/6wAhV2vYXHTOTEUlQHy79Bx55c5erSdU6DEI0mMRBJn755yhxcHb9UQ3VhpXjB9HOZTP01bMadwVxaB2wQK7KmhIxVESp/mEldVSLisHqBtIX0cvgeWTz3Al0cuf6YHlcnaCIQ/spy+m+sDMY2uBHSuwfg/4SrhixAqlW85cIN4pLhDvFIhlTUPMyeaUdQEMxGdfrO5cRk/H6YlL+9t1HajwmyLmAKnPL8Ys0dcM+2SQQDagpQT0KJANkw1JQkxZzxKGqUDeqKtSOsCre9Z/V9ElISmDHghDJ04MGCMNMhM5/r9RsJMpkF/UsllO2ofWkJUa2FTKzm/9TxOHK8QM0sWNdrbbYT2fI2pNyFd7SxBVSSL8EyeSYAZfbpRq0lepEXUun0cpREXsn3kriACLTtVRabdKN/Q66zdoiixtSt4iQJtzXvCqBOJRp1J7yi5V+BNzbvWx6sTAxKRhxkBm+/MM3EJIGT+/IUpWz5ReD3rG/VqMbOucFyG5v/dPnK0ENB0yUTxhcp7C0zfjyOLMHPXGY3KWBsGXao+VT4/aGGWNo46yxWrqKuEOfV3XBkYmDHg3zce8I3lQ3c30qnLQoRfKIRB8+vac7L+9Sh7UGwmj+LtelJskYm3L+mJrevnxPq8YZxlNrT3M0v7Wy1LU0eRNSxsJJ7ZZ4qIk9pA1LRxg0XFAWCELFtnllsStH7xWLgR/UI7QjhnMvH0+x8PCDkKSFo9LNDCrV//51QBCLtzKfaflhijjkiJ+LameqS9j4DQFShimHJtHu68FVBGQGB//picPolpWNjLCwwjxkjUHUM6x+Cc14FiuwMHSOnzK99kHVP/aZMEyGP23T4ChxmNihrpHBHDYTy1m2mlipCfKcYfoMPreMgPoAWVqtxp0ggv2WBBkpWioNYnSsKEbzj0c9526X2QZUz0svnj7SbtF/5J0pcXBm/VFZrOR3+WeDrLe5VUatQWYiriAOSlJzYvu/YuWxrdFTVR+AisUAnTTOKFMonyji0HLCIgp89Zb61SkjDYxhq7BfqCEpH+//Hj5Ls7Ycojpic6nyYkM2GBJ3mLrcqPbwnAL9ZIS6w2dppKJY5pTUtFQeaWDddMx8eb1g+mTUslx+u/ZYsUYc2lcqTDlTJZJlWvs3Yc1uaeSNPDAGn/ZbLTkegnDcf/aSzt68LyQqZ+nmwyCJiLXyQvOaIg47l86glRMMZF/VZ8Cyw1INddNsoWf/T4BMBlmo2fkPoT5XXK76q7zqaGqzoNLtnXgr4qBXGVJlqD6H79Xdq+eMiAPstnrNN0wioO4z5teq1GTwVLPEoXTDdlSwaiOpEqjK1h/N2SnZW38QmOJ1WwnDylfUq2IWfbFm44o4gOx0KZnaKI/6bpp7N0YZ3eSEiYPtF+Hr6Uv1sjSQxAH7O0DycPHxeRq206DSZ7sE5+Yo3zq36OOedHj9Rbpy1PKCi3qqo/nVfdaOuStCLdifLh8RDhA2BFeHM71XTexNVYyQr0qnAlL9aO3EA0JqaCACSE+U3p8yFEwiVKO9cBosbJpxlJ6KDeUQTMsPU8RBtcwnYhTBUH+mUinKyKTGS3+mwHeB6nKIj3riMKhWgWCiZ2VvoLdb6Lf4gGas9uZFoBC3XqT3wksPbCKg126qYqQqpwbAkO7jUK3DYLGKXcNotVuVzUfbCCjioNetNb0LHjpajzZMxK6eOEQfLOzc/eTeTVoS0JuSZshBrQIMK8GmUimI6/FMBGcSB2fWH3WDoWSjQX8hSqZtkIlW/qlJjF6lyEp26WHMllclNYnbu2oeLRW7p+tDuaadqWit5lKlqleFzPpLbhNXxKH5uIVy5b1fndJS53nUiu3Sp3vtQtmoQu70Uk0J6kqtfswvvC8lI9gG9J79r1E7oDYEY2gEvXTAQxhT/yNsciAJwD24t3/dMpQynh+ZGmEaFfjlxBpxUIaUsKE4aUVqsebAGen5SZUPb1BNhG0EvErpA3a2HbRgo7Tx0Ke7U1z95tb9PYogqdKHPgv3Sm94B9ct0TZQgxOBtHmKyGywiXgg7ApeikUDT2HPAK9kCOb6kr0Tb0UczG0Ap/ocSMGdS2eMiANULaFiCwkCbCxgP2eOOOQqW12zu4AdEdQ0n9y7BTEFpcpZUP6uZg1oK73DycZ8+Wdv/ZVHJ0vfQn2ZiCviYG4DOLUXjDlHJabluMM5Ewfbb+G3vB2oUJIiciF42I4hdPbhads3uSiHUtWBQfGKgD3S6521Rzma31pZ+mswXPZL5Eund12nM+LPVlATe3MbwCnioJcgYJfpwrUzyWI/CAn2o5vPhUqmMJ4WIu5UOeNLF7R6lSfT8sMkcUBrId6aXX2BbHi/Lb2doq6kJw6m7iHhuhN6mggQCz+9f5tKiFWU0mI1BUEvhcB5ne5/UtbiFZg4AAw3DIo4mPsgqupiJRGGuQijW1WhW8Jw0FrQSyhMN+yDZEr5UXcmcXBm/dE2uBbuNc8gwTNtg7W245qaxDiTOHSbuYVixktIp4RR+ox+rYyqAElf9pI/SacB7rpZnKPEQdkNPBCr9O2mGOtEw8gSxAMr2HVHzDbColfNkpQuURzaffYqTVm/j6Z/WfHvPmO1cPH41Civ6Yk14qB2nLXm1cW0PP05bBpypkxEUF+Ce1kE7JgLQuOuQRGHPSvm0LKx/YyqqWzXlKpMnCSphLH3GplnjdjIc5vwfqeCXkUntIiDqos6miMOg4W9HJxtwPPbhPa1VVZ5VGqL5sYZe4mD+k6aIwJGD/ty8v9MHH6duMTIxXHbioWkAwVr/U+Re6g6QuXRVnA0v63yvvb6xIpTyD9ybFp6ZrFQPZ/5tcV91f2lmmQX38DIdGrHNTq754bNshzNb7PALxlylEslVN3j2L0TtOnEXv8cc8Thx1a5hec4T7osJCpHhGRFH6p1EYsFQsX1uyQOaGhAuXGU0DeRS9yxmqqAwI90rW7DJb7qI9A6YL70oGTOjkGpWFhaZYHhGlaCzKlg6F+iknKYTuJsSRx+GT5T+uRGWRcO7aKZA37VF+v28QIFClCzZs1kPT8Jd32NGzd2ap3tIQ54IHZihbcSvWqCtYqoDy32MtizMmhypzfy/VbEIST1xz2KAGyd9xetnTbCWnONril7EHOTDKOMX07sMY5WBqbKc4y+HNWHlBqG/hrifRbsoYiC/CH8O20k7V4xS8a/5T9HiYNaoYQnpEYBc41W5mFrAJuDt2LPh8ZfVJJUW5QHpXfvP9LcHUeoUYlcZo2TVX790RpxgDQEUhE8s4l4pt7mQl+GPXE1YTl36z4NmGdQh7PnPkt5XDVGKOJgaj+ExaMByw8brcCrfg2XoqZ2DDU7D6McpavI6qtvhr4tSkIJIti9bDrNM5s+D+JfI3EwLcuUOET2jSHUMffLbJBaoC+pABuNpkMNdn7m+rS99U+VXYzlw6bLYk1VgNWz9MevIQ7u0Of1bVH92ZZx9Eyhigy3yePX7KLdZ65qRSi3ydaIQ9dqxaXrZrhpHrlsm3avpYij+S2V46x05Y6196budMaGtMFVfR5tiZXAl4rWyyy99i0X0gZIHawFR/NbK8v0mvLShH0TVo3dC+Gf1eAIcYAL1sod8svy9FIIJEQTe0WUbJxdXvtuiYOzN4DTSxygtz5YeFWCuBfp8OYAbzlwb/dHo1IS2Lo9RlGWYuXFgP9BDPwZpAEaLuj98lsiDi2EjjL2iXj17CkNrJXP4kcjpMRBERfUx1X7OKBsV4WXpkgIAAA3XElEQVRKlSpR/foGwz48o2rVqk59lL3EoUG/CZShQEnptz2gRSXhuixI3xDqR8XrtCR4zsKGcAgdxL4eccW+HtC7H1y3kHyvsI/BKr7aB+JbEgdH6482gHRikyqoLYxvV9NoMgFVJthrmDOahq94bJh1XnhxmdrdNtGzhzjoCfuMvq00V8X6ycgKsbfKLrHHimlQJA7prtrHwfSZpueOEodInhFpSpsacnK6+sBpmrvdIOX08fakMc0qi70fPOR+DKauX4V9G834MvmAlyOoL605eIbmbDtsWqVg59aIA547sVV1aWS97vA5mrnloNH92Lgqe/KEtHxfkDQuS7L49EJsNgeVKX0Y17Kq9Ap1+NItMcHZqr8UorirxghFHDChH9O6qiZpDBrvPxJU4+BpLUP+knIPBDRAPynGJnJtxi2WRtK4Zo446KXY8Hi0d7VBzRH59cGVxAHPUf1Erzbr7eMrvDKtF5uIxpRVMUcc7K0/nEn0X3pQ2obAW+HI5oZNVVUbSzdoR2f3b9WMr7+GOKi2oOzQ6vOqXTjaSxwUQTgiPKCpjeIS+0cXzhTKy+KsEYd6RbNTuRzpJLnvJJwUWNuUEYU5ml9WwIX/FHGwZ+doV/V5NE+pB104KFzlbr5is8WO5rdZoC6DV+SIBNsJrPyf23+TTm4NIpPhRFpqsb+DXiLiCHHAY5RU4dDaC1KqgbQIHuGpSN3MQsXeB6ffr8Th91IjKGXMVDR+/xjacmWTbOzX/NMTB5QD0Som3f6JkolBzyBmn9q9idzbAdfhhk95nQB5uHPxLEUSBrVQrVDBEnHADtC1uxtWc/GBwg6jWLXas2K2kTen/1fiULlyZapXr56CMdSIAyb9/cWKHPbcwHsCcXwhfKH7ChKJ94yPotpkCZXFJm/w7IEAY8B7Vy9IIqH23UC6njiAfLSftALJMsDAGnkxKYGusQqTuzaUvxF1bi/xcbT+KB+75vZZuEdIWjxkm7Efxcunj6XHMPimx27nah8HVR8cFUlBHKQDu18Ds1kD2hg5GsB1BHuIA/JhFTGK2CsCZQFPERH+plPLyTU24etbxeAFAnn1wR0mEY4SB9S/SancVDxzKtkUGBM/fvGK0or9DzwjRpAYtBbqDPpdZ1WbfxNqDblTJ1anhL1VsEOtaYCr1LxpkmjJ2A0aAftIYH8JBOzwrMgAjLVhtI2A516++1gQk3DSfgHuYV+9fU/NxhrURpFH1QN2EVfvYyfc/yhlXD+5gzXeobUN4HC/vcFVY4QiDqgHDHQheYgUJZr4/SeQVdPvy4D+NXDF4S995bMcHz5++CDdGSOz8kBljjjgurKZQBzjxavAp8Lls9hluGlZJMngauLQ+e910iYPD4MzDyx6xE2RRrpPNdSARB8ObuOAa/bUH/n0alsYG9CP8c2EMwbseaS31fp/JA7wQgZ1PgT0J+zTklzslaJ+P9aIg29kL7m3hMqL8UJ0Mxq3eqfcc0UWqvvnaH7drS6JYj8ueMrstr4TXXwixncrwVV9HupJUDtCWDlGeB8SK/3WgqP5rZVl6VpKYWuQpXhyeRn7Sch9HMQ3IHaSaEKS7kF696qOEod8VdKJzYhjybIf3ggU484bMU+JKb0wqfp8txKHDvk6U/7EBWnHtW00eu+fqr0hPuqJw77V8ylP+VpaWfiALA3oS/vWGIxl1QWslhSv11J08HAqSQ6+8LWNnZ6xaZsl/Wv44S5YtaFGSlDAkU0rad7vHbWyFHEYWCOf5k8cF6u2GyjrZ8mrkjK+Rl5TkTvS3D106dKFcufOLav54sULatiwoVOrrPbBmCn2wDgp9sKwFjCRbjp4mnS9apoP73fOkHZSP1hdAyms1e0Po9/EvlXi91TB8HvqXUmofrx6IbPrV+3U/eaOpnYDrqw/no+N75r+Pl2bAKk6gdDATau51VHYhFRtN0hsjlfaaNIxvdcvdEZs3GYa9F6oTNUk9Hmx+tlKuCaNk9QwmVbXQOLGt6slBr0nKsnoqFSukLhl7iT69++RRte/xYlaSWw+VhhHi/0L+tQuJTdBg0oBVAuUTYPyqqTqpFYF1TmOmIjDteqNh+ZtFpQNBPLeF16Z2pt4ZUI6gprYG87M/zdVJ4IqVKuyBbTdrtVdUI2CW9l/Ngd5HwPRqC5UqiD10AfknSEkFuY2zdLnszfuqjFCEQfsIZCxUCmjfnxsy2rR3w12baqeaXIVofp9xsjFBZWGjQnni81C6/UKkGRPvxO0yoMjbJ+qtR9EidNn1Z4DcqXPX6/XaGEwXM5o0zZVhvqNm3pVgkTknXDSYRqUIbd+g0nfWLHp1zGLpERd5cf3bu2U4VSqflvZLkvjpD31V2ViUQXuYJXkVaVjQ7hJnevR3SvnZVLGgqWpft9xcnPNnuUzqWzyqIyjLXlVUnggc2j1eX2FlXczW6pKXmJjOajyKTsglHHnSaAk8JAmwKlAv7nr9UUbxeGM4NfyBaRETxEISPUg3TMXHM1vrgxnpMXxiUvjK/wli7LHyY2r+ryaSF87dZ8Orjb8Dq21z9H81sqydi1uihiUu0IaueeCPh82hNuzNMiIPG3+RNJD0pXjd+nwv8Y2C8rGQe9VKaJXBMpXJb00wFblwpXr/pVnKWvJFGJO6il3m8YGcQim5YdZ42g0Jk/CvNS5QHdEpUX+49ePaPjOoXTv5T2Z5ug/PXHAwPtZ6BlnEC72XoqJCdRRzO1Oi2dgN01IH7x9oooJ0lZ68zLQ0UdzfhMEpk2bRtGiGTyyjBs3jrZu/XrVBpNHOHwKP+6J0maRH/tHt6+JXbxPagTAtDAQSXwo8VE+s3ez2Y+46T2uPnek/qoukIgkFTuhYzfpO1fOETy7YFIRGgEkCypKPwhf07Db+d77GfZgSBI7ptww7tKdR2alDN/6PWC1MnmcWHJsxKoo9qawFGKLnanjRotKHkIEfvfJc/EX6NSN31w1RijiAIK8a/ksuV8BJM7nhDqNuck42o9vByb/sROlEPsO7Da7U7olnNwlHZs+JkqTRUzgRT832bPBmXXEQgx21oZk9cbZY8ILlW21EGc+353LihfDl+LFjColBVgo+F5Dk+zNKUvcrBQvSnzZxHti34bWq36x2VxX9HkYCcNYGGHtJOGy9Jl13B3Nb7NRdmTAfgyQcnz88ElIBF8LqaR1+ws7ipRZ0BafGN70WrhpVXs22HNvmCYOaGDJFKWpeLKSFMM7BkWO6EM9NnSm64G23VeZA8eUOFj6SJi7l9Och4CHhwfNn2+Q7Dx79oyaNGnivMK5JEaAEQjzCLhyjNATB3O2PGEePG4AIxDKCPQo1IfS+qejZ2+f0rmHZ2nByXn06HXQTsjmqueqPp8qdwLhTjmhUEt/Ype0wdH85toS1tPCPHFw5gtg4uBMNENeVuHChalt27aygD///JN2794d8sL4TkaAEfjuEHDlGMHE4bv7uXCDvgMEXNnnvwN4vmkTmDjo4GbioAMjFKP+/v6UM2dOev36tVuoKIUiFPxoRoARMIOAK8cIJg5mAOckRiCUEXBlnw/lpoW5xzNxMHllsFVAuHIiyNjPJAufMgKMACPACHynCMRLnlY6rLh98bRFG6bvtOncLEaAEWAEbCLAxMEmRJyBEWAEGAFGgBFgBBgBRoARYASYOPBvgBFgBBgBRoARYAQYAUaAEWAEbCLAxMEmRJyBEWAEGAFGgBFgBBgBRoARYASYOPBvgBFgBBgBRoARYAQYAUaAEWAEbCLAxMEmRJyBEWAEGAFGgBFgBBgBRoARYASYOPBvgBFgBBgBRoARYAQYAUaAEWAEbCLAxMEmRJyBEWAEGAFGgBFgBBgBRoARYASYOPBvgBFgBBgBRoARYAQYAUaAEWAEbCIQ5olDNK/oVDBJYfKL5EdRPKPQnOMz6dHrRzYbzhkYAUaAEWAEGAFGgBFgBBiBsIxAHJ84VDNjHQp8+4wevn5Ie27soqdvnrqsSWGaOCSJlpRGlh1tBE7nde3pytPLRmlh+aRqu4EUwSMiLRndhz6+f+dWTcmeIiGlTxSHAl+/oRX7ToVK3eLH9KUfc6YzevaF2w9p28lLRmnf40mCWNGoWKaUsmmLdh2jN+8/fI/NtNimorV+If+EyWjXshl0+9IZs/lixElABas0osBHd2nbwqlm83Ci+yDgDmPK16KRN00S8o/mQ/vOXaf7z158bXFfdf//+xhhDryYcRNSiXq/ijHhHq2bPspclu8uzZ3nEeVypKNYUSPTxTsPae+5a3ZhHy2yN2VJFp/iRI9C4X74ge6Jfrbl+EW77jWXydF5hKP59c90xRiXNlY6GlTyd/1jqPWq5nTv5T2jNGedhGni0CpXGyqevCTdDLxBI3YNk0zr3ce3zsLGpeWkzlmI/BIkofMHd9LDW1ctPmv4JkNnGFS7IAU+dM2PwOLDbVzoWLkoZU+RgN69/0iNRs+zkds1l/GRblOhoFHhl+4+oj6z/zVK+x5PimRMQc3L5JVNaz91Od1/GrqTlG+Ncd9F+8gnekxaPel32r54mtnHZyteiWp3H0Hv3rymXhUym83jrom2xoiSYvJTpFZzu6r/6cN76lM5h115QzOTO4wpX9v+gGaVJXGYvG5vqC9g/L+NETnLVCNP70i0f+0i+vDujdlXmbnIj1SvVwB9ePuGepTPZDaPSmw7dgnFSpBYns4Z0kF8r3eoS5QsUy5q2H+CPH8mvs1/Ni+vXQtpxJ76h6Rsd55HTGlTkyJ7RaRzt+7TgHkbbDYvW/IE1LFyEfpBEAYVHr94RW0mLVWnDh8dnUc4ml9fIVeMcT/QD+QZwZP8IvtTt0I9KY5PXFp7YTVNOzxZ/2inxcM0cfi91AhKGTMVTT44kdZfClsTxe6ztlKMuAlou1gFXT15mMUX6s4d3hUdwCIQFi5E9IhA8aJHlVdLZUtN+FAycbAA1neW/L0TB1tjRLUOgyl3uRp2vdX//vuPupRMZVfe0MzkDmPK17aficPXIhjy+//YeF5MKMPJSfzdK+fNFuQIcRiw7BB5R/GV5Vw+uo8mdf5ZK7PpkGmUOlchef5ekJCeNkiIdqOViD31t3K7xUvuPI9wlDhMal2dokbyooeBL2nLiYv07OUbeir+Tly7Y7H9ti44Oo9wNL/++a4e4yqk+YkaZm1MR+4cpsHb++sf7bR4mCYOI8oEUNLoyWjk7j+kTpfTUPkGBdmaFKgquHOHd3UHUBjYe6yaLxNVzZ+ZiYO9gIXxfPYQhwgRPSl2ouT07vUrenTnephqsa0xwsPTm6IIiYs+dJ6+Xqo2Ht28Sqhh/Kld+vTpo9tJLLXK6SLuNqboqmZ3FGoU3hE9CKug7z9+svs+V2T8f5M42DPxDilx+PTxI3Urk1Z7TUP/PS37GhKYOGiwOBxxhDhAxjDnC3nrPmM1XX/gfD1+R+cRjuZ39RhXJGkxapOnHZ1/dI56bOzi8Puw54bvhDgME8Rhtz3ttZknRZa89EO4H+jikT2UKE1mwiDz+vkzOrHjX4sqRb5+cShTgdJCpJmUPgqVgGunDtHFo3vp7Stj1RE/cT167PiyDrW6DqcoMWLR6d2baM/KOVq97t+4ZPSB1xOHz2LggupFDKGjeeHwLjq9Z5N2n2kkduIUQo0jlkwOfHDXJZMmax0AOov4gD4QqwLPX1tWH8PKgb+vj7CTeCtXEFQ7IkYITynj+ck/6O6fuXmPbj58pi6bPTragX28PSll3FiULE5MevfhI12484gu3H5gtmwvIdlIncCfksaOSS/evKPzIt+tR8b1wWQBuo9PXr6mhML+AOUevHhT5suQOK68/9T1u3T+VvBnQE8zSewYlCq+H3mKZ8FOA3X59Pk/s/VBojtNCtRv+8HNK/TswR2K5h9ProZ7RvKRv9PLx/YFa0ecJKkI6jix4iWm62eP0pl9W2RfC5ZRJESKGo0yij4WP2V6uiT61uk9G6nXvF0WVZUSpMoo+7Eq671QVbp/3bLdS0jq7xsrtqx/wtSZ6KFoN/rj47s31SPNHtEvU2bLR3GSpib0y9N7N9Ody2e1vKoeSLB3jNBuFpEhq0+Qh5c37Vkxh5aN7ae/FCwOjFLnKCjJx41zJ+js/m305mVgsHwqIbTHFNQjRpRIFMMnkhxXsgodZ6g47D57lV6/+0C5UiWSutL7zgvbAjNqexiP0iaMTfFiRKV74vrZm/dlX1Xtw1GNW09evA52DddRBvKYjlcYx/CnDxj73otxxVJwtM9jTMwq1DQwxmAC9fD5Kzp25bbV8dUdxgjYGcWKn4QeC+L+SnxLs4hvarwU6cQ3djed3bdVfjPNYYTfJ/pKzHiJ6Pmj+3T5xAH5bcUEXh/wnfaKHEUmNf39b6nCsmxMf3p0+5qW7eqpw5rqkilxwO86e4mfZN4TO9bRrYtB9npK4vDmxXMheYhKswe1o+Pb1lC6PMWo0aC/SKWbIw6uqr/WqC8RW2MKsrnzPMIe4oBvKfqLl/jG9qhRQrZcr4786u17uvv0+RdEiPzEnCKyZ0Rp+/BWZ/sXPlw4+W3+8OkT3X5sfqxzdB7haH5r8yatAV8RYeJgA7wxP06g+FETCImDc4hDuHDhadiGc/KpEEsmz5rHqAa7l82k5eMHGqW1/2sVxUuexigNJ//995mWjOojdC0XaNfaTVhO8VOl187NRbBSOHdoB+2S6vBQaSpco6mWjsg1MRiOb1fLKE2d9Ji9jaLHMZCUO5fP0ahfKqhLTjta6wCtyxeg/GmT0n7xER+9Mkgv1PThLcrmo0IZktPhSzdp5LJt8jKMh36rWIgihA9nlP3ktbs0cvk2ix9jezswPrp1imQPZlSNh4HktBi/yOi5WZLGpw5Cp9K0PmfExGPEki309svkQH2koRai17/Exx2GXCqMX7OLdp8JsmuJK1StetYqKSdEKg+OICAD528wOwnCdfU8xEPbxqHtuCWUME0mOrH9X/GhTywm+MYG65tmjaf1MwJQVfmRbzFidrA8n8VgvnB4Nzq8abnMp/7hI91A6BKHCx9eJQmCESjPvSL7BLNxgI7zoFXHtbyI2LJxcKT+KK96hyGUq1x1RI3CvtXzaUlAb6M0nET2jUHNh/0jJkxBK5Yq05XjB2hix7ryNCRjhCoHR3uIA/D5Zfgs+b709wL/xaN60cF1i/XJWjy0xxRUBLrNGB/0feztu4/0+OUrOaFGHpDtDsLmB6oMKqixQZ2r48r9p2j+jqPqlJqVzktFM6WQk4rOf6/U0lVk0M/l5IIAjDjHrtqpkqmtGK/ypDbowqtEazYOjvZ5LDx0qVos2BiEZ1l7jjuMEc1+n06pchSgR7euiW9SAgofIYKCSE68R7f6yYhw4zs8aOVRSYC1jF8ikBxO7FDHyBnC0LWnCJJFa+GfPi21hTY9cbh+9hilyGqwE1P368cqRRyObFpB2UpUEt/cI+KbW5NaiP6D+YFK1xMHV9df1dPeMQX53XkeYQ9xmKtTEVPt1x9NbRz+bPqTNJyetmE/bT5+QcsKAoI+/EFIAhuMmqul6yNqrLBX5dnR/NbmTfp6hDSuiMPVp1eo07p2IS3G6n1hVuLgFcGL5lRfKBs3YGtfOn4vaPC32mIrF/XEAdkCH96XxlBJMmQjf6HugLDgj650aEOQEQ4GFi+fKHTz3Em6f+0i+USLSUkyZJerE8g/pWsjKR1APG+FOpQii4GMpM1dRA6Mj+/cpNu6FY6jW1bRqd0bkV0G1eFxgvrcPH9cDMIFKaJYVUSY1qMZnTuwTcb1/77FR75p6TxUMF0yufrW9q8gTFCP/OmSUusfC0hxvTWjJdXB/964nzYduyAn2PhAItx5EiiJh69Y5SucIQWFF5KgY1dv0x+Lt8jrpv/s7cAwpoZxEwI8OZy+cY8iidUJGF1hNbGO+CiogPMxv1SRp9Cj3Hvuqlh1jET50iaRaZAgDFlokPzoP9KHL92iNEJCgRVRhCv3HktJAlYLr95/TD1nrpXpkHpMbFVdtg2rpvAG9fnzZyoi2usTyZOwktJi/EKzkofcYqLSqlx+WU7HaSvokViBDK2gJt6fPn4QEwMPMSEIJOgYe3pHpngp09K+1QtoqfAMhtBnwR6KEtNPTv7O7d9Ozx7epTRC8qCI7qhfKmqr8JA09FuyX+otv331kk7t2iBWLxPLPqbaamocjYlJg34TJXmL5h9XrO6nsps42FP/+n3GUcZCpeXjb104RTfOHqf4YgU1cfqsMm3DjDG0cdZYVT1Z9/5LD0hdaUx4r508TPeuXZCSwxRi8gESNKCGYfISkjFCe5CI2EMcWgcsEPhlk7dhgeSZ8C6TNlcRiuQbTaYFtKhkNDFT5Yf2mIJ6KOIAcnDgwnUhZUgs+w6uYfEhbcI4oi970PJ9J2nhzmNINiLYmAycEf09VXx/2T9xfeaWg7TusGHBCF6I/mhkWGRpPm4hvRTSRRWw2vn3b4aFGqx2oiwVIO3A+IGAscVDSAcsTehD0ueVXjcWEw5duEnPXr2REkqQqIW7jtKq/adVVYyO7jBGKOKAiuH3f2bvFukhMEOBUpJEvHr2lPpVy6XVG14EoQaEyfj1M0eF5OA6xRUSuoRpMsqxBQS3p3B0oLwMVmrVm6KK8QQhU+Gy8gipJDQFVFg7dbhGThRxUNduCmkbxpbkWXLLxQgs+vUsn0VKKBRxWDlhMJVp3EGqJnUvm56GCLKCfMvG9KPqHYcYqSq5uv6oN+w47B1TkN+d5xHDG1eUWgeHRP/Vk3HUW4V6RbNTBEEoI3qEl/0Z6RuOBNmw3BPShnVHDH0Y19S8wh2Jg7V5E+r+tSFb3BzUs4jhW1trQVX68PnD1xYZ7P4wSRzCiU5TM2Ntqpa+pmxQwyV16cV7Y7WgYC21I0FPHJ4/ekDwZITBAaHdxBVyhRTpA2sZJmtIzygGv7MHtmuDGNIQBq08Rp6RItPlY/tpUqd6hkTdf1v6yyqr6vDPHz+kgTXzqWRtgoCJ1Ix+rbV0FfkWH3n1LHNHHy9Pmtymhrz088jZZie+uDhHYIPV+V8nLaGnQj1g4hfDJ6jp9Ju7Xis6uVApGljP8FHo+s8qs2pL9hCHhH7RaFhDw8Rg9tbDtPbQGe0ZiJTIkkoSGJWoJiqQRLQR5AgrFQiQpkCqgoDVTag+KOIANQlIAJTnBUxygAEmDJN/rUFvBUFoPGa+vLf9T4UpZ8pEIu0j/TJhoVY+Jh7T2taSK4wLdh4NNXe3spJ2/FPEAVlP7lhPMwf8qt2FyX8UoTYHVaEiQmr2Y/Ou8tq4tjXkxEBl7DZzi5BWJKQHNy7T8MZlZHKd7n9S1uIVpDpD/2p5NPW/mp2HUY7SBkJnShxUeTja61XJ3vpDLaDj1LXyN7tz6QxaOWGQ9jglhTDVhS4v2gtpISZNWC29evKQdo+XUOXKVbY67VgyXUtTEXvHCJUfR1vEAWphXWcaiO564Ypy05wJ8nZMdnoLQhcpqq9YyDhDAS0r6YuV8dAeU1AJ1R+xyIDFhl/LF5Qk/tqDJ9RjxhrpnhgfZkgnhy4ytHNy6xqShEPy94eQEKqgFhDQH5uI/vjflwsTWlWTKkkgHiAgKpTJnobqF8spyXyzsQtUcrCjLeNoR/s8XF73rFlSPgfSUL3qJ8YJT0GUX74NIjjBKhTKCXrioFR9UKUEKTPQbxOXydrN7P8rndxpGO8xKQYBgEqQPkA1sNf8XTIJE/mdS//RX5ZxR2wccMOJ7eto1sA28l6oVHWfvVXG5w5uT0e3riY9cUiWKSeB7BzfuoYyF/2RLhzaRce3rw1GHFxdf1TQ0TElrM4j5MvQ/dOTd/0Cny6LjLozcTCtq7PPsbfZtMozZLFzT8yipWcWy2+PM58TpogDRDDNcrQgSBsQLj6+IDZ8m0Un7xurJYQUID1xMJ2MQELQePAUWXTnEgbf+abPiewbXa4iwjVW+ebdKGmmHGISdEVMggyrk/r89k4KVIc/+O9iWjiyu1aEmujcPHuCxrSpqqWrSJXfBkgbDZzDHgIrLt86KBFk/3nrpV6/Ukvac/YajVu9kxL5RaffG5bX3Lkm9o9OQxuUl9WEetMNYfikV/npU7uU1CO2NJG2hzj8XCwHlc2e1qxKkjl8VBtMJxHI+7eY2HuJ1c3ZWw8JAnJWIw5QYRokVIwU2Xn5+h01F1IDBIhcP376TPX/NNi1zOxQV5KDHacua+RAtblesewENSnYO/Sbu07e767/1O8Rq4A9y2cWUhPzRqFdpm8gv4RJ6cWTR0Ja1kQ2Bx9aBKwEFqnZlPQTb9gx+PrFNktG+i89KO8z7asy8cs/R4mDrfqjX+WtUFsOxOPaVBd1/SBX//A4EKRmwwwEYHSrKnTrgmHS2XPuDmHzEZdMvbLo62kubu8Yob/XFnHA3hflmnaSGGPlVC2MoIzSDdsJ//atJUnDNdPgDmOKIg5ztx2m1QfPUM2CWalSngzClugGjVq+nTIliUfdqheny0Ia0FtIBfQLGF2mrzKyS9JLE3+bvExTbVJlPnj2ktpNMUxsgQVWRiExxErnP5sPmMKjndsiDo72eehrj25eWZYP1UXYZoSloIgD1Ix6VcxiVPWec7ZTtNjxpCTR3AIYMmNCD0k+QhPhyQjkdvfyWbR83ACZpv/nKHGY3KWBtGdUZSi1JyU11BOHa2eOEMY5FaBNgH5tKnFQ19XR2fVHuY6OKWF5HqFwxJGJgx4Ny/HMcbJS7Ux1pddR5HortikYv3+M05wIhSnikCN+LgkGNn5DgJRhyqFJtPv6Tnn+tf/0xGF0y8pGRlLwYDJkzQn5iGH1S2jGxliBhBEjjDbVhE9fj2fCAHJwnUL6JBm3d1KgOvxEMcG8IozDVKjRcSjlLFtNqEddohFNDSvx6pq7HLtUKyYnvkv3nKDFu4+TErdD/QYrduXFxm2wNTgnjIUHCHIBWweQC1sBxo9jzNhN2EMcYFgFfeGDF8REY8V2W4/SJCJQR4Jakj4MbfAjJfaPIXUoIRJVEge1sqnUHqDi1HriYnkrJCwIdYWOP1QqpgryYSuYs7uwdc+3vq6Ig6XValUfJYlT55aOvStmpbevX2or6GunjqCt8/8yyq4+8s4kDrbq3+rPeXJBwKgiZk70K6LK+8rqv4bR9kVTzeQ2n2TvGKG/2xZxUJIaUwkmyoAhavM/DCtVXUqmNiIV+meEZlwRB6Xa+FOejFSjYBZpID1+9S6pgtSvTmnNRgHOBvrV+SK90qkgqjbM6lhPqjoNW7yZjl81uHOEATSkDgiQhMJQGobPGL8QbNkTWSMOIe3zqkw8H+MJnDPsPnNFqGfdQpJbB0UczH2rfhk+U9oY3L5wmgKErYMKGQuWJqggYdHAXDiyaSXN+71jsEuOEAeQZvzO9UH1OSVN1BMHSDjU+IUFhu7lMkhpoTni4Mr6o76OjilheR6hfz9MHPRoWI7nT1yQamaoLW2Akevas6s08+g/TlHpR3lhijigwgg+EaNQ3cw/U6kUhg9C46U/U+C7QMPFr/ivJw6DahUQO0sar+yozqe3W+i3+ABFjhZdPhV63feEnQM8uMAmAjrb5j7QyKwGKBg9h2QfB+XDXa/W8RVNd8mtWNnHCj82dglYsUN+eJVRI2wiGpfMLW0asOvxsr0nSU38odqz7/w1i3U6dvm2nCiYZlD3WzNq0lYNj4pVw01BRMy0LJzDpgITCwRzrt96CfWBdEKNQBl2K+Jw5PItGrF0q/De4ksjmlQ0svPQEwclcUH5IDLvhe6uufBA7Iq5aJdzpGrmyndGmiIO8BL2T9+WFosctv6c1CN+cveW1F02n/E/mt6nhVT/U/mXBvShvavnGWUfsOywtCVyJnGwVX8lMcHq6fUzx4zqoz/ZNGecppL0x8YLclFBr6ahz2spbu8Yob/fFnFQk7iHN68KXf5S+lsJiyCdpv0r0/pVzU2vAp8YXXeHE0Ucpq7fJ324Q9oACcHO01do4trdlCJeLBpQt6y0j+o0bSVBxx+OFvRSPn07pv9WmzwjRghmj6BUHVbsO0WQcFbOm5GqF8hi1Jf15ejjapJvzsYhpH0e0pGGJXJpdhTqeTAK/X3RZoseYlS+0Dyq3xz6y7i2BvKl6tOw/0RKn78EYTwY+nNRmQyPbD3mbJN9Bt+LF0JNF2qOn4VL4aRCXQj2fXDCMGtgW1WMdnSEOJjbAK7rjE3Shko5QjElDlXa9qfspSrL5y8Y3tUscXB1/dFYR8cUNXcx3Ug2LMwjtJcrIkwc9GiYj8eKFIv+qvS3vIhN4OafmEOvPrwynzmEqWGSOKCt3hG8aXb1BbLZ/bb0doq6kp44mOpfw93bwBVH5POG1C1CT+/fphJ1W1HpRu1lml4KgQSlm/3/TBxii+3gRwnvBtAhXiDIQYPiOWnu9iNUp3A2mrfjCP0otprHSh50k6GjrGwCrHk8kGBb+KeIg1JTMJcNhtfwcKSkAuby6NPUiiQMsmGYrQ+wlYDNBIyyZm4+qEkc7CUOcK/4T/s6skh4cLHkHk7/THeNK+Jg6YOu6q0m+7uWzqQVEwaqZItHeEeCFyC9Pr7KrK26OWHnaHvrjxV5rMw7QtjVZN5cG1RbzB1dQRyUHQZUxZRBtnp2GmEg3WTIFKmG5a6bxTlKHJQXFbTRnE60srEavGCjdJKgsCgnxiYYZCppoSIDS4TkdImQoFoLKq854vC1fR73Z0wSl0pnS0OwfYCU+4BYdAiwQ3pqrc6uvKaIw8Mbgqw2Niar8K4Go2S9ym2bsYspUdrMcu+V3pWyGUm+lIqOpXHG1cTBFCfYJ5lKHFxdf9TB0THl/404jGxSieIKt8szxHd5vc5oukC6ZNTqx/x2eVWyNo/Q/w7smXfo87s6nidhXupcwKDWXmdhdXr36Z3THxlmiQOQCCg3jhL6JnKJO9bNwmhwnTAeVAF+nmt1M9gJKBuH1gHzpXcXc3YMypDQEnFQK5eWBkD13JB2eIiA4V8eAUZcemNVVfa3OM4QE2MY8F0XxCBBrOhUXxgJY7IMY2JMupXhMOoCF4UjmxqMMttPWU73xUq7I6FU1tRyVU5vU2B6f61CWali7gzSGLnp2Pn0WaxoWQtKvWqN0KeeI/SqVYBP6entasu2QXKxQUgwHJU4oCyFD4iH3iuEeo6zjt7e3jRp0iStuJEjR9KJE9YnQFpmOyL2Trw7Tf2XYicR7i5NVBMsPUL1o4uH99Dkrg20bNgPBauSCM6UONjqjxVa9KBC1RpJaUiPHzMZTWpkZcz8UwTgzqWzNKpFRTM5zCfZO0bo71YTCkv7OBSu1oTKt+gm6436K880KAOrqXkr1pFpUMMwDe4wpjhKHPQrlHC2oN+nRb/632rCYumpSLUZe7JM++JBCaTCknGyyq8/WiMOyOesPo/NLjFpeff+IzUabSyN09fH3rirxghFHJR6j74+ahNHfb9TiwWmdgxYQBgo3LTCJkqfX1+eklDOGtBW7r2kv6biyqtSSCQOqgx1NEccXF1/PNvRMSWszyMU3vr+bG4hQOWDIxXYGJqqNbevJJyRCA9o1hYn7ZlHqOfg6Gh+/b2uiCt3rJefXKIu6ztYfURI+3yYJg5BO0c7fx8HuGcbLLwqQc8akgh4W4AhlF7EX7fHKMpSrLw0kOxeNoM2iShYuQFVbN1LvjBLxEH5gYYruoG18kljRXNvOKQdXk24UKar9nEwV1/TNNWBka5sGbpWK06Zk8aTWbGpG7wkqQAJBSQVIBp9xYdev4ESpBOwi1gkVv2UdyN1H47YoK1v7dIyyXSSoPJhA6mxwr0qVupgkDzp3z3qkjRSrlM4u3TPqBKVX3d8nNtNXUaBr97KS1XEB7ua+HBDlN564hI56QgJcWhaKg8Vy5xSEpmuM1ZpBpp4CPaNKJE5ldiY7qF056rqFJJj1KhRafp0g+Eu7h89ejTt2LEjJEWZvcde4qCMlVHI3CEdCO6H9SFHqSrk7RNV85jyY7Ou0mAaLhiHNyqt2Rap/oN7vyVxiBrDj3ot2CUnL8e2rKY5QwwSR9WGxOmyUtai5Y32eylQuT5Vam3Y2wEbU+1ZOVtlp5hiM8eCVRuZNfRUbbQ1RmiFiYgt4gDf730X75O//0PrlxLULRDQLoxx8IcPV5Z/da4v0/X/3GFMcZQ4oP4wLIaBMcYUuEHGYsEPIr2vsH2ADQRcm4I4mAY1dmGsweKH6Vhlml+d2yIOjvZ5GGTDXuqAsO3SL3O0FK6YC6ZPZtPLk6qXraOrxghFHPB8vdQNdgD1+46T1dLb8CmHCHDn/Gdzg7MMZFLSPsQtEYeBK46KfWJ8hBv1nTS1e2NkDRZcTRxcXX80yNExJazPI9RLtJc4qH1VYB8IOyWoKmIxYHyLasKhSQSrxMGeeYSqD46O5tff64q4Ig727Bwd0j4fponD76VGSKtxWItvubLpq9+BXlUJhWFFApNu/0TJpA92pE3t3kTu7YB4sky5qOUX7zjwrnLn4lnhCz26dCmJ6wiWiIN+AoXJZ+DDe0KH85PY8XU2bV88zXCz+B/WOzwMF2HAiKBW5vVG0ErNR2YQ/5KK3ZOxQQsm9pisX7z7kLBzND6esBlAaD5W+Fe34H5wXMuq2kZqGDTei48+pAGrD5yW9+Kf8pqCOPLAJgJGi0n9Y0p9Z/1KBryywEUs7B0wgcCeD9F9vKVRNO7fJQwUJ6zZjWiIJA6YkGAfBzwfvwPU5bEwxowdzUd4nYohn2tO5UE+0IF/IR0g7H2EvcQB5ek3TYTzgMd3bogN0qJL3WJMXNUmS8gLN6GDVh2T/tvhben2xdMUzS8uRY3lj8symBKHxgMnU8z4ieQ178hRtT0jsLuzCptmjzciLY7UX7lCRFnYORb61xEiRhTeXxJKjy/6zaDU85TuNM6xHwt20Y0q3EtiV9yXTx8HUxtCPnvHCORVwRZxQL4G/cZLt5KIP713m148fSRdTWP/DfwGh9YrKlUxcV0fwipxwA7Tnb/sDYP+flHsEA8VJvRjBPiOx4ZupgGTckzOVZguJIsbxVhiGkA+sOCgAlY6MV7A/uDx89cy+anYf0FthOlon1f1wHh4VZCfF6INyeLGpJhRIsuyTTeUVPVw9OiqMUJPHFAnSOg/fnhPcZOlluM89mkY1qCEVl0YRReoYiCu6F9QC/RLmEz2LZXJEnFo0G+C+G2XlNkwXmDHafymZw1oozk7cTVxcHX9FQaOjClhfR6h2mwvcUgndojvVcugFgetBqgdJRZeHGHPhGBN4oDr9swjkE8FR/Or+1xxLJOynPQ+eu7hWeq5ybAwZOk5Ie3zYZo4dMjXmWA9vuPaNhq9909L2NidricO2AE2T/kgjzfwwLA0oC/tWzPfqLzSDdpR8XotxQBocCmJi5gMwQc1fLdjkjCodgGje9RJyXq/itXGhhopQbqptwjV4QfWyEfPnzxUt1LVdgNl/cx5qkAmJcpE3JanGORxVVDGiihfTfi9PCLQ30LNBwGGfSeu3ZFx9Q8koXOVYuQvJs/6gA/AeeGaFP7ZzUkckBceUbAqmSR2TPnxRho2VcPkWx+g69hM+HvHR1wfsCFc3znr9EmStEBVAWXrAwjJDDGZUKuAihDB08nIZVvlzpUwssTGbGqDPNhMiDmF9KqkysJKSJuKBaUHKpWmjtgEb9yqXdIGRKWF5FigQAFq396wOg4cmzdvTk+ePAlJUWbvaTtW7BydNpP0cT57cDuzeVQi+krV9gOlYaGpJzJI+jCp13sfgtHur2MWyZVEVQZWI6PGEBvsCccEqyYOMdoHQXk+UXnNHU2dEjhSf5QHFYXKbftJYqMvHwsIMLA2NdzE2FKn+0jKVMRAitU9eBdHN8NDTCeVZHS0Z4zQ36CIgzLu1F/Tx2t3GyF3wtWnweAbCyPXTgep5Omvu8OYolQNFJmukCs91RY2U0p6qFwgw15Iv/MzNmjDng/63d8xofhLSBxB/s2F8OHCSbVKkAC8p0aj5xtJQNU9amKvzs0dTdWJHOnz2Kyuc5Wi2maSqnzUaeuJSzR1wz6V9FVHV40RijjgOwTXpN5Romr1hAR/TOsqUrKvJYqIXrqg0iFFiOTja3WcgTpT1XaD5AaNWHRQYXqvX+jMvi3yVEk6rBF85VWp/9JDkrCsHD+Idi4zeBxTZeKYs0w1qtFpaLANJl1Zf/V8R8aUsD6PUG3Wzx30C3zquv7YvExeuZin0rBX0vTN++VigC3iYO88QpXtaH51nyuOnQt0ozwJ89G2q1to7L4Aq48IaZ8P08RBbwQC16yPXz+i4TuH0r2X96yCZeminjj0EjtTfhYflgz5itNL4V0EG7lZ8k2PTZwgfYCKxZl9W+nNy0BLj+B0BxDAIIGVwUhi92XYO9wRkwF87J0ZYvhEoqTiGW+FVOO62DfCkiQDz/SN7EUp4voJdaU3YvfnJ6Iun51ZFUF0wgkpQzRBmKJIsnH70TN6++GjU57RtavwAJIrlyzr0KFDNHToUKeU+7WFxEueVu438vLZY7op9j2A5M1SAIGAKtD5gzuCeTyzdI+r0+FBBbvBgzCAzGBHaGsBpAmumxOmykBP7t2Sk/R3wgtbaATssI1xC/YiUE9Cfb73ADsq2FaBWLiDMwJH+jzGn/hC6hpFqGxiMeKmGB/0qpxf++5cNUYo4qD2MYmTJJXYBTqTsL3babUf+/rFoeSZcstNH88f2mFRnfdr2+2q+79V/d1pTHEVliEtFxN6LCbcfvxM2lWGtBx3vw+2vu3ydaSYwqNSFOF1FGHYzsF04NZ+q1UPaZ8P08QBiJRMUZqKJytJMbxjUOSIPtRjQ2e6HnjdKliWLpoSh9D6oFuqH6czAiFFYNq0aRQtWjS5ctq4cWN6/vx5SIvi+xgBRuA7RMBVY4QpcfgOoeMmMQKhikDyGCloQPEh9Or9S3ry5gmtu7hWShxsVSqkfT7MEwdbwDhynYmDI2hx3rCCgKenJ82dO1dWd8+ePQSPShwYAUaAEVAIuHKMYOKgUOYjI+A+CHxNn2fioHuPTBx0YHD0u0EgfPjwVKZMGdmerVu30uvXoaMa890Ayg1hBL4zBFw5RjBx+M5+LNyc7wKBr+nzTBxMfgLQ+UW4csL6rsImt/EpI8AIMAKMACPACJggABuaGMLt8JO7N8166zLJzqeMACPg5ggwcXDzF8TVYwQYAUaAEWAEGAFGgBFgBNwBASYO7vAWuA6MACPACDACjAAjwAgwAoyAmyPAxMHNXxBXjxFgBBgBRoARYAQYAUaAEXAHBJxGHLy9jTfHcmbjhgwdrBXXo3tPLc4RRoARYAQYAUaAEWAEGAFGgBH4Nggwcfg2OPNTGAFGgBFgBBgBRoARYAQYgTCNABOHMP36uPKMACPACDACjAAjwAgwAozAt0HAJcThzZs3Tq39qIA/tfLat+ugxTnCCDACjAAjwAgwAowAI8AIMALfBgEmDt8GZ34KI8AIMAKMACPACDACjAAjEKYRcDpxSBA7AtWv6GMEyqgZD+hJ4CejNEdOWOLgCFqclxFgBBgBRoARYAQYAUaAEXA+Ak4nDuUK+tDQDn5GNa3d6RodPvXaKM2REyYOjqDFeRkBRoARYAQYAUaAEWAEGAHnI+B04hAtSjjKkS6CrOnwrvEp3A9ETByc/+K4REaAEWAEGAFGgBFgBBgBRuBbIuB04oDKK+PoM6vTUoQIPzBx+JZvlJ/FCDACjAAjwAgwAowAI8AIuAABJg4uAJWLZAQYAUaAEWAEGAFGgBFgBL43BNyGOKRJk0ZIJwwqTjdu3KDnz59rWLONgwYFRxgBRoARYAQYAUaAEWAEGIFQQcBtiMPixYvphx+EQYQIy5Yto9mzZ2uAMHHQoOAII8AIMAKMACPACDACjAAjECoIMHEIFdj5oYwAI8AIMAKMACPACDACjEDYQoCJQ9h6X1xbRoARYAQYAUaAEWAEGAFGIFQQcBviMGjQIPLy8pIgQG1p3759GiCsqqRBwRFGgBFgBBgBRoARYAQYAUYgVBBwG+JgrfVMHKyhw9cYAUaAEWAEGAFGgBFgBBgB1yPAxMH1GPMTGAFGgBFgBBgBRoARYAQYgTCPABOHMP8KuQGMACPACDACjAAjwAgwAoyA6xFwG+IwYsQI8vPzky3evHkzzZw5U2s9qyppUHCEEWAEGAFGgBFgBBgBRoARCBUE3IY4zJkzRzOOPnDgAA0bNkwDhImDBgVHGAFGgBFgBBgBRoARYAQYgVBBgIlDqMDOD2UEGAFGgBFgBBgBRoARYATCFgJuQRw8PDxo3rx52s7RkyZNoo0bN2pIssRBg4IjjAAjwAgwAowAI8AIMAKMQKgg4HTiUDp/ZPqjk79RY2p3ukaHT702StOfFC5cmNq2bSuTAgMDqXHjxvrLxMTBCA4+YQQYAUaAEWAEGAFGgBFgBL45Ak4nDlnSetGAX2MaNaRZnxt07dZ7ozT9Sffu3SlHjhwyKSAggHbu3Km/zMTBCA0+YQQYAUaAEWAEGAFGgBFgBL49Ak4nDmjCmzdvHGrJ4MGDKXHixHT//n3q2LFjsHtZ4hAMEk5gBBgBRoARYAQYAUaAEWAEvikCbkEcbLWYiYMthPg6I8AIMAKMACPACDACjAAj4FoEmDi4Fl8unRFgBBgBRoARYAQYAUaAEfguEHAJcXA2MkOGDtaK7NG9pxbnCCPACDACjAAjwAgwAowAI8AIfBsEmDh8G5z5KYwAI8AIMAKMACPACDACjECYRoCJQ5h+fVx5RoARYAQYAUaAEWAEGAFG4Nsg4DTi8G2qy09hBBgBRoARYAQYAUaAEWAEGIHQQICJQ2igzs9kBBgBRoARYAQYAUaAEWAEwhgCTBzC2Avj6jICjAAjwAgwAowAI8AIMAKhgQATh9BAnZ/JCDACjAAjwAgwAowAI8AIhDEEmDiEsRfG1WUEGAFGgBFgBBgBRoARYARCA4H/AQAA//93rn7bAABAAElEQVTsnQd4FUUXhr/0RnpCQgKE3nvvRXrvCCggTVCRIiC9KL1JUZQOAgIKIh1Eyg/SQXrvHUJ6T0hC/jlz2ctucnOTQBKInnke707f2ffe4Hw7c86Y+Pj4JIADE2ACTIAJMAEmwASYABNgAkzACAETFg5G6HARE2ACTIAJMAEmwASYABNgApIACwf+ITABJsAEmAATYAJMgAkwASaQIgEWDiki4gpMgAkwASbABJgAE2ACTIAJsHDg3wATYAJMgAkwASbABJgAE2ACKRJg4ZAiIq7ABJgAE2ACTIAJMAEmwASYAAsH/g0wASbABJgAE2ACTIAJMAEmkCIBFg4pIuIKTIAJMAEmwASYABNgAkyACbBw4N8AE2ACTIAJMAEmwASYABNgAikSYOGQIiKuwASYABNgAkyACTABJsAEmAALB/4NMAEmwASYABNgAkyACTABJpAiARYOKSLiCkyACTABJsAEmAATYAJMgAmwcODfABNgAkyACTABJsAEmAATYAIpEmDhkCIirsAEmAATYAJMgAkwASbABJgACwf+DTABJsAEmAATYAJMgAkwASaQIgEWDiki4gpMgAkwASbABJgAE2ACTIAJsHDg3wATYAJMgAkwASbABJgAE2ACKRJg4ZAiIq7ABJgAE2ACTIAJMAEmwASYAAsH/g0wASbABJgAE2ACTIAJMAEmkCIBFg4pIuIKTIAJMAEmwASYABNgAkyACbBw4N8AE2ACTIAJMAEmwASYABNgAikSYOGQIiKuwASYABNgAkyACTABJsAEmAALB/4NMAEmwASYABNgAkyACTABJpAiARYOKSLiCkyACTABJsAEmAATYAJMgAmwcODfABNgAkyACTABJsAEmAATYAIpEmDhkCIirsAEmAATYAJMgAkwASbABJgACwf+DTABJsAEmAATYAJMgAkwASaQIgEWDiki4gpMgAkwASbABJgAE2ACTIAJsHDg3wATYAJMgAkwASbABJgAE2ACKRJg4ZAiIq7ABJgAE2ACTIAJMAEmwASYAAsH/g0kITC0Z3aZN2v58yRliTNMYIJyXuVR2K0InG1ccC/4LnZc35a4GqeZABNgAkyACTABJsAEsjgBFg4Z9AW6Fy8Ej9JF4XflJnzPXXnju3hVKAXPcsU17e8fPIGA63c0eemV6NzUGd8MyIHHz2NRt9vNFLsdWWssKnhX1Ne7/PwSxu0bpU9zhAkwASbABJgAE2ACTODfQeCdCYcGs8fAwsZKUjw89SeEPnyiIVq0fVPk/aAqwp48x9+TvteUpSZRpE0j5GtQQ1a9tfsgbmzdq29mYmqKBrNHw9zKUubtGTIJcVEx+vL0iJT7tDPy1K2KxyfP4cSc5W/cZaUvP0HOauU07a9u3Imrv+/W5KVX4uRvheHkYIZR3z3Bxj3BRrvNZmmPn9v9Iuv8dPIHnHx0HBEvIhCfEG+0HRcyASbABJgAE2ACTIAJZD0CGSIcLCws0LlzZxQrVgxeXl4wFRP158+fY/369Th58qSk1GbtPJiYmMi43+UbQhz8oKFXaWAP5KxSFi/CI7C9z0hNWWoSFft3Q67qFWTVmNAw7Og7Wt/Mq1JpVBncS5+m/uk+6RnSSzhYOdrDxtlRDq3il91h7+WBjBIOrT5wxMyvvREV/RKlW19LEQdtT5rSYAai46Lx0YaOKdbnCkyACTABJsAEmAATYAJZl0C6C4ecOXNiypQpsLOzk1Ti43Vvn83MzGR627ZtWLlyJdTCgQr+HPgNIp4HyDr0kZ7Cgfr7a+hkhD32pShqjPoC2UsWlnH6eJ+Fg36QIlJ30hA45/fJMOFwZF0huDubY8WmAExdrGOlvn/ieInsJfFNvckIiPTHp1t6Ji7mNBNgAkyACTABJsAEmMC/iEC6CgcSDXPnzpUrCXfu3MH333+PBw8eSFyNGjVCnz59ZHzAgAGoPGu4fsWBMp+evohjs5fIcvowJhzMbayl/YBDTk/4X70N/2u3YO3oAAtbG0T4BSA+5gWUFYfo4FBYOzngzl+HcW75bzAVAqbVz7PxIiICVg728n6GhIO9twfciuQXdbIh+O4j+F+/nex2JhMzU7gVzg+3ogXE1ipfPBM2DaW6tjG4Vckhl1iBEfWD7z8GEhL0z2uZzRa2bi6ICQ1HVKDhLUJpEQ40btdC+eCUNyfCn/mBVnWiAkP090sc8fGyxF/LC8jsMm2uITLqZeIqSdKKcPCP9EPfLa9XcJJU5AwmwASYABNgAkyACTCBLE8gXYXDzJkzkS9fPhw7dgyzZs1KAqdfv35o0KAB/vzzT/jVKS6Fw5OT50Fbhyjs/GwMaKJPITnh4Fo4H2qO+RKm5roVDKob6R8oBYG12NLzz09rcP/QSb1wIBuDHOVKCjERg229RyB3jYqo8EVX3Np5AAWa1qXmmhUHM0sLVPmqtxQmsvDVx8u4eJyYt1wKHHU+iRKa0Nu4OuuzE+JfIvD2fTFxz5vExqHtuvmyHm2doi1USijWsTmKtGmIgBt3cXD8HCVbc02tcCj+YXMUbt1Q05YS1zbtxpUNO5PkU0bHxs6YNCgHYuMSULz5VYN1EmeWy1EBo+uMAwuHxGQ4zQSYABNgAkyACTCBfx+BdBMOBQsWxLRp0xAbGyvtGxLE23Rvb2/07dtXXv39/XH06FF069YN165dw+m82aRwICPfHMJrkFPeXHjw9ymc/nG1pGxIONBKQ4sl00Bv+Mkm4d6B47B1d5G2EMpXk1g4PDp+FiQGcpQrgX0jpqNMjw4g8fHnoG/RaO442Uy94lB1aB/kKF9S5lPbqIAg2b8iDPZ8NQnhT1+7KW04ZyyyebqDhMW9/UfF2MyQp04VOUbqJLFxdEYLhzI9O+qNwn0vXEPgjTtwypdbPj+N59zyDWL15W+KasKUwV5o38gJfoFxqN7lhqYsucQnZXuhRZFWuB9yH1/t/DK5apzPBJgAE2ACTIAJMAEm8C8gkG7CYciQIahWrRq2bNmCVatWgYTE1KlTNduRFF60femQh6leODy/eA21JwwSO3cSsF2sCsRGRhlccaDtP7RKQFuRdojVibioaNll0XZNULR9Exk3JBzu/+84qo/4DA+PnBYeisojOigUu74YC2USrwgHGxcnNFnwrezn7NJfcXffERmn7U2N5k+AjYsjnl+8jsNTFsh82ppUa9wAGSdREkLbj0QgYULPQyEzhQOJqEbzxkuul9dvw/Utf8kx0IeyChEvhN2WbkP0+Upk0/f5UKKgNc5djULHwXeV7GSvntk8Ma3RbNgLz0p0bsPyM6+3mSXbiAuYABNgAkyACTABJsAEsiyBdBMOyjalwYMHS7uGn376CdmzZ8fDhw+lrQNtYerRowesrKxkuVo4kJcgcs9q75Udt/88hPMrNxoUDkodxV5BoW4m3Kq2XDFTTpgNCYeT81cKu4ZZMBPenijQhJom1omFA7lPJW9IcnLdfajGBiF/49oo3b0d4qJjsLXHMNkPpSmfbAj2DJ4o85SPJj98I7cvZaZwIPFEIooE2L6vp+GlMExXPFdZ2FqjzkSdYFAbiivjVQyjtx0IwZDpOgGklKmvC1osgrtddpiZmCEyNhL/u7sfv5xfJT0rqetxnAkwASbABJgAE2ACTODfRSDdhMOyZcvg5OSEDh064OXLl9i4caOctJJYCA3V2S189NFHaNu2rUHh4FmmGKoN7weyD9ja62uU7/dREnesLZZNlwbQZxavE9uUjmm+CaXMoHCYtwKVB/eEd6Uyss3uL8cLu4igJMKhRJdWKNSinkEhQN6MyMaAwqYuA6WooPHSuJ/+Iwy7Z2nfuFcf+Tk8ShXJ1BUHcjGr2IvIgSbzcXrBajw4fEpTunNxfhTIbYXj5yPQbfh9TZk6Mbr2eOR3KQBHa52LWDq7YcGJ7xH+4rW9hro+x5kAE2ACTIAJMAEmwAT+HQTSTTjQGQ10XkPHjh3h6uqKxYsXI0J4LiKbBiWQzcP8+fMNCgeqo7ylv755D+yE3UDicxxar54jjaKPz1kGMqpWh2aLpkgPSMkJB7ei+VF1SB+ECpesivFx4hUHMpom4+kgYdh8YMxsdfewy+4qtwFR5rZew+V2KsVYmSbhNBlXh0oDxMFtVctlqnBQxkOemWj7V3Lh5vb9CL73SFM8b1RONKnlgMe+4sTo7jc1ZYYSxYUr1hG1RsPWwhZ7bu3GolM/GqrGeUyACTABJsAEmAATYAL/EgLpJhyWL18OR0dHueJAW2VoxYGuH3/8MaKjdbYIbdq0kenENg60VYkCHdhGblRpq5DvuavwqlhKcwBcs0WTpQvV8z//jtviNGh1aLVSbEUSW5aSEw7quko8sXBQ7ADoPAk6V0IdFLsFeqY/aMVBBPK+RGMk96tHpy9UVxeen/rDvXihZIUD2Vio3aMqxuCp86q0S5wcvUtzP0oop0wb6yNJo1cZvdq5YngfD0TFiMPfWiUvOtTte5TrjeaFW+Je8F0M2aVjoi7nOBNgAkyACTABJsAEmMC/h0C6CQfFxmHo0KG4e/culK1L58+fx5w5c+Dp6YlRo0bBwcEh2RUHwqqsHJCXInK5qj45uu7koXAWHoLUBsrUxs7DTe8h6W2Eg0+tSij/2cdyu9SWT4ZIT0nUPwXFADsuStg49NTZOChbm6KDQrDz87G6iq8+my+ZCstsdkmEg7JqcmrBKjw8fFrfRnluY5N+MvD2KF00yZkXSieFWtZHic4t5XkTtN1LfU6EUie5a6nCNtg4L68sLtT4SnLVNPmlPctiXN1v2B2rhgonmAATYAJMgAkwASbw7ySQbsJh4MCBqFWrFn7//XesXbsW5cuXl0KBsNFbesVIl9LJrThQWb4GNUAuRZWgFg45q5WTb9WpvyNTf5QCQnQsPRjRmQkU3kY40AFyzZcKd6+izxvb9uHS2i2yTxIAjedPgLmNFR4dOwMytqZg7+UhjLpHy/ixmYvx9MwlGc9VQ6ycfKHbopXYOFpZNaG61IaCo4836k0bLuPGhEPJj9ugYLO6Uhj8NXSSZsWCGtM4my2cLF3B3tr1P1xYtUn2qXzQ4XNeFUrg2h97lCz91dQEOL+lKKwsTTB+/lOs2xmkL0suwgfAJUeG85kAE2ACTIAJMAEm8O8jkG7CoWTJkpgwYYI8x6Fr167yWqpUKdChby4uLggPD5euWps1a4aLFy/iSfVCcoJO5zgoW5UkXjFpb7lshpykU1otHCitnJtAcdrqQ96CzK2tKCnD2wgH6qBs7w+Rt1512VfowyeIDAiGu3C7StugSLDsEisLyiF1VKnW+IHyhGkqC7h2GybCzoO2NSkhsXAo1a0tCjSpI4tjIyIR9tQPzvlz64WVMeFg5WiPpj9N0telMybovqe+/1keHEedknE3rYRQoHGSvYap8CblkDOHdCdL96SD8AyF4b090Ku9K576xaJ215TtHAq7FcGUBjMQJgyjP/n9I0Ndch4TYAJMgAkwASbABJjAv4RAugkH4kEHwNH5DSdOnMCMGTOMImqzdt4r4SD262/U7tdXttxQB2Tou6PvKH1f5FK1ypDeyF6isHyzTluHbmzbK1cq6OToE8KD0mNxcJti6EyHuJ0UeYaCYuOgGDsrdZQ3+0qarjSOw5N/QMiDJ+psuZ2qxqgvQGc6KIHqBt68Kw+Se3ziHE7MXa4USUFU59shYiLvqc8Le+KLZ2evyNWEgOt3cHDCXH1Z4giJkkpfdoe1OHNCWcUhj07k2UkJXhVKyedXCyoqo/Mv7okzLcjdraFgbm6C85uLwEJcPxRnOZwVZzoYC662bljcSvdsfbf0kluWjNXnMibABJgAE2ACTIAJMIGsSyBdhYObmxsWLlwoJ7SPHj3C6NGj5UpDRuGhk6SVQ+BarZotz2nYO2wqQh89fetb0unUTnlywUaIkcBb9zSrDIY6t8xmK1Ya8iPs8TPpztVQHXUebXOi/wLEyc4kNDIi0AqFi3AjS+5x6bTrCF//FG8zoX8OdGnuLEUDiQdjwQQm+LHlYmS385DVnoQ9xqlHJ7Dq3EpjzbiMCTABJsAEmAATYAJMIAsSSFfhQM+fP39+jBs3DtmyZZPbaMgl69OnTxEYGIiYmBjpsvWHH36QW5nehFe2HNl1E3OxRUcJ3lXKovLAHtKoeXP3r+RVKeNr2giQjcPmH/IJ70oJaPvlnRQbk2joXOojebaDs40LLjw7h5mHp6XYjiswASbABJgAE2ACTIAJZC0C6S4c6PHNzMxAxtIlSpSQXpSULTUKGvWhcEpeaq/1Z44SXpRcpWF0dFCoOICtqDyhmdrf2LoXl9ZtTW1XXI8JMAEmwASYABNgAkyACTCBVBLIEOGQ+N558+aFh4cHLIR9Aq06nD59Wm6fSVwvNekaoz5H9pJFklQlL0IX12xGgtiWw4EJMAEmwASYABNgAkyACTCB9CWQKcIhfYcMeUI0uTClPfwRz/wQcv+JPDQuve/D/TEBJsAEmAATYAJMgAkwASagI5AlhQN/eUyACTABJsAEmAATYAJMgAlkLgEWDpnLm+/GBJgAE2ACTIAJMAEmwASyJAEWDlnya+NBMwEmwASYABNgAkyACTCBzCWQbsKBDKDJ9erz588z9wn4bv8aArU8zP41z5IRD3LINz4juuU+mQATYAJMgAkwASaQKgIsHFKFiStlBgEWDsYps3AwzodLmQATYAJMgAkwgYwlwMIhY/ly72kgwMLBOCwWDsb5cCkTYAJMgAkwASaQsQRYOGQsX+49DQRYOBiHxcLBOB8uZQJMgAkwASbABDKWAAuHjOXLvaeBAAsH47BYOBjnw6VMgAkwASbABJhAxhJg4ZCxfLl3FQFTCxs4lWuvygFCL+9GXLifzGPhoEGTJMHCIQkSzsgiBIb2zC5HOms5O894069syCfZYWIKpIahtWcx2PqU19/q5YtIBJ/9XZ/mCBNgAkzgTQlkaeHg4pkTNdv2QIj/U/zvt6VvyoDbZRIBC0cvFBx8QHO3+6t6IOLOUZnHwkGDJkniXQuH4p1awMTEBJd/246E+JdJxpfajEIt6yObp7um+qW1W/EiPEKT964SxYrlQZUqxeHu7iiHcOzYZRw6dP5dDSfL37dzU2d8MyAHHj+PRd1uN7P887yrB/jfqoLwym6B8fOfYt3OIKPDcK87EO61P9fXIeFwbUpZfZojTIAJMIE3JZClhUO5eq3QeeQsxERFYkyL0m/KIEu0K1yxFtxz5sH1U3/D79HdLDHmxINUhEPCy3jcX9lVFkc/u4aXL3QTxg8q5YNj3081zRLi4hEf4I/YK1cRuX8/EP9uXJKaWFnBskRxJERF48WVK5oxZkrC1BR2Y8aJiTvwUjDZM3giXqpYFGhSB4Va1JNDuX/oJC6v35buw2q7br7sc2vPYYiLinnj/pv+NAnWTg6a9nu/nobQh080ee8iMWLER2hQv6Lm1idPXsXIUYs0eRmV+OKLNmjapKqm+5iYWPj5BWHHzmPYuvWIpiwzExUrFkWuXO4gHo8e6VYJU3P/k78VhpODGUZ99wQb9wSnpsl7Uccue2445yuNcN+7CL576Z2PqUMjJ0we7IWgkHhU/vC60fGY22eHpXMu0L+53u1miX9jWTgYBcaFTIAJpJoAC4dUo3q3FUeuPgCXHDlxUKysbF88/d0O5g3vrhcOcTG4OqlUkl7q1ykOh759k+QrGQnR0Qj8diISIiOVrEy7mufODaevBiPhxQsEfD080+6rv5EQDm7fzdYnTy9YjQeHT+nTTX74BjauzjL99MwlHJu5WF+WXpH0Eg602mBubSWHVXfSUJiYmeJ9EA5ubo74df03cly3bj3G0WMXER39Apcv38WlS5kj1r+Z0BM1aiT921C+wwcPfNGj51QlmanXX9aMhaenK37bsB+LFm1N1b1bfeCImV97Iyr6JUq3vpaqNu9LpWIdhqBg874IuH4Kh6d89F4M6/zmIrCxNsWwGY+xZX9IimOydM6NAgP/YuGQIimuwASYQGoJZGnhYG5pBY/c+RETGQH/J/dT+8xZst5/TTgEDB8Ber1uUbAgrCtXEm/7S8jvLfbmTYQs+DHTv8P3TTgEXL+DgxPmSg522V3RaN54PZP3XTjoByoirVfPgam52XshHOrUKYuxY7qLRa2XaNjoK/UwMy2uCIewsEh07SZWZqwt0aRJFTRpXBnZs+uE4br1e7F06fZMG5NyozcRDkfWFYK7szlWbArA1MW+SldZ4vo+Cocx/TzRrbUL/ILiUL3zjRQ5snBIERFXYAJMII0EsqRwyFmopDASE3s2XoUXYquS7/1bSlJ/zVWkFGzsHOTWnmotP0ZY4HMc274etg6OqNq8s9zqcWTLakSEvN4vWqBMVdn3zTNHkbtIaZSu0wyRocG4cGiX0S1CNKbCFWrC3tkVD65dwNUT/0NUuOE3QnaOzvAuUBzhwQF4cvsqrG2zoUKjtkIEFcT9q2dxes8m+QzuOfPC2cNbxjsNnwl7FzdcPrIXR7f+on9G3we3EOL3TJ9WInmKl0eh8tXh5J4DYUH+eHj9Ai4f3YeEBMN70x1c3OEuRBiFF9GReCieIb1DWlYc/AcN1tzeefQomLm7IyE2DgHDhmnKKGHq4ACL/Plh5pEd8X5+iL11Gy9DkvI3c3GBia2NqOOPhBjVdhszM5jn8JT9x/u+muCIt/zmuXLJe5l7eyFbx45yq1Tw/O9f319sF4p79Oh1WolRW29vWOTLCxNLS8TevYvYO+Kt9UvD/M08PUHboeKfPBFjiAWlrUqVEmOMRsz5C3gZGqpfcYgODoWVoz22dh+KeFG3VNc2KNC0LiiftgAZEg70ht+1cD6x9SIXYkIjxFvUOwh99FQZbZKrjYsTPEoXlfd5dvYyQu4/hqEVBzMLC9h7eyAuOgbhz7TbV2zdnGGZzQ4RzwMQGxmV5B6UkRbhYOfhBrci+WHr7iq2jjyE35WbYstUtMF+U5tpY2OF4sXzyup165ZF40aVERkZg2++XaHv4tGj53j2LFCfpoip+H7Lly+MMmUKSLuP8+dv4Z9/riNObCMzFBwd7VCwYC4EB4eBVjNsba3RuHEl+Ph4ihWNe9iz56RspgiHkJAItG03Wt8VjXPb1mnyXsmtOhQunAsVKhSBs5M9rl1/gBMnroAESHIhNfVz5nSXqwzUx4jhH8HZ2R5HjlzE1m2vt0zdv/9MbKVKugXJx8sSfy0vIG9fps01REYZ/u1TBRNTMzjlLYGEuDgE378sXxq4F6kMt6KVEeH3CI9P7ED8C+13be3kLn7TFWHvlR/hT+/B//pJRAclFSe2buLv0M4REb73xe9Uty2S7mlqZg77nIXwMjYGYU9uUxYsbOyRzSufjOdr9AlyVm6GsMc3cXbZKJlHHy/Cg2Vf+oxXETNLa7jkLwOXgmXF7z0c/tdOiL+x5Cf3VN+zdF3x9yP+3RUvSSL9HsP3wkHx9xmQuGt9OputKc5sKiLT9XrcwsOnL/RlhiIsHAxR4TwmwATehkCWEw5WNraYtO285pmTs3GgelSfJssm5I5ChODnT5FNTO7NLSxlOiosBOPaVJBxU/E/r+l7dMvpt88eR/6yVWS+8nHkj1XYvGCikpRX6r/vzNUgkaIOtP9845wxOLV7ozpbxht2G4AG3b5EaIAfLhzchRptu2nq0KR9fv92GPTjZngXKq4pS5w4u28b1k7Vvh0dvGgbvPLr/ueirk8rM2NallFn6eMfDpsuxQtlxMfFYkTjYvqy9Iq8jXCwa94MNvXry6H4fzVEMwG3bdwIto0bJxlm1N59iNiufTOrCJDw3zYg+qjOKJsakkBwGvKVRpiYOjnBZcLrN/lJbkAZCQnwH6zlTwLHsf8XMHV01DQhIRPy/Q+I9/fX5FPCdbqYFArhELZiJew6tIdptmyaOkFTp8F55AiZd3PHARRsVhdnFq/DvQPH0GzRZFja2eHRibPIVa18EuHgUaYYqg7pI9/sqzuliTdtaaJJvzoUbP4BSn7UWp2FJ6cuwKui7jeutnHwKFUE1Ud+LoXBtl7aLVwfTBkmJoO5cEUYU1/7Y4+mPyWRGuFAoqfKV72RvWRhpZm8kq3H8e+WgoTNmwZllcFY+8Q2DjTZnzd3AOztbTXNwsOjMGToD1IYaApEonv3xujWtTECAkJx8NA5tG1TS1Plupjof/7Fd0hOOFBl5Y1/qBB+bdpqRcXsWV+gcOHcmj5p5WTO3F+xa9cJTT6JkNTWX7hwKAoWyKlpnzixb/8/mDJldeJsdGzsjEmDciA2LgHFm19NUq7OIBHQaJ5OjPw9sRNqjPpFbGEz01ehCf+OvmX16SJtvkTh1l/q00rk5vZFuLLh9ZY+yq83Yw+yeeTB+ZXjxN/LeqWqFCq1J2wS4jsG23uXlPn5G3RDiY/H6OsYioQ9uYX9I5tqinKUq48KX8wTf2MWmvznl4/g5NzPhejRCmf34tXEb3pJkvrU+Nyy0bh/aIOmH3Xi8vaisDA3wZi5T/Hb7tcvvdR1lDgLB4UEX5kAE0gvAllOOJiZm6P7hJ/kmzen7DngmbdQssbRinAgYfH09jXkKVFOcqNJ/e3zJ1CgrFhdEG96Fg7titvnjou3iK+FA1UM8fMVxsiHZLvsr97G/zpjuH5FgOp8If7HrPRLYiPY/xmKVqoDW0cnKsbcfq3w+NYVGVc+FOGgCJq42BdyfDRh9ypQTK4gzOjREFVbdEGBMjrxUrRyHVhY2yDgyUM8vnlJ6Qpn92/DpSN/6dM1236Clp+PFvPZBLlq8ODqedAKR37Rj50YU3KC4H0XDk7Dhso3+C+DgxE4QbcPnR7aukoVZOv0oXz+uPv3EXvzFszFW36LfLq3hhF//IGog4f0fNIiHGilwK5Fc9nW1Fm8PaftUoJr9OHD+v5odSBi62tDZBMxgXed+C29kgbZZEQfF5M2YQxuXbkyqIzsMwLGjNUIH+pMEQ5kQ0H3jRMrD7TyQSsk5j4+CJ79nRQ2VJcMoxvOGYug2/dx+qc1aDBrNPwu30BkQDB8alXSCAdbNxc0/n4CNRNvY0Pw8OgZWDs7SIFBec8vXhf7txdQVAZaZag+4jMZD7rzAM8vXEOO8iXgkMvrVQ0gs4UDPSvZRdBv+oEw/I70D4R3pdL6MRGPxKsd+sGmEKE36j17NpO18uTxhE9uT7lqcOToRX3Lw4cvYP/+M/r09m3TQZNvWl04fvwyXopxVataAuZiy9WLF7Fo1ny4WFjSvl1XhAM9A/2bEytWzu7ceSIm1fEokN8b/v4h6P7J5GSFA/W9e9cs2TaxkJk/b6B+1eTcuZvw8w9G5UrF4OBgJ8fct98sIWYe6ceflvotW1YXqyoFZdsqlYvBysoST58G4MbNh/r+9u37R65C6DNeRaYIQ972wqDXL1Bsq+lyI3GxJq0WDjTJNrWwQuCtc4gOfAanPMWF/Y4XtvXSvUTxqdUBZXpNlu2Dbp+H/9XjcClUHq6FdC+ALv0yGbf3/KzvPy3CwTF3UfjU7iDbuhWrIlYzCsgVhsfHX7+ACH1wDfcO/qbv36NUbVQZskSmw57ewdOTu2AlhFDuGu2k+PG9cAjHZ/fW16dI4++PwcrBVa6QPP3nL8SE+MHBpxhylK2Pq7/Pwc0dizX11Ykja8X2LxdzbPwzGKPmGHcowMJBTY7jTIAJpAeBLCcc1A+dklclRTismTQI5/+3A9/+cRo29o44uXMDNnw3Cv3n/Qaf4mWxd80C/LlyrkY4hPo/x6TONcVkRTcBGPTTFngXLAbKn9ipuhyGm5cPhq/aK+N/rpiDvb/8KOO0mjH216NyS9Tjm1cw97NW6mFDEQ6UGez7BLP7NEO0WNqmQCsjeYqXw91Lp2Va+UitjcPY9Ufg4JYdJGIWDuuqNJdXcl8b+Oz1BEJd+N4JB1pVIBuHPHlgVaminHjTeKP27hWrCDv0Q3edPElOyMnTUehi3f+8qdC+ezdYlS0rtyMFjBgpJ/yUnxbhQPWVkFobB4eePWFZqqS8b+CYMXIFg/owsTCH67RpgHiLGrljByL/0v1ulP4V4UDp0KXL8OLSa3FIKxgvw8JEe51R7JZPhqLetOGgrTsP/z6F3EIsnJi3Ap5liycRDrTSkKNCSbH9IRy7+4+XW5voHrmqV0DF/t0oKoWIMvGuP3MUHHJ6IuDGXRwcP0eW00e96SPgmFsnHjJTOPjUqYLyfbvIcSQ2oP5g6tdiUpkzyVj1g05jpEOHuujXt5XYThSOdu0Nv3Xu1Kke+vRuIXvu8+kMOfmnBAmQlStGyYn9L2v/wvLlr3+jVK4IB4o/fx6EXr2niy1R0ZSUbWi71KVLd/TCgVYVOnQcB0tLC9SvXx4tW9RA3rw5ZP1hX/+IM2d0E3Fvbzes+lk31hUrd2LNmj2yjoX4vW347Vu5KkKigcQDhbTWl41efSgrHqk1jt70fT6UKGiNc1ej0HGw2KZnJCQWDgfGtNRsB3IUk+qQ+7oXME0WnBRb4Jzktp7js/voe63w+Vx4V24qtyPt6CdeEgmRRiEtwkHfmYikysZB/BslRYC9CwJunsHhSZ30XTjnK4Va4zfK9IHRzfXbltyLVkG1Eatk/u7+VRAT9nobHAkmc7GF6UVE0m2WSscb5uZF6SI2uHgjCu0GGOfKwkGhxlcmwATSi8B/QjjM7t0Mz+7dgDL53iG8EtG5D93G/YCStRrh2LZ12DRvnEY4bF84DQc3LtNzpjf+PSfrJqbD6uvewNXt1BdNe4t95mJf7sgmwlWnyn6g0SeDUP/jL0CrCVSmDmrhMKdvS2nnoC43FFfGnpJXJUXgBD17DFq1oPunJlRq0gFkB0IhXNhELB3VKzXN0lQnLVuVDHUcc+oUwtb/Ku0MqNzE1hauU169eZw2HfHPnumbmbo4w2XcOJkOEp6Y4gN1/3POaOHgNltM0IQ4iDl5SoiDv3TjeWWPY9e6NSyLFpX2DiHz5uvHShFFOMTeuIGQH3/SlMmEWMFQvCqRcCjYtA6KdWwui+hMhc3dv0K5T7skEQ4tlk4T+7ttDW4Xarl8JszFm/MLq//ArZ0HZF9t1s6TE9kjU38UE7Nr+nF4iTf8VQbrfhOZKRzqThoC5/w+0k7iyDQdF3pjT8GzXHG5pYrsPLZ0E0LzLUNqhIPytt6QnYGyrYdsGPr2m6kZjVo4UBnVMRSUrUqGymi1Ys0ve7By5S59cefO9dG7V3O5+tG4yVC5KqMU9ujRFB9/1FCublAZhbTWV/qia1qFg2IYve1ACIZMN/y8Sv9q4XDplylixWClUqS5WgpbhSY/npJ5+0fp7A+UCrZiVaLBd/+Tyb+G1BUrU7p7ZqRwoBWKOhO3yHue/mEgQh5eFX8/psqQUH30WlgJUXF143e4sW2hzLd1zylWCffL+JGpHwtbiJP6+qmJzBmRE83qCNu9VBhIs3BIDVGuwwSYQFoI/CeEw+QutYVtwxMMW74btOVo09xxwkh6HcjguHyD1lDsBNRbleZ91gaPVFuCLKxsMGXHBcl2erf60ouT8paebBUmflhNw71guWr4dIZuufzrBoU1okIRDoZEhaYTVSK1wkFZhaGmJGT8H93HvctnsHv5bIQG+ql6zPxoWoSDNFwWE0TatkOBjKJDly1F7LXr+oFb5M0Lx4EDZDqxMTVlyom2mHCHLlqEF1d1k+CMFA4m1tb6VQH9IA1EXoaHI5C2K6mCIhwSb63SV0kkHMzFlpFmi6bIYt/zV0GT6vKffZxEOChCgLYj0bYkdaBVC0cfb9zddwRnl/4qDaGbLdQJse19RogtGpH66jYuYsL2yr4nM4UDPaOVQzb9OJKLkJiKj0mdSE6uj9QIh7W/jIOHh4u0U/j225WaroYO7Sy9HwUGhsrVAnWhIhxoi5IyiVeXK3G1cKBtT2ZChJoJd7UUqN9Bg+fj8WN/pTqGD++Chg0qSduJjh/qhLJSWK5cIcyc8blM1m8gXAkL4ZHW+kpfdE2rcNi5OD8K5LbC8fMR6Db8vrqrJHG1cNjzVR1EBRjeguNSoBxqjl0v22/pXihJPy2Xi4m7YHZ8Vm/4XjwkyzNSOOSu0RZl+0xLMo7EGY9P7sTpBYP02fVn7YOdey6Zjg5+LlbNTuPR0W3CXmefvk5ykVXTfVCltB1uPYhB009vJ1dN5rNwMIqHC5kAE3gDAv8J4TCxYzU5aR66dBc88hTAxu/G4MTOX6FM/M8f2IE1kwdpVhwmdaohTqT21SCdufemTC8Z3gM3/jmMPtNWoFCFGvB7eFe+3VdX9vApgKHLdG8GJ7QTnkFCXi9HK8IhLNAf33asqm6WbDy1woE6oJUQWu2wFDYRSqBJAwmkddPe/s2s0mdar2kRDooQINsC+25dQSKBPBKRfYByjoNVmTKw/6S7XIHwH6J7o6oek+uM6VJ4hItViujjx2VRRgoHcy8vOH09TN7nxYUL+m1K6jFRnIyjI3e9fmtMeYpwCF28WBwwd5WytCGRcKBJco1RX0gvSSd/WAXfc1eSCAc6H6HNmrmyn30jpkvPSOpOa475Eu7FC+Lp6Ys4NnuJFBEkJihs6qwTZEp9cplKhswUMlM4KMbT5NUpOS9Q9Ns+s2itPBhPGe+bXFMjHDb/MUVu/9kmvArNnbdBc5s+fVqg04f1ECUOx2veQsdRqaAIh6CgMLTvoBWNSh26KsJB7VWJbAwmT+ojXbOScbVaIEyf1k96UqID2chGQh3IiHv5shEyi7Ze0RastNZX95dW4TBvVE40qeWAx77ixOjuun871f2p42rhYEgQKHW9KzZBhf7zxHcdq7d5UMro2nzJeZhZ2mgMjDNSOChG2gnCbu7xqZ3qoWjivmf/h0fHt+nzyGajVLdx8CzzgT6PIlGBT4XDgp56L0+awleJA+IEaW9xgvSuQ6EYOMXw1lOlHQsHhQRfmQATSC8CLByEG1RDwuGHAR1x/8pZPWdrO3tM3HJGpqd8VAdBvo/R4aspqNS0g3DzmlQAFKlUB72mLJFv+b5uoH0zpggHQysV+hsmiqRFOChNc+QrjOqtu6GMcClrZWsns8luw5D7VqVNRl7fRDjQeMg+wGXyZCkCYs6cRdiqVXKYiickSihCQxa8+nCb8x1tIJfnPtD5DxScR42EWfbsiNi0CVGH/n5VE7CqUAH2H3+k8aqkLxSR1Ng4mAjXpK4zZ8hm5AVJ79ZV3VEycUU40DYl2q6UJBgQDonrGFxxEMKBBMSR6QuluFC3qT9jhDQwvr37IM7//DsshJvaFsumyyo7+o4WdhFh+uq27sLIev4EmVYLB/fihVBzTH95kjTlqwN5e7JysDe4TUqppwiDfcOnIeRB0rfMyinTl3/djuub9yjNUrw6CPe8+YV7XiXcFe5wg4VhvbGQGuGwZvVY5MjhKo2Bx41fpulOOXWaDJ0/7DReU6YIh8QTf00lkTAkHKhO6dIF8N3s/rL6/O83YsuWwzI+dGgnscpRBYYESWVhzDxl8qfy3yBacaCQ1vqy0auPtAqHXu1cMbyPB6JixOFvrV5ve1P3qcRTKxzIZSt5QqJgSGC0XHlNbhU6Oq0b/ITRNIV60/8UxvV5cXH1RNzZu1rm0Ueuaq1Qru9MjVclfaGIpMbGgdy1lv98TrJ9qPszFCeXrO7FqyNfg64gY2za5vTk9J849X1Sj1FK+/NbxCFwVqaYvsQXy34PULINXlk4GMTCmUyACbwFARYOyQiHfcLQebcweFZC+fqt0WnETJlUbBxqt++F5v1GyC1Bo5qVQtyLGKU62g74BlVbdpF5I5uW0OdT5E2Ew9cr9sA9V17pvnX1RO3bYE3nBhJ0UN6kredAHqmSs5GgMdVq31O2pnMtpnata6Cnt8t6U+FAd7WpUxtkIyBgI3D8BHmuAbkvpQk3BbIZoLMSlKB++x84brysT2V0+jOJgJiz5xD2s24rGeU79OwhjJrFuQnJnBNBZzKQZye6v1zdSOQ1h/qg4DpzphQ6EZuEN6dDuq0SuhLjnxklHJStPjd37MfFNZv1gzARQqTlypmgcxjOrdiAO3t0IkrZ2nRy/ko8OqYTytQoT92qwoais2yvFg5kME2G0xS29vxaf64Cnd/QfInOmNuYO1bFzkJxLSs7Un3UnjBInj/x/OI14f3pR1WJ8Wj79u3Ffn7deKnmH8K71po1a4w2So1woMk7TeJ9fQPR5aNvNf39vHK0NJJWXKuqC99WOFBfixYOQ4EC3tKoukVLHXNlzLTq0rTZ19Krk3LfgQM6gLwi0ZanJk11oi6t9ZW+6Ko8H7mTTbxNS11PiZcqbION88RKoQiFGl9Rsg1eUysczK3txBY93QsdMkQmg2QlOOQqjLqTdG/1/xxYXZxrotuaSQbKZKiceLtQxQE/wKt8w2Qn/cpqQrjvPez7uqFyG801m2ce8fvXCdq9w+oLW5wHmvK0JJT7kVep7X1KG2xK5lLXdhWTZe0H3sWF61EG6ymZaREONjY2WLhwodIUs2fPxgWxcsqBCTABJqAmwMIhGeEQHRGOyeLtPHk7ItuHkWsOgNy/qrcl2Tm6YPzG4+ItkQlO/7kJv87UbU+gw9SoPk3Yb509hkXDdN5rFPBvIhz6ibMi6FyJiOAg4dWpmjTIVvpTX2mb0sVDuzUnaTu6eWD0ur/lOHcunYUD6xepm8i4sm2LEu/jOQ7iS5D2A2TzoJ70O48bK12Wxj1+LF2WygPWxPfhOOBLub3ppXhrHvjKSJqezb57d+FtqQyknYEQIOKYYJBtgss3E+Q5CskJB7VICVv5M2LOnaPukgQ6JM66WlXpVSl4xgzEBwS+riP2XttUry4FTtzDh6/zRSyjhANN9mnST1ubdg/8Rrh91K0iFG3XGEXbN5Vvo3d9PlYeHkcDqjlWbF8qVlC6N/1r6GSQ4TWJi4bCLojsHCiohQMZV9Pkn8KZJetxb/9RGVf6p4Qx4VB/5kjhxSmHdC176Nv5wt99rGyvfHiKMyiqDe8nk4ZWTXKUKyFXSh4cPqU0kdeMEg4NGlSUB6HRTWjFgQ5Do0AHr9E2IAoLftyETZu0ojE9hEOxYnnw/fxBr+7xh7jHQTg5ZcPGDRPl3/aev05i+vS1stzV1QG0OkJemc6evYmhwxbI/LTWl41efdDZD7RtirZR0Xap5A67U9rQJPf8FnGIoKUJxs9/inU7g5SiJNfUCgdq2GD2AdChbiEPrgrPX22RINwdCwBi5WsdyAYiWrg2/XNAdf09KnwhvC1Vaiq9F+0ZVFNuczK3yYZGcw/D3No2WeGgrEiQrdjuLyon6+mo/oy/hIczHzkeOoNCfWYDuVwt0LSXcLEqtleJ8yIo0IF1Dt6F8Pj0bvkiQhloub4zxCpIa8QKj0o7P6+oZGuuH7UQ/8/5whMvYhNQquVV4QpYU5wkkRbhQKt0K1as0Pcxb948HErDyw99Q44wASbwryaQ5YRDz4mL4eqdW34pdCq0vavOv7vfwzv6L4rcq9L5Boo71jexcaDOYqOjhMeja8KgOp9040p5S0f2kmc7UJxC9wkLUKKG7m0UeTKiU5rJbauZuYWclE39uK7c1qSrrft8E+GgNXpOkNuN6DyKo1vWaLw/0coCbUuibVCBTx/AJpujXKkwFZPWqLBQjG9bUYzrpXo4Mv7eCwcxStsmTWDbSLBWrTpYFhP+6j/tI5+BxEDcvXvyMDfl8LWwn1cJoaF7Q0mVLAoUkIez6Rq8RKw4+4FWE9RG2IZOpqb6zmPHwMzVVddU3IsOdKNzF9QekuS2qoliIifECI2TzpaIDwqGmZs4dFDchwSQ2uZCdiY+Mko4WGazRbOFU+R2JfI+5Hf5JmycHaU9A92bJtynF7zevkHuTcnNKQVy4Rp46x7cxInT5JlJCWrhQHkNZo8WkyEPWUynRNOBcorrVso0Jhy8q5RF5YE9ZFsSKVGCFcRkaPeACTKPPhRbDIqHPnomTvJ9Jg25nXxySq9QT/8RNhqzllCxPmSUcKAbkJtTFxcH+fd9794zeSVXqfQCgU5qbt1mlH4cSiQ9hAP1Ra5XyaUqHTbXqvVI2b2yvYkStBISKOwo6NA2OvuBViI+7jpRc/J1WuvLm4iP+vUrYOQInec16pe2ZMWLf4M2i21TGzYcUKpprsN7e6BXe1c89YtF7a43NWXqRFqEg2fpOqj81WLZnE5ZDrp9ThzmVlKcmp5d5p3+cZA4aXqnvns3cQJ19ZG63zjZIgTdPS9+n0WlLQRVUh8Ap28kIuTBqfH34sWQ+LeTAnlpio0MRaAwZL4gtj0pwcmnOGp987v4/k2laAi8eVa6hM0mBIJ9jnyy2i4hBBQXq4ogIYERfO+yFDTOYvw2Ljlk3TPi0L2Hx7Yq3Wuuf68pBA83cywXW5Smia1KKQUWDikR4nImwATSSiDLCQdlYmzsQZXtOErdbztUlRP6rxZvB+37/23WSHmic8chU1GxSXuDXpWOb1+PKs076W9Dk+1Nc8fj+I71+jwl0nnELJSr30pJyiud0kwi497lfzT5lGjQ9Us07D5AHjA3qXONJOXJZTT4uD9qtvtEL2Ko3pm9WzUGz1/MXS/OpignJzHqfiJDQ7Dq2/7yoDt1vhLvOHQaKjZuJ5Np8faktE/NNaWtSvVqF4NjP91bW0M2C9KGgLYmick3uTsNW6t7u2pVurQ0oCY3qPogthKFrV2HmNOn9VlKJFvnTvpzISiPPDiFb9wI+4+St3GgenQYm12bNrAsLrYKiDHIQBOoRCdHk2igcyTI9WriEO/7HGGrVyHu0WNNEZ3RQO1CFvwoDrEzMMES99O7Y+0+JMmbeeqsfL+PxOFVlfXGzsoN7L095OTb2slByZJX2p50buVGKXDUBfSWv+rQT6XYUPKv/r4btIpAYWuPYZrTpkkk1P5GbAETJzwrgQSJg7enPDn68vptuL7lL6UoyTV/49piP3lTuXKgFGqMs8WEvFiHZuKk4AZJftdkh3Fp7VbcP3hCaSqv7dq1Q5cuXfR5m4RNyy+//KJPG4q0b18Hn/VrbfQcB2pHJ0bP+e5L/bkKSl9koDxw0DzZXslTrt26NUZ38Z8h+welDl3Hj++BWjVLy7f6bduNVhfJeJUqxYSh9KcyPmv2enEq9HEZHznyY9SvV0FTPzIyBiNHLRTnQ9zV5FMirfWVDrp2bYR2bWtrTs1O7uRoamMuTjg+v7mIPOn4Q3GWw1lxpoOhoAgH+nd26ydFDFXR5HlVaCScAXynOXmZRMHZpSPEIYc696jqBmV7T0Humu31WXHRkbjw83ijNg5UmURHiS5iVSx3ESkMKM/QydG0ikBiRvGURPUo0PMEiu1UR2f00K84uBYsh8qDFwkxrlvB09XU1X1wcIPYOmjYeL5ccVusn51HnsRduvU1seIjFHYKIS3CoUaNGhg8WGcLQ8Lw008/FZ68VCumKdyLi5kAE/hvEMhywiEjvxa1O9YxLUqLXS8JKFGtHsKFR6Tb506ItFgSTyaQ/UC+UpXg7OEttycld9BaMs3TNZuew6dYWbnSECfeiD++dRm+92+l6z3epDNFOKjb3l/ZFRH3TsqsWh6qib+6UirjdFAa2TbEifMcUjJMNhXL8uY+ucXZD76I99PthU7lbVJfTQgZ8xw5xGqDmzxHgsYk3cymvgdNzUO+yf/+NBWTSVg52sOlYB7EBIci+O4jcaC1kf7EZJ1WH6iN/5WbBoWK+jZkgO2cN5c4mMtOrmrQ6kZGBDpB2jG3t3AVGyFXH9QG3BlxP2N92tlZyy1KtNLwzz/X5WqDsfoZXUYrDKVK5ZfuYml70rNnxg1n01r/Tcc/oX8OdGnuLEUDiYf0DGRj4JCzsJzMhz25bbRrEifO+UqLFatbILuFjAi09ckpT0khgu2lvQONSW6lMnAzKwc3uW2JznmIDCCvYfR3ZlhYUfPf5uRFmaI2WLs9CBN+eGqgx9dZbrU+R/YPBuozXr6IxLUpZfVpQ5Hhw4ejUqVKsui0eOEydarORslQXc5jAkzgv0uAhYPqu08sHGKiIlWlHH1bAmY2TvBuq9sPr/Tlu2cGYvx0b9jfVjgoff5br28rHP6tXPi53m8CZOOw+Yd8wrtSAtp++XpL6fs96vdvdHQSt42VCVr3v4OYF8ZXGxyKNYRT2Q76h4iLDMSTP3Q2ePrMRJFly5YJmxknub2tZ8+eCA0NTVSDk0yACTABYVLm4+Nj/F+gVFLKK/zsR0RE4Pnz56ls8f5VY+Hwbr8TFg7G+bNwMM6HS5kAE3gzAlbCQ93aV1s/jx49Kj0qvVlP3IoJMIF/OwEWDqpvmIWDCsY7iLJwMA6dhYNxPlzKBJjAmxGgE8obN9bZMB04cEC4/OXV9jcjya2YwL+fAAuHRN8x2SlQuHNBt+8+UTEnM5AACwfjcFk4GOfDpUyACTABJsAEmEDGEmDhkLF8ufc0EGDhYBwWCwfjfLiUCTABJsAEmAATyFgCLBwyli/3ngYCLByMw2LhYJwPlzIBJsAEmAATYAIZS4CFQ8by5d7TQICFg3FYLByM8+FSJsAEmAATYAJMIGMJsHDIWL7cexoIsHAwDouFg3E+XMoEmAATYAJMgAlkLAEWDhnLl3tPAwEWDsZhsXAwzodLmQATYAJMgAkwgYwlwMIhY/ly72kgwMLBOCwWDsb5cCkTYAJMgAkwASaQsQRYOGQsX+49DQRYOBiHxcLBOB8uZQJMgAkwASbABDKWAAuHjOXLvaeBAAsH47BYOBjnw6VMgAkwASbABJhAxhJg4ZCxfLl3FQFTCxs4lWuvygFCL+9GXLifzGPhoEGTJMHCIQkSgxnmdq5wKNFUUxZ8dhNevojQ5HGCCTABJsAEmAATSBsBFg5p48W134KAhaMXCg4+oOnh/qoeiLhzVOaxcNCgSZJ418KheKcWMDExweXftiMh/mWS8aU2o1DL+sjm6a6pfmntVrwIT5+JvW3u8sjTc62m/9vfN0ZMwF1NHieYABNgAkyACTCBtBFg4ZA2Xu+sduGKteCeMw+un/obfo+y5gRIEQ4JL+Nxf2VXyTL62TX9m+APKuWDY99PNYwT4uIRH+CP2CtXEbl/PxAfrynPrISJlRUsSxRHQlQ0Xly5klm3fX0fU1PYjRknJu7AS8Fkz+CJeKliUaBJHRRqUU/Wv3/oJC6v3/a6bTrF2q6bL3va2nMY4qJi3rjXpj9NgrWTg6b93q+nIfThE03emyZMLW1h7VlUNvfptgIm5lZg4fCmNLkdE2ACTIAJMIHXBFg4vGbxXsdGrj4Alxw5cfC3pdi+ePp7PdbkBqcXDnExuDqpVJJq9esUh0PfvknylYyE6GgEfjsRCZGRSlamXc1z54bTV4OR8OIFAr4enmn31d9ICAe372brk6cXrMaDw6f06SY/fAMbV2eZfnrmEo7NXKwvS69IegkHWm0wt7aSw6o7aShMzEyRnsJB/byFR56GmZU9Cwc1FI4zASbABJgAE3hDAiwc3hBcZjf7rwmHgOEjQK/XLQoWhHXlSuJtfwmJPPbmTYQs+DGz8eN9Ew4B1+/g4IS5koNddlc0mjdez+R9Fw76gYpI69VzYGpuxsJBDYXjTIAJMAEmwATeUwJZVjh45ikE2r7j5uWD+1fP4srx/YgMDdZg9spfFNmcXBHk+zjJ9h4TE1MULFdN1n9w7TyiI8JkvECZqjAxNcHNM0eRu0hplK7TTPZ74dCuJH2ob5azUEkUrlAT9s6ueHDtAq6e+B+iwkPUVfRxO0dneBcojvDgADy5fRXWttlQoVFbeOQuKJ/l9J5Nsq57zrxw9vCW8U7DZ8LexQ2Xj+zF0a2/6PvyfXALIX7P9Gklkqd4eRQqXx1O7jkQFuSPh9cv4PLRfUhIMLw33cHFHe6588vmL6Ij8VA8Q3qHtKw4+A8arLm98+hRGfN31gAAPa9JREFUMHN3R0JsHAKGDdOUUcLUwQEW+fPDzCM74v38EHvrNl6GJOVv5uICE1sbUccfCTGq7TZmZjDP4Sn7j/f11fUv3vKb58ol4+beXsjWsaPcKhU8/3tdOX2K7UJxjx69TisxauvtDYt8eWFiaYnYu3cRe0dsMXtpmL+ZpydoO1T8kydiDLGgtFWpUmKM0Yg5fwEvQ0P1Kw7RwaGwcrTH1u5DES/qluraBgWa1gXl0xYgQ8KB3vC7Fs4H53y5EBMaARIeoY+eKqNNcrVxcYJH6aLyPs/OXkbI/ccwtOJgZmEBe28PxEXHIPyZzshd6czWzRmW2ewQ8TwAsZFRSrbmmhbhYOfhBrci+WHr7orguw/hd+Wm2DIVrekvcYJXHBIT4TQTYAJMgAkwgTcnkOWEg7WdPfrNWgPvgsU0T037vX+bOQL/7N2sz+/w1RRUatpB7gWf3r0+Ap+9nuB1HTsfpWo3kWVTu36A4OdPYGpqhul7rsn2t88eR/6yVfR9UeTIH6uwecFETZ6VjS36zlyNXEW0W29oPBvnjMGp3Rs19SnRsNsANOj2JUID/HDh4C7UaNtNU4cm7fP7t8OgHzfDu1BxTVnixNl927B26lea7MGLtsErfxFNHiViIiMwpmWZJPmU8eGw6VK8UDw+LhYjGmv5Uv7bhrcRDnbNm8Gmfn05BP+vhmgm4LaNG8G2ceMkw4vauw8R27dr8hUBEv7bBkQf1RllUwUSCE5DvtIIE1MnJ7hMeP0mX9ORkkhIgP9gLX8SOI79v4Cpo6NSS15JyIR8/wPi/f01+ZRwnT5NCoewFSth16E9TLNl09QJmjoNziPFKowIN3ccQMFmdXFm8TrcO3AMzRZNhqWdHR6dOItc1conEQ4eZYqh6pA+8s2+ulOaeNOWJpr0q0PB5h+g5Eet1Vl4cuoCvCrqfuNqGwePUkVQfeTnUhhs66XdwvXBlGFwypsLV4Qx9bU/9mj6UxKpEQ4keqp81RvZSxZWmskr2Xoc/24pSNgkF1g4JEeG85kAE2ACTIAJpJ1AlhMO4349CntX8eZZTNiunTiIYL+nKCJWHpw9dW/m5/RtKd/iKyiULT4hfr6Y1LmGzC5Vqwm6jtMZeq6bOhRn9m2R+WrhQBnU5vqpQ8hTohyyv3ob/+uM4VBWBKjOF3N/leUUJ7ER7P8MRSvVga2jE2Vhbr9WeHxLa0yrCAd6+08rH3GxL/D09jU5YfcqUEyuIMzo0RBVW3RBgTI68VK0ch1YWNsg4MlDPL55SfZNH2f3b8OlI3/p0zXbfoKWn4+WfEiAPLh6HrTCkV/0YyfGlJwgeN+Fg9OwofIN/svgYARO+Eb/vNZVqiBbpw9lOu7+fcTevAVz8ZbfIl8+mRfxxx+IOnhIXz8twoFWCuxaNJdtTZ3F23PaLiV+d9GHD+v7o9WBiK2vDZFNxATedeK3YgnEFGSTEX38hBA58WK7VWVQGdlnBIwZqxE+1JkiHMiGgu4bJ1YeaOWDVkjMfXwQPPs7KWyoLhlGN5wzFkG37+P0T2vQYNZo+F2+gciAYPjUqqQRDrZuLmj8/QRqhuigEDw8egbWzg5SYFDe84vXcXjKAorKQKsM1Ud8JuNBdx7g+YVryFG+BBxyeb2qAWS2cKBnJbsI+pt/IAy/I/0D4V2ptH5MxCPxaocyWBYOCgm+MgEmwASYABN4ewJZSjjU6dgbzT7VvdX8YUBH3L9yVk9gxKr9cPXKhecPbmNmz9dvn+2d3TB63SGYmVvgzN6t2PrTZIz99bBM09v+1RMH6PtQC4dQ/+dCaNQUkxXd1pJBP22RqxyUP7FTddmGtkkNX7VXxv9cMQd7f9HtvTe3sBT3OApbB0cxyb+CuZ+10t+DIopwoHiw7xPM7tMM0ZHhlJRCIk/xcrh76bRMKx+KAErJOHrs+iNwcMsuRczCYTrPRUofLp45NasuSj5d3zvhQKsKZOOQJw+sKlWUE28aZ9TevWIVYQdFZXCdPElOyMnTUejiJUo27Lt3g1XZsnI7UsCIkXLCT4VpEQ76zkQktTYODj17wrJUSXnfwDFj5AoG9WNiYQ7XadMAsSUqcscORP6l+90o91CEA6VDly7Di0uvxSGtYLwMCxPtp8rqWz4ZinrThoO27jz8+xRyC7FwYt4KeJYtnkQ40EpDjgolxfakcOzuP15ubaJOclWvgIr9dStd6ol3/Zmj4JDTEwE37uLg+DnyfvRRb/oIOObWiYfMFA4+daqgfN8uchyJDag/mPo1nPLkTDJW/aBFhIWDmgbHmQATYAJMgAm8HYEsJRy+XrEH7rnyIizQH8tG9ZJPTm/sKZAtQp0Pe4u39nHirXpRmad8lKjeAN2/0U3qI0ND5ISetglN6lRDLwyorlo4bF84DQc3LlO6AL3x7zlZNzEdVr+gzK/bqS+a9hb7zMU9RzYRrjpV9gONPhmE+h9/IVcTqEwd1MIh8QqJup46nlrhoAicoGePQasWtJqRmlCpSQdUa/mxrBoubCKWvuKbmraprZOWrUqG+ow5dQph63/Vu2Q1sbWF65TJsmrQtOmIf/ZM38zUxRku48bpyoQnpvjAQBnPaOHgNnuWFAcxJ08JcfBqJUjYzFCwa90alkWLSnuHkHm6FS9ZID4U4RB74wZCfvxJyX59VXlVIuFQsGkdFOuoWw2hMxU2d/8K5T7tkkQ4tFg6DRZ2tga3C7VcPhPmNla4sPoP3Np5QN6rzdp5Qq+Z4MjUH+ErVhuU4CXe8FcZrPuby0zhUHfSEDjn95F2Ekem6bjQ+Ch4lisut1SRnceWbkJoGggsHAxA4SwmwASYABNgAm9IIEsJh0lbz8HK1i7FRx3bsqz+Db5SWf1GnewPpnWrJ42mlXK6qoXDvM/a4JFqS5CFlQ2m7Lggq0/vVh/+T+7r39KTCJn4YTV1V9Lw+tMZP8u8rxsU1ogKRTjQpD6xqNB0okqkVjiUq9cKnUeKyasIJGT8H93HvctnsHv5bIQGao1XVd1nSjQtwkEaLosJIm3boUBG0aHLliL22nX9WC3y5oXjQN2KUWJjaqok3ZeKCXfookV4cVU3Cc5I4WBiba1fFdAP0kDkZXg4Amm7kioowiHx1ip9lUTCwdzKUtg2TJHFvuevgibV5T/7OIlwUIQAbUeibUnqQKsWjj7euLvvCM4u/VUaQjdbqBNi2/uMEAeyReqr27g4oskr+57MFA70jFYO2fTjSC5CYio+JqlIZuGQHDHOZwJMgAkwASaQdgJZSjhM//MaTMVWj8Cnj+D/+H4yT5uAFeP6Ie6F1uCzWJUP0GPSItmGViy+7Vg1SXu1cKDViBB/X02dmXtvyvSS4T1w45/D6DNtBQpVqAG/h3fl2311ZQ+fAhi6bJfMmtCuMiJCdG+8KUMRDsmNQ92PEk+tcKD6tBJCqx2WwiZCCbQ/nAyp100z/GZWqZeR17QIB0UIkG2BfbeuIJFAHonIPkA5x8GqTBnYf9JdrkD4DxmaZOiuM6ZL4REuVimijx+X5RkpHMy9vOD09TB5nxcXLui3KSUeGBlHR+7S/TaUMkU4hC5eLA6Yu6pkv74mEg40Sa4x6gvpJenkD6vge+5KEuFA5yO0WTNX9rFvxHTpGel1h0DNMV/CvXhBPD19EcdmL5EigsQEhU2dX2/hozS5TCVDZgqZKRwU42ny6pScFyj6bZ9ZtFYejCcHqPpg4aCCwVEmwASYABNgAm9JIEsJh2//+Ac29g44vGkVtvyo9W5kjIOdo4verkGpd27/dvwyRevyUy0cEttQkDeniVvOyOZTPqojVysUr02GBECRSnXQa8oS8dY/AV83KKTcVl4V4WBopUJTUZVIi3BQmuXIVxjVW3dDGbGNS1mpIbsNQ+5blTYZeX0T4UDjIfsAl8mTpQiIOXMWYatWyWEqnpAooQgNWfDqw23Od9JOgs59oPMfKDiPGgmz7NkRsWkTog79/aomYFWhAuw//kjjVUlfKCKpsXEwEa5JXWfOkM3IC5Lerau6o2TiinCgbUq0XSlJMCAcEtcxuOIghAMJiCPTF0pxoW5Tf8YIaWB8e/dBnP/5d1gIN7Utlk2XVXb0HS3sIsL01W3dhZH1/AkyrRYO7sULCQHSX54kTfnqQN6erBzsDW6TUuopwmDf8GkIefBEydZflVOmL/+6Hdc379HnpzbCwiG1pLgeE2ACTIAJMIGUCWQp4TB06S545CmAxzcuY+7nWneRxh5VMZymCf72RdP0W3nWTh6Mswe265uqhcM+Yei8Wxg8K6F8/dboNGKmTCo2DrXb90LzfiPklqBRzUppVjnaDvgGVVt2kXkjm5ZQupHXNxEOin1HYoNuTcfJJMwtrUDbvMzMzZM9eZrGVKt9T9lDREgQpnatm0xvb579psKB7mhTp7a0ERCwETh+gjzXgM49oAk3BbIZoLMSlKB++x84brysT2V0+jOJgJiz5xD2s24rGeU79OwhjJrFuQnJnBNBZzKQZye6v1zdSOY8BteZM6XQidgkvDkdOkRdpypklHBQtvrc3LEfF9ds1o/FRAiRlitngs5hOLdiA+7s0YkoZWvTyfkr8eiYTihTozx1qwobis6yvVo4kME0GU5T2Nrza/25CnR+Q/MlOmNuY+5YFTsLxbWs7Ej1UXvCIHn+xPOL14T3J52dkqo4xWhahMOsWbPgLgzRKezbtw+rXgnUFG/CFZgAE2ACTIAJ/EcIZCnhoN6/v3bKV9IVqfp7qtCwLWyyOeDvTSv12R2HTEXFJu3l5H5WzyZ4/vAOuk/4ESVqNJBGzWTrQGc4UFALh+iIcEwWb+fJ2xHlj1xzAE7Zc2i2JdFKxviNx6Ux6ek/N+HXmbptHnSYGtWnCfuts8ewaJj2nIY3EQ79xFkRdK5ERHCQ8OpUTY5d/5CqCG1Tunhot7TBULId3TyEZ6m/5Th3Lp2FA+t1W7aUcrqqbUDex3McxJcg7QfI5kE96XceN1a6LI17/Fi6LJUHrAnbCMcBX8rtTS/FW/PAV0bS9Jz23bsLb0tlIO0MhAChA9zINsHlmwnyHIXkhINapISt/Bkx585Rd0kCHRJnXa2q9KoUPGMG4gMCX9cR2+xsqleXAifu4cPX+SKWUcKBJvs06aetTbsHfoOYEN0qQtF2jVG0fVPxd5GAXZ+PlYfH0YBqjhXbl4oVlO5N/xo6GWR4TeKi4dxxIDsHCmrhQMbVNPmncGbJetzbf1TGlf4pYUw41J85UnhxyiFdyx76dj7iX8TK9sqHpziDotrwfjJpaNUkR7kScqXkweFTShPNNS3C4ZdffoG1+C1QOHnyJKZP162+aDrkBBNgAkyACTCB/zCBLCUc6HtSH24W/PypONfggTynwM3bR07U7106gwWDPpRfqdqb0rafpuDQ7ytkPgmBsb8eQTZxyrPa7apaOFDF2OgocSbENXGGQz6xRUo3aVo6spc820F2JD66T1ggREhDmSRPRnRKMx1OR+5faVI29eO6SYyw30Q4qEUT9UvbjcjI++iWNRrvT4oBOW2DCnz6QAgpR+mJimxDosJCMb5tRSmilPEr1/deOIiB2jZpAttGgrV4fmXVwbJYMTh82kc+BomBuHv35GFuyuFrYT+vEkLjrPKYsChQQB7OpmvwErHi7AdaTVAbYRs6mZrqO48dAzNXV11TcS860I3OXVB7SJLbqiZOlGKExklnS8QHBcPMzVXehwSQ2uZCdiY+Mko4WGazRbOFU+R2JfI+5Hf5JmycHaU9A92bJtynF6xWhiHdm5KbUwrkwjXw1j24iROnyTOTEtTCgfIazB4Ney8PWUynRNOBcorrVso0Jhy8q5RF5YE9ZFsSKVGCFRKA3QMmyDz6UGwxKB766BnCHj+ThtxOPjmlV6in/wgbjVlLqDhJYOGQBAlnMAEmwASYABN4YwJZTjiQ+9V24sAnch+quGVUnp5WCfauWYCDG5aCvCBN3PKPnMDfu/SPEBOdlGrySsbLQ5buEH2YQlktUAuH49vXo0rz123IQ9GmueNxfMd6TT+U6DxiFsrVb6XJp1OaSWTcu/yPJp8SDbp+iYbdB8gD5pRD6ZJUMpDR4OP+qNnuE72IoSp0NoXa4PmLuevhI86BSMyG3NCu+rY/bp87bqBnoOPQaajYuJ0sS4u3J4OdJZOZ0lalerWLwbGf7u2yIZsFaUNAW5PE5JvcnYatXSvvZFW6tDSgpjMS9EFsJQpbuw4xp0/rs5RIts6d9OdCUB55cArfuBH2HyVv40D16DA2uzZtYFlcnKotxiCDEAeJT46mFQw6R4JcryYO8b7PEbZ6FeIePdYU0RkN1E5tj6GpIO4nvUSJzC3dhyR5M091y/f7CD61K+uNnZX29t4ecvJt7eSgZMkrbU86t3KjFGLqAnrLX3Xop1JsKPlXf98NWkWgsLXHMM1p0yQSan8jtoCJE56VQILEwdtTnhx9ef02XN/yl1KU5Jq/cW0U69BUrhwohRrjbLGCVKxDMxRu3SDJ75rsMC6t3Yr7B08oTTXX1AoHC7Gqsm7dOn3/CxcuxF+KO11Nj5xgAkyACTABJvDfJZDlhIP6q/LKXxS5i5RGeHAAHt64+NZGv2rhMKZFabHrJQElqtVDuPCIdPvcCZGOV99eEyf7gXylKsHZw1tuTwp89khTnpkJeg6fYmXlSkOceCP++NZl+N6/lZlDMHgvRTioC++v7IqIeydlVi0P1cRfXSmVcToojWwb4sR5DikZJps6OIgTmXOLsx98Ee/nl8o7pLGaEDLmOXKI1QY3eY4EjUm6mU1jN0r1Q77J//6UOsauVo72cCmYBzHBoQi++0iuWCVbX0zW6XA1auN/5aZBoaJuSwbYznlzgWwbaFWDVjcyItAJ0o65vYWr2Ai5+qA24FbuZ5uzDPL0/lVJyuvt7xsjJuC1DYymUCRq1qyJQYMGyezQ0FD06KFbBUlcj9NMgAkwASbABP7LBLK0cEjvLy6xcIiJeu3HPr3v9V/sz8zGCd5tdfvhlef33TMDMX43ZfJthYPS57/1+rbC4d/KJfFzWbrmgWfj0ZrsJ1tGIi7cX5OnTgwfPhyVKlWSWXPnzsXff/+tLuY4E2ACTIAJMAEmIAiwcFD9DFg4qGC8gygLB+PQWTgY5/M2pcuXL4ejoyOCgoLQu3fvt+mK2zIBJsAEmAAT+NcSYOGg+mpZOKhgvIMoCwfj0Fk4GOfzNqXVhbcrJycnnD9/Ho8evbtthm/zDNyWCTABJsAEmEBGE2DhkIgw2SlQuHNBt+8+UTEnM5AACwfjcFk4GOfDpUyACTABJsAEmEDGEmDhkLF8ufc0EGDhYBwWCwfjfLiUCTABJsAEmAATyFgCLBwyli/3ngYCLByMw2LhYJwPlzIBJsAEmAATYAIZS4CFQ8by5d7TQICFg3FYLByM8+FSJsAEmAATYAJMIGMJpJtwyNhhcu9MgAkwASbABJgAE2ACTIAJvEsCLBzeJX2+NxNgAkyACTABJsAEmAATyCIEWDhkkS+Kh8kEmAATYAJMgAkwASbABN4lARYO75I+35sJMAEmwASYABNgAkyACWQRAiwcssgXxcNkAkyACTABJsAEmAATYALvkkC6C4cvqwxCVGwUAqICcO7pGdwNupPi83Vs7Iwi+ayw6Dd/+PrHpVifKzABJsAEmAATYAJMgAkwASaQuQTSXTj83nmr5gm+Pz4X/7u7X5OXODFzmDda1XPE4X/C0XP0g8TFnGYCTIAJMAEmwASYABNgAkzgHRNId+FgYWoBR2tHdCvTA9V9auJJ2GN8uf0zo4/p4miGY+sLyzrVu9yAfxCvOhgFxoVMgAkwASbABJgAE2ACTCCTCaS7cFDG7+Pog++afo/Y+Bfo9Ft7JTvZ629z8qJMURvsOxaGz755mGw9LmACTIAJMAEmwASYABNgAkwg8wlkmHBwsXHBktYr5RO1W9cyxScrK0TDr0I8JCQAlT+8juDQ+BTbcAUmwASYABNgAkyACTABJsAEModAhgkHZxtnLG39s3yK1AgHqnhqQ2E42pthwS9+mLfaL3MI8F2YABNgAkyACTABJsAEmAATSJFApgiHDutb42XCyxQHs+2nfCic1xqHToej9xg2kk4RGFdgAkyACTABJsAEmAATYAKZRCDDhAMZSa//8Hf5GGP3jsQVv8spPtL80TnRuKYDHj2LxQef3EyxPldgAkyACTABJsAEmAATYAJMIHMIZJhwoOH/1HIJstt54OyTM5h1ZBqi46KNPtXnnd0wqHt2xLxIQMmWV43W5UImwASYABNgAkyACTABJsAEMo9AhgoHz2w58EnZXqiYs5J8IvKwtPf2X1j6zyKDT1i/qj1+HJ9LlhVqfMVgHc5kAkyACTABJsAEmAATYAJMIPMJZKhwyOecX5zn8AlKepaWT0ZnOtBhcL9f3mDwST9p7YJR/TwRF5eAYs15xcEgJM5kAkyACTABJsAEmAATYALvgECGCoflbVbLw+Cu+1/D/GPf4Vn4M6OPOH2IF9o0cIJfYBzoIDgOTIAJMAEmwASYABNgAkyACbwfBDJMONiY22BNh1/lU47bNxqXn19M8Yk3zM2L0kVscPpSJLoMvZdifa7ABJgAE2ACTIAJMAEmwASYQOYQyDDhoD7Hof36VuJgN3GyWwrhyLpCcHc2x+otgZj4k/HViRS64mImwASYABNgAkyACTABJsAE0pFApgiH1BwA5+Fmjr/XFJKP1rr/HVy5ZdwDUzoy4K6YABNgAkyACTABJsAEmAATSIFAhgkH8qi0oIXOe1JqhMPckTnRtLYDbtyNQfPPbqcwbC5mAkyACTABJsAEmAATYAJMIDMJZJhwaJC/IfpV6o+gqCD03tzd6DOZm5vgwuYioGunIfdw5nKk0fpcyASYABNgAkyACTABJsAEmEDmEkh34TCt4SyQfYObrbt8kt03d2LJ6YVGn+qzTm4Y/El23Hv0Ag173zJalwuZABNgAkyACTABJsAEmAATyHwC6S4cVrdfj9j4WATHBOPYgyPYem0zYlI4MXrqV16oUMIWY+c9xfHzEZlPge/IBJgAE2ACTIAJMAEmwASYgFEC6S4cjN6NC5kAE2ACTIAJMAEmwASYABPIkgRYOGTJr40HzQSYABNgAkyACTABJsAEMpcAC4fM5c13YwJMgAkwASbABJgAE2ACWZIAC4cs+bXxoJkAE2ACTIAJMAEmwASYQOYS+H971wEfVfF1LwnpPYQUCAklBELvXbqANEFU1D8qvSPw0YsC0psUxYKCijRFUUCKVAm9Se+EnoQACSQQEkL75swyL283G7LBpSTe64/dedPevPMWmTO3MXF4vnjz3RgBRoARYAQYAUaAEWAEGIEsiQAThyz52njRjAAjwAgwAowAI8AIMAKMwPNFgInD88Wb78YIMAKMACPACDACjAAjwAhkSQSYOGTJ18aLZgQYAUaAEWAEGAFGgBFgBJ4vAkwcni/efDdGgBFgBBgBRoARYAQYAUYgSyLAxCFLvjZeNCPACDACjAAjwAgwAowAI/B8EWDi8Hzx5rsxAowAI8AIMAKMACPACDACWRIBJg5Z8rXxohkBRoARsA4Cbi421P3d3FQ4vwN5e+SkJatv0KJVN7TJJ/bLQ/kDHSjm+j3ad/QO/bQsjh4+0pq5wAgwAowAI/AfQoCJQzZ72X5FqlDuwhWNnirywHq6cfm4UR1fMAKWIOBdOD/lLh5KcafP07WjpywZkm365K9TlVwDfOn8ph10O/rqUz9XngqlyL9ccaPxFzbvotiTZ43qXsSFh6stbV8cSnY5c2i3X74xnvpPitSuty8KJR+vnNr1sTPJ1KLni1+7tiAuMAKMACPACDw3BJg4WAnqEP8QyuXmQ6ejT1Pc7VgrzZr5aUq/MYD8i71iNDBi80I6s2WxUV12vGj0+Uiyc3KkByn3aHXPEfTo4cPn/phNvhlLNra22n0fPnhIyTfi6UbEBTr68590N+G21vY8CzmdHCigXEm6dyeJruw/avGty3V6h/LXrUbRew/TjqnfWjzOGh2rD+pKHsF55VS7ps+l2FPntGk9C+SjagM6y+vbV65R+KcztTZrFRrNHEnOub1p31fz6UL47qeetlKvthRYrZzR+OO/rqLjv60xqnsRF93e8aG+bX2lBmHQ5Ejatj+RbsTfJ/Gz1cTeLgf55spJnd7yoXebeMn6im+epPjbD7Q+XGAEGAFGgBH4byDAxMFK73lE65EU5BNES7b/Qmv2v7gNgb2LJzm6ecunKt2yPznnCqT/AnHwCQuhmp98pL3NHZNnU/Q/R7Tr51V4Y1H6G9hHjx7R1jFf0LVjp5/XcrT7eBUKpjpj+tGDuym0rG1/rT6jwoskDo2/HE2OXh5yiZd37qfdM77XlluhWxsKqllJXt9LvEMrOg7W2qxVsBZxcPBwI6fHz1Gx14fklsePXhbi8PnwQGpYw53OXrpLjTpFZAjdidXFyEYoJ9oMPE+7D93JsD93YAQYAUaAEcheCDBxsNL7fFmIg/5xqrafQu55Qv8TxEG/kQQGkbsP0K5pc/VwPJeyIg57Zs2j6H2HyT2vP8HkJbhWFcpha0P3k+/S8nYDnsta9Dd5WuJg5+xE2Pim3EqklNuJ+imfeVlPHB7cu0fLPuin3bP595Mpp6ODvH7ZiYO2aFEAecO7eFmIw+xPg6h2JVc6eCKJ3uqTqtHRr1lfPrIijKCB6DPuMq0KT9A3cZkRYAQYAUbgP4DAMyMOvh6+VDigMPm456YLV8/TyaiTlJSSZARpcO5gsrWxpegb0WnanOydKMArQKjQH9J5MR7iYOdAeb3zyr4xN2Pk/EXzFqXIuCg6eulImjnkIPFhk8OGCvoVFH8KUY4cOSgiJoLOij8P0zFlUfdOTE6kmPgYss9pT2ULlCN/L3+5loPnD8ipvV1zkaeL4US0c4MulFs8a/ixzbTl2BZ1a7qecJ0SkqzzD6yTpx95iud19c0nTF5i6fq5g3RHPHt6YilxsBHP51OwDLl4B5KtgyMlREfQzcgTlJIYn97U5ODqRT6FypOztz89SE6ixBtRdO3MPnp4P8XsmMz2NzvJEyqbfTeB7FycpT06NurpbdBx2mvnLJ4x8grldBDmO+VLimsnunr4BN08fznNHRw93cnZx4uS4m4KM59k8isVRu5BAXT9eATFnhC/oQfG5hqKOMCsB+Y9Ssq0e4sKNjCYkK3rP5ZuRcaoJvmNTXCuIgXJqyDebaK0f0+4HG3UBxcO7q7k5O1JyTcT5B99B/fAALLJaUvxl6LokbA1yWFjI+dDH5j8lO34jng/Dyh81HRtGEypbp67pF2jYGtvRy6+PkZ1dxNumTWzQl+PoDwC7xTCel18c1GAsOmHxBw4RreijJ9TTZpTmJT5lRZYBvpLLK+fOEOOHu7yXSRei5WaEUUc8Kx4D9vGf0kxh06QT1ghoV3qLZ8f9eaIA57dOySY4KMh/tJLH424M+clLmoN+m+sx7dkEfks8D2AVqjhtE/SmCrZ2tmRW14/+fuCiZRe8Duxd3WhxKux0iRM36bKmSEOeNe5QguSZ4FAwr3gY5IUl/7fSXWPzHwr4nDgeBK93ZeJQ2aw476MACPACPwXEbA6ccDmvmfjXlQssJgRnvcf3qdZq76gQxcOafXqlP5q/FUaOn8IPRL/KRn7v3Hk7+kvScXwhcNkdYVCFalbo250524i3RabepATJSABny2fSscjjZ2Afdx9aPAbQ8jLxWCbq/rH34mniUsnSGKg6tR33RJ16X+12si2bce30RtV3lBN8vvIxcM0bcU06te8HxXLZ+z0aNRRXKw7uI4Wb11kWp2paztHFyrz5hDyzm/YkOkHXz2xnfb/OkFfpZUtIQ4hr7xDBWu+KwmVNvBx4fyOpXRyww+m1YQxhWq9l6YepjjhMztQ8q3rRm2Z7W802IILV//c1GDax7InTvObzZ0kn2fj0MlpNsWvzRotNt4eUhsA0qCXq4dP0vaJXxuRgQo93qegGhXpxtmL5J4vgLBxVIIN7aZhk402c+kRB3Xij7E7p35HUXtT/x74lSlGVft1kpt+NTe+sXmFyRVIkBJFQK6ITTnWqpeW86dLrcb6AePlJh4E47VZn+q7pCnjnf3+Xm+j+nw1KlDFHh8Y1aXn4+BXqihVH9JdbpRjDh6nwKrljMYd/OFXivgr3KgOBOmV4b2MnvfO9TjpGwLTJOVToIjD6ZWbqHCTOvKd7ZjyLVXq3Y4Cq5QlVW9KHEBeao7oI9+z/sZ4X+GjZshNuL4eRKTG0J5G68EG3SanjSBqbtp6MEb/vCs6DNJPQ3XHDRCb/Hx07Jc/6cTva43a1IWlxKF466ZUpEUDNUz7PrF0DR1bskq7/reFeROCqUoZF8oscRj6WRT9uvbmv709j2cEGAFGgBHIYghYnTiMbzNBbuixIdkuNrWxYhNZTpxMBwpbewgIAk7xIS4OLjSl7VR5or/h8HpaGL5Q1reu3poalGlIIBsDfuxPCXcSZL0iDvJCfICEXL5+maoWrSqJAe750Zxeglik2t7O6DCTXB1d6d6De2I924QG4xFVL1pd3jP5XjL1+ran1GqoOfGtiAPIiI04ubx7765wej4l5rhPRYTpT4wgOmOWjCasp0jeUDm0apFqBE3FxesX6YxwkFayN2IfnRSn908vOahO7+/JXvgt4PmundxJt4QGxlloP3yLVhNagRsU/kVns9NbQhzgB+FfvCbFizXGR50WJ7IPRFSmCtI3ApOe3fYLnd40X5vfUTiA1/xojtyYJ0Sdolih9QDh8xIEyiuoOG39shslxqVGZMlsf+1GmSgUf6cZFXn9VXm6va7fWKo3YZA8YceGFRtXvSjigDo4Cp/ftFPY0btTvmrlZbfzf++kf74x/A5RoYgDysD/gmiH83X+ulUlicCGd02vkWiWkh5xUGtEp+XtB9D9JAMZcPbxJjh1Q+BEfWn7P0brAZnZOm6WbMdHZoiDrYM9lXi3uRyL03AQJTzD2bWpGjE8y5GFy7T5UYDmonCzerIud7EQoXHxTtc5Wm2k1QQgDynC5yBvpTJyIw7NB8gcTI0gONlv9u0ESXBg+gT84YAMIqDElDjsnfUTlW7bSmjDHGjZh/2o+Q+TpeYA9VX6dUyjcWj67Xh58o97XhROzY9E7NBg4Q8BPID7io6DNMd5/XqgVbnw9y7pgxBQIZVUqvVgfep58dt5VsShTPu3qeCrNSQc0LDEnTpLngWDhHN7CVl3YO4SOrsu9R3Kyqf82LNEaFncbGnTrlvUZYSx5snclHtFf3fRf8OOW9RtVMb9zc3BdYwAI8AIMAJZFwGrEocaRWtQu3rtJRojFn9Cl2NTTT+UduHMlTM0/rdxGmJFhOnNwBYD5fXUZVNENI8HNLCl4SRvxp/TjTQUeuKw8fAGWhC+QI6zs7Wjae2ny427noC8EvYKta3bTvYZMn8wQbMBgYnRpA8Mp9KLtiyi9YfWyXr1oYgDrqPEJni0IAkpj01wclAOyueTTxIE1R/f6vms7RxdQGg7Quu3lRu+nXP6UsKVs9ptbYV2x0+Qh6jDm7Q6fcES4uDuX4iShTlVitDA6KXsm4MfE5N42jTtfa0prGFnCqrYVJox6evRwV6Ybd1Lui02ZanmO5ntr90oE4WGM0ZIE5mTy9bR0cUrKKxVIwp7s7HciK/qbtBEqOkUccCGdmXXYZrdfshrtanUB2/IDSk2luqUX08clKkM5oLJ06tTDZqwLXB4fhyqVBGHXcKRN2rPQWnyE1yrMoU0ri2JRvyFSNoweKJajtQ0YJOKaEtrRCQotcHOV12c+vc0nPqv7TtaOyXPDHHQbiIKSuNhbedotZHGvUBIDny/RN4WJkSNvxojy9smfEUgFJBS77cUWNSRpkgruw0XG/lkWR/W6jXxzl6TZbVRVxoHEIRcRQtSgXrVKWLNZirUqBZd3LqHonYdTEMcYKZWrvO7ch49biBODWeOlIT30LyldGb137IP3jnePd73KqznsXYHhCu0eX2j9eBCPe+zIg4gUfg9w6QSv2X8ppUoLYSpv4dqz+z32428aEyfADls1KwrtGBFXIZTLJqSn8qXcKa7KY+o9f+dI4RmZWEEGAFGgBH47yBgVeIw/K2PqYBvAbqWcE2a8gBGG/EPIKRUcGl6u/rb8uS/69ddZJ36aFXlTWpcvrFsw4kofAo2HtlICzannnSjr5449Jnbm24l3VJTkNJSgByAJEB6NfmIyuQvQ6ZkBW3KzAimTVP+mIwqTfTEQa8h0TqYKTwr4lCj6yxyEUQl5vhWOvDbJDN3Tr/KEuKgH20rcHcU5l/SPjyoBIW91lWY7dyndeNTTbWCKzWjog06SV+Gv2e0E0Qh9R3o51LlzPZX4yz9tnd1pqbiBBuyYdAEir8YRXrTJWwGYaKiRBEHU+dphFB9/cep8iRcv9FVxAEb+5Vdhqpp5Hf9yUPk6fy5Ddto/3c/yzpFHIw6Pr6AD8WOyd8YmTYp3wxz5i3N5woHYBFG9dBPv9OZVQZy+DITh03Dp8qws+rZ1fr1J+SvTh0uSJevODEXv+e5v6iuUhsAh2dsmM0RB2AHvJX8/fFU4ffgkYY4VO3fSWpWELp184hpqrv8rjG0u/BjKCpJHsgeBOQPJNB0PdBENBcmbxC1HpSfNXEAeQKJwv8HNwycIM3mgAkEvjm1R/eTZXN+MrIhg48ShR1pyfQCQpMqjkDEtIlJD+nPTfH08cy0/jTmpvL2sKUZwwKpfDFnyilyPyAR3C0RlrXiWyfNdec6RoARYAQYgWyGgFWJw/T2M8jNyS1DiLp901U7wVed1cYb1zBlGjZ/qJHPA+oVcYDZkSn5qFy4CnVu0JlgftRjdnd0p1HvfCpNpPTaCdkgPt6o0oqalG8itRCKaKg2RRxgotR9djdV/cRvtX5raxzqD/xFOKs60pHlMyjy0IYnrsG00RLiALJQ5NUOlLd0PWFaYm86hdzArB37ulaPtdQb8LPc4GFzkywc2+MuHqELu1cIE6oLWj9VyGx/Nc7Sb5w+l/6wVZowo2rTitwJJ/9ItTdXxMH0NBf3wwk5TsoP/vibPNlGnSIOcJjdPDLVqRhtlT4S8fmFTT8cq7eO+xJVpIgDnJAf3rsvN/6yQXyYu2fLhTMkljBHglmSXpTJlZ6YvKzEARqc39v00S9fMxnTP3ezOROlA/Q/sxdJR3b9ANWmNup6jQM0DE2+GSedw2FuBHMvJFYzNVWqP2mw8EXJI/0qTM3UlLkYHI2hjYCoe5pbj/oNqfWg/7MmDlX6dqA8lUrjVk8UaGGASWYlJMiBFkzOTx7utjKsqvgrTJv33KbOn1y0aKp8AfY0bXBeKhnqJIkHNA+RMSkWhXK16AbciRFgBBgBRuClRsCqxOGbbrMpp01OacYTLaLsmJOH4ojqh43fS/8FfXvr6u8Iv4YGsir8WDj9uOkHfbMsK+IA5+he3/Uyai8VXIp6N+0jIyV1+qqjbIP/BJyil+9eRsv2GNtxNyjdkFrXaC2crG9T7zkfGc2liAM0J4N/MnaANOqou3hWxKHBsGVyY7lv4Qi6fna/7o4ZFy0hDiWb96Y8perJye4L35AE4eeQLBLY2Tm4Uu7QSrL+rzEGO3l1R698xah44+7kkjtIVcnvmyI79Z6fhkkthb4hs/31YzMqK2dTbNTjTp/TunuJiDpwZE64FEXrxcmtEkUc9n+3mM5t2K6q5bepyRMqFXG4InJCbBeOynpROQ705keKOKioStAYFG3RUDN70WszEJ4VDs0QmC9hHr3AgTh38cJG/gUvK3Gw1HSnxU/TpO/DzmlzKGr3Qf3jasRAbdRNiQNO4kNeq0XnNu6QfhnmiIN6v8d/Wy1Cnq42mh8O1iXbtJTmaX92Mmgv1HpgWhYpckXoRRFJtR60PWvioH7P0HCBkKYnp//caDYKWHr9Tesd7HNQ7/d9qeNbuWTTlDlXafYS46AGpmNw/ccXBalYiCPdu/+I4CC9bKOxiaO5MVzHCDACjAAjkH0QsCpx+KzdNPJw9qClO5fSyn1/WoxSqHA4HtTSYF6kBiFqEaIX6UURBzhNd/mqs76J4JzcsX5HGZK157c9ZJvazG8WIVLnbfrRqP/bwgG7oXDARihYFbVJdVDEAZoPmCpZIupe1tY41BuwWIQNdaZjq76kS/+ssWQpWh+NOIQvojPij6nAwfqVHobN8JEVMyny4Hqti7cwVar4wTh5bUocVCd78a79hGM6zJFgTgU5sny60IxsVF2MvjPb32iwmQtpXvTTZ5JYmWnWqpDwDLb9EG1jaSZzrzrR1pvWKOIQd+YCwTxGL5X7tKe8lcvIsKPbHkc4MiUOqn/tT/uK0KAF0vhdqEhIGI/wpXrRTs+FXT+0IJDSbd+kQg1ryrCk8LlQgpCyOD2HqKhKqg3fz9rHwVLigMzaiFSk1+qodb7+wxRpsqQ26qbEQfVT3+aIQ93xA8kzf6AkhSCHeinZpoWIzlRXc6JHm3KkhqkZNDt6Ubki1HrQlrt4qIgI1VM6WUProRf1bObMzlQ/RQxAakBuTEVlmTZnamXa1xrXytk5fO9t6jg8Y63Dgd+LkrOTjcXO1NZYI8/BCDACjAAj8PIgYFXiMESEPQ0RuRuOXTpKU0VoVEtEH1kJ+Q9SHtyleiXrS3+HgfMGaBGVMJciDigPmjeQruvCfn5Ypy3VLCY2VLrNfvdGPai8iOgEJ204a+tF+WOo0Kr6tqchDmo+c2ZR+rkzW67WaTq5iRwUcecP0Z75wzM1vMK7IylXoXJ07dQu+ueXsWnGBpZ5lYo37ZXGjwEdi9RrS/mrGnwb0iMO+gkVSblx8Sjtnpcx2cpsf/29VBkmHTDtgMDUB9Fz9FJjWA+DtubrBXRh8y7ZpIiDabQi5FFQYVz1ZkOKOCjzGP38KrOwPnpTesRB70ytNzNRZOX0yo10eP4f2vTwM0H0IGhN4HCsIiEpJ2JEAFrZxeCcjUFwwC7f9X9yvDnigDwOMH2Cedkf7/dNN5+BtoDHBaVVsSQcqyVRhuqM7S9ySwRJsyx9tCgXPx9qON3wd1Rt1J+GOFTuK8iciOhkqmnC46hNOxy1ofmBKHJ2afs+2vN56uGC3rlbrQf9kbOi3kTDIcfy9gM1527kbwAJgTyJOFQf3E3mr0gPTzhkwzFb/t46DEQoLznns/r4flwwVS+X+XCsAyZFsrbhWb0UnpcRYAQYgZcYAasSB2UuhOedLjQGh000BqWFo7KzCFm649QODRJ1Uh93O06SAWxsxrUZL0O6Qhvw8cLhmq+DnjggFCuiLkGg5ZgooiQhupLeLEm/nkl/TNLCoiIZ3LA3DZvw2Wtn067TO7X1oPA0xKFrw25UMaSiCD8bS4PnD0o3uZzRjSy4CChei0q1NDhEHlo6maIFuVLi6JZL+CbUp4itBsdcVa++i9ZvT8FVWtB9kXhv21fdRX6FWNUkv72DS1LF9w2EYqtoT3wcBctFhM6t1nmmiKufU/bTE4fcIRVEBKYEEbr1lNFctUXIWAexnmundguSMkZry2x/baAFhaoDOssQlXqbdf0w5byMiEfKGVYRB/zO1g8YpyViU9F1ELFmRbuB0ikVcynigLL+VFqdPKNeny8iPeKAfrVG9pFJ3vSbfkQAQiQgaETW9B5Fd+NvoasWGQrrXC0iQykHb+SUwJogq3t8rDlaK40G6s0RBxAjnKBDzJnlyAYzH9YmDoHVyhFO1fFc0JhIvw7hpSuxCS0gV6A26k9DHPzLFqdqA7vIebaM/lzmwsAFksEpx+I9X8yjS9v2yj6Fm9alkv9rIRPj/SXwR6I/iMoVgbJaD8owPYPvA+SfbxfT+Y0GczcVyQv1TyIOMJWCyRSIwbr+Y7T3h3EQEJAmX4+VTvqI/IQIUHqB/0aeCiXSzROh72tJmRPAWYIS92EEGAFGgBFQCFiVOGDSASK0KrI5Q6KEn0OUyGzs7uxOQT5B5GjnSAdE1uXPV86U7SqaEjYRQxcM0cKleomsxJPenyxzKOhP8PXEARMggtKVm1fk/RCJCU7THwnfBxU6FX30eSVOi/wKj0Qm6tA8ReRJ9A2RA6H/D4ZNOfoqeRrioCcpeJ7om9F0HxGJDqyj7SeNTSDUfSz9rtbhM3ILCJHd74jN/e1rF8lJRD9yRShVoWFJL4+DvYsn1e7zo2bKc1eEXcXzH/x9Ct28fEI6Q9ftt0CcajvIEKrwb3goMPQUZkoQFc1FTxzKtBpEfmHVZTjWW1ciJKnzyFuE7ESuDDy3aQK4zPaXN7bwQ5m2IBHY4fm/pxmFkKzY0EnHXXHKLhaomSqhM+qvClLh6OEm8z6gDom7sPFToicOqIMfxYOU++Qj8hsAH2RdBnFQ8iTigJN2nLhD1OYVUaGafD1ObhRBWq4dPU1OIgkaNAQQOMBCQ6EEuQiazxGhhIV/BAT3x+k4EqcpMUcc0KZ8OFCGDT3yRiD8qN7pG5mnX/k41efHXWRJRkZu9EPEKiVIYgcC9DQ2/0jWh8hXECRaQ7QgEBslaqP+NMQBc6j58XtEdm98+4QZ3hfuB8KlBOZuMPECrgp/ZM1G5Cclaj3qWkViwjWyRAMbaCKUPIk4OIjfGnwn1N+tpNgbcn3QdsA8CRIqcmiUeO91WQZhvBFxgWyE5gn5NZC80DThnez4lB+fDw+khjXc6eS5ZGrW7WyGsxxfGUa2tjmo1+jL9Ne21GhlGQ7kDowAI8AIMALZAgGrEwfkOWhRuaWMWKT+cVRIJSQl0K/bl9A2kYgNYVth3gOBs/SW46kn6airVLgydWlgODlU2gJFHDAPzI/02anh5DxO5IeIEURCLyArvZv1odCAUH01nbt6Tmaa1ieLUx3qiMzRbUTmaHP+D6qPue86JepQ0wrNyFNs2JWsPbCWft5mbGut2iz9zpHDRoRA7UD5KjTVNhwYiw3RxV3L6MT6uelOBcdkJHmzF9oA9T72C43AVaEZgHgFhlG5d0dIPwo1CTQUB0U26vLvjZL30EdVQl6JkNrvpYnA9EBEoDrx12y6LIiSXjLbXz/2SWXYscOeHbJp2BSZ2dm0v2uALzX4zKBZCv90Bl0/HqERB5j+IC+A2oBjrLkTXkUccDKOzNHYpCvBhi5cnGor/wnUa8RBZDiO3mfso4N2ZRqDDeNqkbcB4iY253CE1s+NepkXAQnsxHvWC5KZlRNmSep9ggDtn/Mzle3QWj4PkuDdiorRD5Fl5Ago/UErwqm8em78hvSZo/WaiTQT6CpUjgSleTG3mVWZlPVRlTAFzK8QDcm3hCDwggDh9P3UivUy6RkIkNKIKO3QnllCQ7DVoCHQLYGQ/wIZt5FITjk7ox1agWoDu5JP0UL67nIDjuhX8MfQC3CBGRN8L5RcP35GJqZD8ru9X4oIRlv2qCZJEmqN6mtEdkDw3PP6y8zRps+rDXxcQObsSr0+JEeR2Vu9Q2TE1v9e4L+B356eUGE4fmtIUmgaMcr0HpZeD+zgJx2kk+4+pEoipCqiJKUnZcOc6OdpBq1QvXZn6FK0wW8ovf5czwgwAowAI5D9ELA6cdBD5OfhJ8Oh3hZRkKKF5gEb/n8jeuLQd24fmRG6sCAEkXGXNW1FevM7iFP1Qn6F5D/UEeKkHGFbs57kIFefQHIV0YyQtO1WjDj9fpyY7t88C4iJm19+cvL0FxmkT6YxaTI3t7NXALl45xEnofbCxClS/tEnfjMdk9n+puOtdW20Gd22j7wLBcnwoNfFyTSyKJuKIg6XRcSd3SLyDmzxQSDixOkwTu2tKTiN9i6cn+6KU+ab5y5r5lLm7oHNcS7hbI3T7tjT59OQC3NjXsY65EtQSeBenzdVkor0NCaZXT823cATm/NYoSkCQXmSgEB4BgeKk/+zGb5bEB6vAvmkaRG0RNBWPAuRv4lCwdL08Xb0VUqMuW7V2yA866rZBoKlcjJ8vzSWvlyUep95E4OpRGEncnU2aLmQ+6FsyxNWXQdPxggwAowAI5A1EHimxMHaEJgSB2vPz/NlfwSMiIOZU2xTBEyJg2k7X2ceAWiC4Jei16TkrVKWKvduJ83H/vjw/yx23s783XmEKQIt63tSrza5yUskd3MUYVp/WXOTRnwerXVbOyeEAv3sKFloIyIu3qVPRNvxiKx48KI9EhcYAUaAEWAEnhIBJg5PCRwPy5oIMHF48e+t/uShQnOTSzpGJ99IIP8yYeSUy0su7NTy9XRk0fIXv0heASPACDACjAAjwAikQYCJQxpIuCI7I8DE4cW/3RpDu5NvSUMABf1q4GOCkLSPHj7UV3OZEWAEGAFGgBFgBF4SBLIUcYCfQoCwrU9KSU7jBP2S4MnLeMkRQDQfJEuD8zD8AzISOCw7CSdWhOlUIVEzGsPtGSPg4O4qI0fBhj9RmC3FX4h6Zn4CGa+GezACjAAjwAgwAoyAJQhkKeJgyQNxH0aAEWAEGAFGgBFgBBgBRoARsD4CTBysjynPyAgwAowAI8AIMAKMACPACGQ7BJg4ZLtXyg/ECDACjAAjwAgwAowAI8AIWB8BJg7Wx5RnZAQYAUaAEWAEGAFGgBFgBLIdAkwcst0r5QdiBBgBRoARYAQYAUaAEWAErI8AEwfrY8ozMgKMACPACDACjAAjwAgwAtkOASYO2e6V8gMxAowAI8AIMAKMACPACDAC1keAiYP1MeUZGQFGgBFgBBgBRoARYAQYgWyHABOHbPdK+YEYAUaAEWAEGAFGgBFgBBgB6yPAxMH6mPKMjAAjwAgwAowAI8AIMAKMQLZDgIlDtnul/ECMACPACDACjAAjwAgwAoyA9RFg4mB9THlGRoARYAQYAUaAEWAEGAFGINshwMQh271SfiBGgBFgBBgBRoARYAQYAUbA+ggwcbA+pjwjI8AIMAKMACPACDACjAAjkO0QYOKQ7V4pPxAjwAgwAowAI8AIMAKMACNgfQSYOFgfU56REWAEGAFGgBFgBBgBRoARyHYIMHHIdq+UH4gRYAQYAUaAEWAEGAFGgBGwPgJMHKyPKc/ICDACjAAjwAgwAowAI8AIZDsEmDhku1fKD8QIMAKMACPACDACjAAjwAhYH4H/B2qgzmb/0li9AAAAAElFTkSuQmCC;" vertex="1" parent="LtUoJUIRz-PqMo0fcvZF-36">
          <mxGeometry x="4.5" y="32" width="382.81" height="187" as="geometry" />
        </mxCell>
        <mxCell id="LtUoJUIRz-PqMo0fcvZF-38" value="&lt;span style=&quot;background-color: rgb(255, 206, 159);&quot;&gt;movie-card (selector:&amp;nbsp;app-movie-card)&lt;/span&gt;" style="swimlane;whiteSpace=wrap;html=1;" vertex="1" parent="LtUoJUIRz-PqMo0fcvZF-32">
          <mxGeometry x="30.25" y="735" width="460" height="458" as="geometry" />
        </mxCell>
        <mxCell id="LtUoJUIRz-PqMo0fcvZF-62" value="" style="group" vertex="1" connectable="0" parent="LtUoJUIRz-PqMo0fcvZF-38">
          <mxGeometry x="19.870000000000008" y="35" width="394" height="411" as="geometry" />
        </mxCell>
        <mxCell id="LtUoJUIRz-PqMo0fcvZF-44" value="" style="group" vertex="1" connectable="0" parent="LtUoJUIRz-PqMo0fcvZF-62">
          <mxGeometry x="87.14" y="-9" width="285" height="420" as="geometry" />
        </mxCell>
        <mxCell id="LtUoJUIRz-PqMo0fcvZF-75" value="toggleFavorite&lt;br&gt;(isFavorite(movie.id)" style="ellipse;whiteSpace=wrap;html=1;" vertex="1" parent="LtUoJUIRz-PqMo0fcvZF-44">
          <mxGeometry x="152" y="354" width="120" height="40" as="geometry" />
        </mxCell>
        <mxCell id="LtUoJUIRz-PqMo0fcvZF-74" value="openGenreDetails&lt;br&gt;(movie.genre)" style="ellipse;whiteSpace=wrap;html=1;" vertex="1" parent="LtUoJUIRz-PqMo0fcvZF-44">
          <mxGeometry x="152" y="297" width="120" height="40" as="geometry" />
        </mxCell>
        <mxCell id="LtUoJUIRz-PqMo0fcvZF-73" value="openDirectorDetails&lt;br&gt;(movie.director)" style="ellipse;whiteSpace=wrap;html=1;" vertex="1" parent="LtUoJUIRz-PqMo0fcvZF-44">
          <mxGeometry x="152" y="240" width="120" height="40" as="geometry" />
        </mxCell>
        <mxCell id="LtUoJUIRz-PqMo0fcvZF-72" value="openMovieDetails&lt;br&gt;(movie)" style="ellipse;whiteSpace=wrap;html=1;" vertex="1" parent="LtUoJUIRz-PqMo0fcvZF-44">
          <mxGeometry x="152" y="183" width="120" height="40" as="geometry" />
        </mxCell>
        <mxCell id="LtUoJUIRz-PqMo0fcvZF-54" value="" style="ellipse;whiteSpace=wrap;html=1;" vertex="1" parent="LtUoJUIRz-PqMo0fcvZF-44">
          <mxGeometry x="155.25" y="110" width="120.25" height="44" as="geometry" />
        </mxCell>
        <mxCell id="LtUoJUIRz-PqMo0fcvZF-56" value="&lt;font style=&quot;font-size: 10px;&quot;&gt;Login Prompt&lt;/font&gt;" style="text;html=1;strokeColor=none;fillColor=none;align=center;verticalAlign=middle;whiteSpace=wrap;rounded=0;" vertex="1" parent="LtUoJUIRz-PqMo0fcvZF-44">
          <mxGeometry x="179" y="120.5" width="74" height="23" as="geometry" />
        </mxCell>
        <mxCell id="LtUoJUIRz-PqMo0fcvZF-90" value="favoriteMoviesIDs" style="text;html=1;align=center;verticalAlign=middle;resizable=0;points=[];autosize=1;strokeColor=none;fillColor=none;" vertex="1" parent="LtUoJUIRz-PqMo0fcvZF-44">
          <mxGeometry x="-63.629999999999995" y="35" width="113" height="26" as="geometry" />
        </mxCell>
        <mxCell id="LtUoJUIRz-PqMo0fcvZF-91" value="movies : any [ ] = [ ]" style="text;html=1;align=center;verticalAlign=middle;resizable=0;points=[];autosize=1;strokeColor=none;fillColor=none;" vertex="1" parent="LtUoJUIRz-PqMo0fcvZF-44">
          <mxGeometry x="143.37" y="9" width="122" height="26" as="geometry" />
        </mxCell>
        <mxCell id="LtUoJUIRz-PqMo0fcvZF-93" value="userFavorites : any [ ] = [ ]" style="text;html=1;align=center;verticalAlign=middle;resizable=0;points=[];autosize=1;strokeColor=none;fillColor=none;" vertex="1" parent="LtUoJUIRz-PqMo0fcvZF-44">
          <mxGeometry x="128" y="42" width="157" height="26" as="geometry" />
        </mxCell>
        <mxCell id="LtUoJUIRz-PqMo0fcvZF-64" value="getMovies" style="ellipse;whiteSpace=wrap;html=1;" vertex="1" parent="LtUoJUIRz-PqMo0fcvZF-44">
          <mxGeometry x="-69.76" y="219" width="120" height="40" as="geometry" />
        </mxCell>
        <mxCell id="LtUoJUIRz-PqMo0fcvZF-69" value="ngOnInit" style="swimlane;whiteSpace=wrap;html=1;startSize=23;" vertex="1" parent="LtUoJUIRz-PqMo0fcvZF-44">
          <mxGeometry x="-100.63" y="86" width="201" height="334" as="geometry" />
        </mxCell>
        <mxCell id="LtUoJUIRz-PqMo0fcvZF-68" value="getUserFavorites" style="ellipse;whiteSpace=wrap;html=1;" vertex="1" parent="LtUoJUIRz-PqMo0fcvZF-69">
          <mxGeometry x="33.500000000000014" y="184" width="120" height="40" as="geometry" />
        </mxCell>
        <mxCell id="LtUoJUIRz-PqMo0fcvZF-86" style="edgeStyle=orthogonalEdgeStyle;rounded=0;orthogonalLoop=1;jettySize=auto;html=1;entryX=0.5;entryY=0;entryDx=0;entryDy=0;" edge="1" parent="LtUoJUIRz-PqMo0fcvZF-62" source="LtUoJUIRz-PqMo0fcvZF-47" target="LtUoJUIRz-PqMo0fcvZF-64">
          <mxGeometry relative="1" as="geometry" />
        </mxCell>
        <mxCell id="LtUoJUIRz-PqMo0fcvZF-47" value="" style="rhombus;whiteSpace=wrap;html=1;" vertex="1" parent="LtUoJUIRz-PqMo0fcvZF-62">
          <mxGeometry x="33.38" y="121" width="88" height="60" as="geometry" />
        </mxCell>
        <mxCell id="LtUoJUIRz-PqMo0fcvZF-81" style="edgeStyle=orthogonalEdgeStyle;rounded=0;orthogonalLoop=1;jettySize=auto;html=1;exitX=0;exitY=1;exitDx=0;exitDy=0;entryX=0;entryY=0.5;entryDx=0;entryDy=0;" edge="1" parent="LtUoJUIRz-PqMo0fcvZF-62" source="LtUoJUIRz-PqMo0fcvZF-48" target="LtUoJUIRz-PqMo0fcvZF-54">
          <mxGeometry relative="1" as="geometry">
            <Array as="points">
              <mxPoint x="206" y="151" />
              <mxPoint x="206" y="123" />
            </Array>
          </mxGeometry>
        </mxCell>
        <mxCell id="LtUoJUIRz-PqMo0fcvZF-109" value="Text" style="edgeLabel;html=1;align=center;verticalAlign=middle;resizable=0;points=[];" vertex="1" connectable="0" parent="LtUoJUIRz-PqMo0fcvZF-81">
          <mxGeometry x="0.1359" relative="1" as="geometry">
            <mxPoint as="offset" />
          </mxGeometry>
        </mxCell>
        <mxCell id="LtUoJUIRz-PqMo0fcvZF-48" value="&lt;font style=&quot;font-size: 8px;&quot;&gt;No&lt;/font&gt;" style="text;html=1;strokeColor=none;fillColor=none;align=center;verticalAlign=middle;whiteSpace=wrap;rounded=0;" vertex="1" parent="LtUoJUIRz-PqMo0fcvZF-62">
          <mxGeometry x="113.5" y="131" width="50" height="20" as="geometry" />
        </mxCell>
        <mxCell id="LtUoJUIRz-PqMo0fcvZF-79" value="&lt;font style=&quot;font-size: 8px;&quot;&gt;Yes&lt;/font&gt;" style="text;html=1;strokeColor=none;fillColor=none;align=center;verticalAlign=middle;whiteSpace=wrap;rounded=0;" vertex="1" parent="LtUoJUIRz-PqMo0fcvZF-62">
          <mxGeometry x="43.5" y="181" width="50" height="20" as="geometry" />
        </mxCell>
        <mxCell id="LtUoJUIRz-PqMo0fcvZF-89" value="@Input" style="swimlane;whiteSpace=wrap;html=1;" vertex="1" parent="LtUoJUIRz-PqMo0fcvZF-62">
          <mxGeometry x="21" y="-5" width="131" height="70" as="geometry" />
        </mxCell>
        <mxCell id="LtUoJUIRz-PqMo0fcvZF-104" value="isFavorites" style="ellipse;whiteSpace=wrap;html=1;" vertex="1" parent="LtUoJUIRz-PqMo0fcvZF-62">
          <mxGeometry x="18.75" y="310" width="120" height="40" as="geometry" />
        </mxCell>
        <mxCell id="LtUoJUIRz-PqMo0fcvZF-105" value="toggleFavorites" style="ellipse;whiteSpace=wrap;html=1;" vertex="1" parent="LtUoJUIRz-PqMo0fcvZF-62">
          <mxGeometry x="18.75" y="363" width="120" height="40" as="geometry" />
        </mxCell>
        <mxCell id="LtUoJUIRz-PqMo0fcvZF-49" value="&lt;font style=&quot;font-size: 8px;&quot;&gt;IsUserLoggedIn?&lt;/font&gt;" style="text;html=1;strokeColor=none;fillColor=none;align=center;verticalAlign=middle;whiteSpace=wrap;rounded=0;" vertex="1" parent="LtUoJUIRz-PqMo0fcvZF-62">
          <mxGeometry x="48.44" y="133.44" width="57.88" height="35.12" as="geometry" />
        </mxCell>
        <mxCell id="LtUoJUIRz-PqMo0fcvZF-95" value="&lt;span style=&quot;background-color: rgb(255, 206, 159);&quot;&gt;movie-details&lt;/span&gt;" style="swimlane;whiteSpace=wrap;html=1;" vertex="1" parent="LtUoJUIRz-PqMo0fcvZF-32">
          <mxGeometry x="18" y="1212" width="338" height="81" as="geometry" />
        </mxCell>
        <mxCell id="LtUoJUIRz-PqMo0fcvZF-96" value="&lt;div style=&quot;text-align: left;&quot;&gt;&lt;span style=&quot;background-color: initial;&quot;&gt;public movie : any;&lt;/span&gt;&lt;/div&gt;&lt;div style=&quot;text-align: left;&quot;&gt;&lt;span style=&quot;background-color: initial;&quot;&gt;constructor(@Inject(MAT_DIALOG_DATA) public data: any)&amp;nbsp;&lt;/span&gt;&lt;/div&gt;&lt;div style=&quot;text-align: left;&quot;&gt;&lt;span style=&quot;background-color: initial;&quot;&gt;this.movie = data.movie&lt;/span&gt;&lt;/div&gt;" style="text;html=1;align=center;verticalAlign=middle;resizable=0;points=[];autosize=1;strokeColor=none;fillColor=none;" vertex="1" parent="LtUoJUIRz-PqMo0fcvZF-95">
          <mxGeometry x="-7.105427357601002e-15" y="23" width="338" height="55" as="geometry" />
        </mxCell>
        <mxCell id="LtUoJUIRz-PqMo0fcvZF-97" style="edgeStyle=orthogonalEdgeStyle;rounded=0;orthogonalLoop=1;jettySize=auto;html=1;exitX=1;exitY=0.5;exitDx=0;exitDy=0;entryX=1.002;entryY=0.33;entryDx=0;entryDy=0;entryPerimeter=0;" edge="1" parent="LtUoJUIRz-PqMo0fcvZF-32" source="LtUoJUIRz-PqMo0fcvZF-72" target="LtUoJUIRz-PqMo0fcvZF-96">
          <mxGeometry relative="1" as="geometry" />
        </mxCell>
        <mxCell id="LtUoJUIRz-PqMo0fcvZF-98" value="&lt;span style=&quot;background-color: rgb(255, 206, 159);&quot;&gt;director-details&lt;/span&gt;" style="swimlane;whiteSpace=wrap;html=1;" vertex="1" parent="LtUoJUIRz-PqMo0fcvZF-32">
          <mxGeometry x="16" y="1306" width="338" height="81" as="geometry" />
        </mxCell>
        <mxCell id="LtUoJUIRz-PqMo0fcvZF-99" value="&lt;div style=&quot;text-align: left;&quot;&gt;&lt;span style=&quot;background-color: initial;&quot;&gt;public director : any;&lt;/span&gt;&lt;/div&gt;&lt;div style=&quot;text-align: left;&quot;&gt;&lt;span style=&quot;background-color: initial;&quot;&gt;constructor(@Inject(MAT_DIALOG_DATA) public data: any)&amp;nbsp;&lt;/span&gt;&lt;/div&gt;&lt;div style=&quot;text-align: left;&quot;&gt;&lt;span style=&quot;background-color: initial;&quot;&gt;this.director = data.director&lt;/span&gt;&lt;/div&gt;" style="text;html=1;align=center;verticalAlign=middle;resizable=0;points=[];autosize=1;strokeColor=none;fillColor=none;" vertex="1" parent="LtUoJUIRz-PqMo0fcvZF-98">
          <mxGeometry x="-7.105427357601002e-15" y="23" width="338" height="55" as="geometry" />
        </mxCell>
        <mxCell id="LtUoJUIRz-PqMo0fcvZF-100" value="&lt;span style=&quot;background-color: rgb(255, 206, 159);&quot;&gt;genre-details&lt;/span&gt;" style="swimlane;whiteSpace=wrap;html=1;" vertex="1" parent="LtUoJUIRz-PqMo0fcvZF-32">
          <mxGeometry x="16" y="1406" width="338" height="81" as="geometry" />
        </mxCell>
        <mxCell id="LtUoJUIRz-PqMo0fcvZF-101" value="&lt;div style=&quot;text-align: left;&quot;&gt;&lt;span style=&quot;background-color: initial;&quot;&gt;public genre : any;&lt;/span&gt;&lt;/div&gt;&lt;div style=&quot;text-align: left;&quot;&gt;&lt;span style=&quot;background-color: initial;&quot;&gt;constructor(@Inject(MAT_DIALOG_DATA) public data: any)&amp;nbsp;&lt;/span&gt;&lt;/div&gt;&lt;div style=&quot;text-align: left;&quot;&gt;&lt;span style=&quot;background-color: initial;&quot;&gt;this.genre = data.genre&lt;/span&gt;&lt;/div&gt;" style="text;html=1;align=center;verticalAlign=middle;resizable=0;points=[];autosize=1;strokeColor=none;fillColor=none;" vertex="1" parent="LtUoJUIRz-PqMo0fcvZF-100">
          <mxGeometry x="-7.105427357601002e-15" y="23" width="338" height="55" as="geometry" />
        </mxCell>
        <mxCell id="LtUoJUIRz-PqMo0fcvZF-102" style="edgeStyle=orthogonalEdgeStyle;rounded=0;orthogonalLoop=1;jettySize=auto;html=1;entryX=0.999;entryY=0.53;entryDx=0;entryDy=0;entryPerimeter=0;" edge="1" parent="LtUoJUIRz-PqMo0fcvZF-32" source="LtUoJUIRz-PqMo0fcvZF-73" target="LtUoJUIRz-PqMo0fcvZF-99">
          <mxGeometry relative="1" as="geometry">
            <Array as="points">
              <mxPoint x="456" y="1019" />
              <mxPoint x="456" y="1358" />
            </Array>
          </mxGeometry>
        </mxCell>
        <mxCell id="LtUoJUIRz-PqMo0fcvZF-103" style="edgeStyle=orthogonalEdgeStyle;rounded=0;orthogonalLoop=1;jettySize=auto;html=1;entryX=0.999;entryY=0.393;entryDx=0;entryDy=0;entryPerimeter=0;" edge="1" parent="LtUoJUIRz-PqMo0fcvZF-32" source="LtUoJUIRz-PqMo0fcvZF-74" target="LtUoJUIRz-PqMo0fcvZF-101">
          <mxGeometry relative="1" as="geometry">
            <Array as="points">
              <mxPoint x="476" y="1076" />
              <mxPoint x="476" y="1451" />
            </Array>
          </mxGeometry>
        </mxCell>
      </root>
    </mxGraphModel>
  </diagram>
</mxfile>
